<?xml version="1.0" encoding="utf-8"?>
<!-- Generator: Adobe Illustrator 24.0.1, SVG Export Plug-In . SVG Version: 6.00 Build 0)  -->
<svg version="1.1" id="Layer_1" xmlns="http://www.w3.org/2000/svg" xmlns:xlink="http://www.w3.org/1999/xlink" x="0px" y="0px"
	 viewBox="0 0 220.9 216" style="enable-background:new 0 0 220.9 216;" xml:space="preserve">
<style type="text/css">
	.st0{clip-path:url(#SVGID_2_);}
	.st1{fill:url(#SVGID_3_);stroke:#403457;stroke-width:0.4239;stroke-miterlimit:10;}
	.st2{fill:#65B2E8;}
	.st3{opacity:0.3;}
	.st4{fill:#D51920;}
	.st5{fill:#ED1C25;}
	.st6{fill:#D4AE4B;}
	.st7{fill:#FFC443;}
	.st8{fill:#EFA444;}
	.st9{fill:#EF9438;}
	.st10{fill:#FFD340;}
	.st11{fill:#FBC14D;}
	.st12{fill:#74A734;}
	.st13{fill:#95BA32;}
	.st14{fill:#D31F26;}
	.st15{fill:#910D10;}
	.st16{fill:#D71920;}
	.st17{fill:#F15B40;}
	.st18{fill:#F69679;}
	.st19{clip-path:url(#SVGID_5_);}
</style>
<g>
	<defs>
		<rect id="SVGID_1_" width="220.9" height="216"/>
	</defs>
	<clipPath id="SVGID_2_">
		<use xlink:href="#SVGID_1_"  style="overflow:visible;"/>
	</clipPath>
	<g class="st0">
		<radialGradient id="SVGID_3_" cx="-1.4803" cy="215.0005" r="246.1144" gradientUnits="userSpaceOnUse">
			<stop  offset="0" style="stop-color:#F0F6FC"/>
			<stop  offset="1" style="stop-color:#65B2E8"/>
		</radialGradient>
		<rect x="-247.6" y="-31.1" class="st1" width="492.2" height="492.2"/>
		<g>
			<polygon class="st2" points="-1.2,217.5 11.1,461.1 35.8,461.1 -1,217.4 -1.1,216.9 10.2,-31.1 -14.6,-31.1 -1.5,217.5 			"/>
			<path class="st2" d="M-3.2,217.2L-3.2,217.2l-227.5,243.9h42.4L-2.9,217.3l0.3,0.2L-152,461.1h32.1L-2.5,217.5l0.1,0.1
				l-88.4,243.5h27l61.6-243.4l0.2,0.1l-0.2-0.1l0-0.1l0.2,0.1l-36.1,243.4h24.7l11.6-243.6l0,0l0-0.1l0-0.1l0.1,0.1l-0.1-0.2l0-0.1
				l0.1,0.2l-0.1-0.3l0-0.2l0.1,0l-0.1,0l0.1-0.1h-0.1l0.1-0.2l0,0l0-0.5l-0.1,0.6l0,0l0-0.2l0.1-0.4l-0.1,0.3l0-0.1l0.1-0.3
				l-0.1,0.2l0-0.1l0.1,0l-0.1,0l0-0.1l0-0.1l0,0L-39.8-31.1h-26l63.6,247.2l-0.1,0.1l-91-247.3H-123L-2.5,216.3l-0.1,0.1
				L-155.7-31.1h-37l190,247.6l-0.3,0.2L-236-31.1h-7.9c-1.2,1.2-2.5,2.5-3.7,3.7v32L-3.2,216.7l-0.5-0.1L-247.6,44.8v35L-4.4,216.5
				L-247.6,111v28.7L-7,216l-240.6-49.4v25.8l243.1,24.4l0.5,0.2l-243.6,0.5v25.1L-4,217.1l-0.3,0.1l-243.3,51v27l241-77l-241,105.7
				v31.4L-4.2,217.5l0,0l-243.4,173V431l244-213.7L-3.2,217.2z"/>
			<polygon class="st2" points="-0.6,217.6 -0.6,217.6 -0.8,217.8 -0.6,217.7 61.5,461.1 88.6,461.1 -0.5,217.6 -0.4,217.5 
				117.7,461.1 149.8,461.1 -0.3,217.5 -0.2,217.4 -0.4,217.4 -0.3,217.3 -0.4,217.3 -0.5,217.4 -0.4,217.4 -0.5,217.5 -0.5,217.4 
				-0.7,217.4 -0.6,217.6 -0.8,217.7 			"/>
			<path class="st2" d="M244.6,354.6v-31.4L3,217.8l241.6,76.9v-27L3.3,217.4l-1.1,0l-0.4-0.2l1.4,0.1l-2-0.4l-0.2-0.1l0.4-0.2
				l243.4-25.8v-25.9l-241.2,51L244.6,138v-28.9L3.4,215.4L244.6,77.8V42.6L1.2,216.3l-0.6,0.1L244.6,2v-29.5
				c-1.2-1.2-2.4-2.4-3.6-3.6h-10.7L0.3,216.5l-0.1,0L0,216.4L187.5-31.1h-36.7L-0.1,216.4l-0.3-0.1L118.2-31.1H88.8L-0.5,216.2
				l-0.1-0.1l62-247.2h-26L-0.7,216l0,0l0,0l0,0.1l-0.1,0l0.1,0l0,0.2l-0.1-0.1l0.1,0.2l0,0.2l-0.2-0.3l0,0.1l-0.1-0.1l0.1,0.3
				l-0.1,0l0.1,0.3l-0.2,0l0.2,0l0,0.1l0.1,0l0,0l0,0l0,0l0,0.1l0.1-0.1l0,0l0,0l0,0l0.1,0l-0.1-0.1l0.2-0.1l0,0l-0.1,0.2l0.1,0
				l0.1-0.1l0.1,0.1l0,0l0.1,0.1l0.1,0l0,0l0.1,0.1l0.1-0.1l0,0l0.1,0l0.2-0.1l0.1,0.1L0.2,217l0.2,0l0,0l0.3,0L0.6,217l1.3,0.4
				l-0.4,0L244.6,354.6z"/>
			<polygon class="st2" points="244.6,215.7 3.5,217.4 244.6,242 			"/>
			<polygon class="st2" points="228.8,461.1 0.3,217.4 0.1,217.4 186.2,461.1 			"/>
			<polygon class="st2" points="244.6,389.7 1.2,217.4 0.8,217.4 244.6,430.1 			"/>
		</g>
	</g>
</g>
<g>
	<path class="st3" d="M179.9,133.8c3.5-12.4,6.5-25.3,9-36.5c0.1,0,0.2,0,0.3,0c5.7-0.9,17.3-12,3.8-19.2c1-4.9,1.7-8.6,2.1-10.9
		c0.3-1.6,0.4-2.4,0.4-2.4s0.1,0,0.3-0.1c0.6-0.3,2-0.8,3.3-1.5c0.8-0.5,1.9-4.9,2.2-9.8c0.3-4.7-0.2-9.8-2.2-12.3
		c-4.2-5-33.4-6.3-33.4-6.3c-30.5-2.1-43.8,1.5-47.4,2.8c-0.7,0.2-1,0.4-1,0.4c-6.8,11.7,2.1,23.3,2.1,23.3c1.6,3.9,3.3,9,5.1,14.7
		c-0.8,0.2-1.6,0.3-2.4,0.5c-1.5-0.5-3-1.1-4.5-1.7C106.5,70.2,98,59.8,84.6,59.8c-13.4,0-17.1,6.5-17.1,6.5s8-6,8,4.8
		c0,10.8-6.4,10.8-6.4,10.8C56.3,79.7,53.3,78.2,40.3,98c-12.9,19.8-30.1,8.7-30.1,8.7c37.1,55.1,47,35.1,78.3,8.9
		c2.9,0.6,5.9,0.9,8.9,0.9c10.7,0,23.6-8.5,33.8-17c1.3,4.9,2.6,10,3.9,15.1l3.6,15c5.5,23.2,9.6,43.7,9.7,48.3
		c0.3,9.6,5.6,7.4,5.6,7.4c0.3,0,0.5-0.1,0.8-0.1c0.1,0,0.2-0.1,0.4-0.1c3.9-1.1,7.8-6.3,11.5-14c1.2-2.5,2.4-5.3,3.6-8.3
		c0.5-1.3,1-2.6,1.5-4c0.3,0,0.6,0,0.9,0"/>
	<g>
		<path class="st4" d="M152.1,79.5c0,0-30.3,34-51.6,34S59.8,97.4,59.8,97.4L152.1,79.5z"/>
		<path class="st4" d="M115.5,75.8c0,0,33.5-10.7,66.6-5s17.1,22.4,10.1,23.5C185.1,95.3,115.5,75.8,115.5,75.8z"/>
		<path class="st5" d="M144.4,99.4c0,0-18.3-15.3-51,11.6s-42.3,48.7-80.1-7.4c0,0,17.1,11.2,30.1-8.7s16-18.3,28.8-16.1
			c0,0,6.4,0,6.4-10.8s-8-4.8-8-4.8s3.7-6.5,17.1-6.5s21.9,10.4,33.1,14.7s20.2,7.7,44.7,6.2l13.3,5.6L144.4,99.4z"/>
		<g>
			<g>
				<path class="st6" d="M126.3,43.2c0.2,2.4,0,5.1-0.2,8c-0.1,1.7-0.1,3,0.1,4c0.6,3.5,2.4,3.3,2.4,3.3c-2.7,7.5,4.8,13.6,6.1,15.1
					c1.3,1.4,2.5,21.5,2.3,25.1c-0.2,3.6,4.5,16.3,5.6,21.7c1.1,5.4,4.1,9,4.5,18.5c0.4,9.5,0.9,15.4,4.1,20.5
					c3.2,5,2.3,9.2,2.9,16.7c0.3,4.1,2.2,5.6,3.9,6c-0.3,0.1-0.5,0.1-0.8,0.1c0,0-5.3,2.2-5.6-7.4c-0.3-9.6-18-89.3-29.2-116.8
					c0,0-8.9-11.6-2.1-23.3c0,0,0.3-0.2,1-0.4C124.9,36.6,126.1,39.6,126.3,43.2"/>
				<path class="st7" d="M154.1,176.1c-0.5-7.5,0.4-11.7-2.9-16.7c-3.2-5-3.8-10.9-4.1-20.5c-0.4-9.5-3.4-13.1-4.5-18.5
					c-1.1-5.4-5.7-18.1-5.6-21.7c0.2-3.6-1.1-23.7-2.3-25.1c-1.3-1.4-8.8-7.5-6.1-15.1c0,0-1.8,0.2-2.4-3.3
					c6.5,2.5,29.7,9.6,71.7,4.2c0,0,0.6,0.5,0.9,2.1c-0.2,0.1-0.3,0.1-0.3,0.1s-0.2,0.9-0.4,2.4c-3.2-0.7-6.8-0.9-10.6-0.2
					c-7.5,1.4-18.3-2.5-25.8-1.4c-7.5,1.1-22.6,0-22.6,0c3.2,5.7,5.9,38.8,5.6,44.7c-0.4,5.9,2.2,15.3,2.2,15.3
					c6.5,12.2,3.1,25.7,7,33.9c3.9,8.3,5,13.1,3.9,20.6c-0.4,2.6,0,4.1,0.6,5c-0.1,0-0.2,0.1-0.4,0.1
					C156.3,181.7,154.4,180.2,154.1,176.1z"/>
				<path class="st8" d="M197.9,59.4c-42,5.4-65.2-1.7-71.7-4.2c-0.2-1-0.2-2.3-0.1-4c0.2-2.9,0.4-5.6,0.2-8c11.7-0.7,63.1-3.4,78,7
					c-0.3,4.9-1.4,9.4-2.2,9.8c-1.2,0.7-2.7,1.3-3.3,1.5C198.6,59.9,197.9,59.4,197.9,59.4z"/>
				<path class="st9" d="M126.3,43.2c-0.3-3.6-1.5-6.6-5-8.8c3.5-1.3,16.8-4.9,47.4-2.8c0,0,29.2,1.4,33.4,6.3
					c2.1,2.4,2.5,7.6,2.2,12.3C189.4,39.8,138,42.4,126.3,43.2z"/>
			</g>
			<g>
				<path class="st10" d="M173.5,159.7c0-1.2,0.1-1.9,0.1-1.9s-4,5.1-6.7,3.9c-2.7-1.2-2.7-4.5-8.3-3.6c0,0,4.5,1.7,4.7,4.4
					c0,0,4.1,2.1,6.6,5.5c-3.7,7.7-7.6,12.9-11.5,14c-0.6-0.9-1-2.4-0.6-5c1.1-7.5,0-12.4-3.9-20.6c-3.9-8.3-0.5-21.7-7-33.9
					c0,0-2.5-9.3-2.2-15.3c0.4-5.9-2.3-39-5.6-44.7c0,0,15.1,1.1,22.6,0c7.5-1.1,18.3,2.9,25.8,1.4c3.7-0.7,7.4-0.5,10.6,0.2
					C195.9,75.9,185.8,128.9,173.5,159.7z"/>
				<path class="st11" d="M163.2,162.5c-0.2-2.7-4.7-4.4-4.7-4.4c5.6-0.9,5.7,2.4,8.3,3.6c2.7,1.2,6.7-3.9,6.7-3.9s0,0.8-0.1,1.9
					c-1.2,3-2.4,5.8-3.6,8.3C167.3,164.6,163.2,162.5,163.2,162.5z"/>
			</g>
			<path class="st11" d="M145.1,118.5c0,0,4.2-2.6,6.4,1c0,0,3-1.5,10.4,3.8c0,0-2.5-5.9-6.4-4.9c0,0-3.1-0.2-3.8-0.9
				C150.8,116.9,149.4,114.6,145.1,118.5z"/>
			<path class="st11" d="M165.2,107.4c0,0,3.5-0.6,4,1.4c0.5,2,0.6,6.4,5.9,4.8c0,0,0.5-0.5,2.7-0.4c2.1,0.2,4.6,0.3,5.8-0.5
				s2.8,2.1,2.8,2.1s0.4-4.5-4.4-2.6c0,0-6.4,0.5-7.1,0.1c-0.6-0.5-3.1,0.1-3.4-0.8C171.3,110.6,170.3,103.9,165.2,107.4z"/>
			<path class="st11" d="M163.1,92.7c0,0,6.4-3.4,9-2.9c2.6,0.5,3.2,3,4.6,2.5c1.4-0.5,2.4-3.6,5.1-2.9c0,0-2.8-1.1-5,0.8
				s-3.7-3.8-4.9-3.6C170.5,86.9,165.8,88,163.1,92.7z"/>
			<path class="st11" d="M134,67.9c0,0,2.3,1.1,4.4-0.5c2.1-1.6,4-1.4,5.3,0c1.3,1.4,4.6-2.7,6.1-2.6c0,0-1.9,0.8-4.8,0.7
				c-2.8-0.1-5.8-1.8-7.5-0.7C135.8,65.9,136.5,68,134,67.9z"/>
			<path class="st11" d="M165.2,69.3c0,0,4.2,1,4.9,2.3s3.8,3.3,6.2,2.6c2.4-0.7,12.9-1.1,14.5,1.6c0,0-1.6-5-12.8-3.3
				c0,0-4.3,1.7-6.2-1.1C169.9,68.7,165.2,69.3,165.2,69.3z"/>
			<path class="st11" d="M149.4,145.5c0,0,4.3-0.5,5.3,0.5c1,1,4.7,1.8,6.7,0.3c2-1.5,11.8-5.5,14.2-3.4c0,0-3.3-4.2-13.1,1.3
				c0,0-3.4,3.1-6.2,1.1C153.6,143.3,149.4,145.5,149.4,145.5z"/>
			<path class="st11" d="M158.1,82.7c0,0-2.8-0.4-3.3-1.2s-2.7-1.9-4.2-1.3c-1.5,0.6-8.3,1.5-9.5-0.2c0,0,1.4,3.2,8.5,1.3
				c0,0,2.7-1.3,4.1,0.3C155.1,83.3,158.1,82.7,158.1,82.7z"/>
			<path class="st11" d="M152.7,101.6c0,0,1.7-2.5,3.9-1c0,0,1.3-1.6,6.8-0.4c0,0-2.9-2.7-4.8-1.2c0,0-1.8,0.6-2.4,0.5
				S154.3,98.4,152.7,101.6z"/>
		</g>
		<g>
			<path class="st12" d="M167.8,69c-1.4-1.7-5.6-1.8-6,3c1.1,0.5,3,1,4.1-0.1C166.9,71,166.5,70,167.8,69z"/>
			<path class="st13" d="M167.8,69c-1.4-1.7-5.6-1.8-6,3C163.2,72.1,165,68.7,167.8,69z"/>
		</g>
		<g>
			<path class="st12" d="M147.4,107.7c1.5,0.3,5.7-1.7,3-6c-1.2,0.3-2.2,0.7-2.7,2C147.2,105,147.4,106.7,147.4,107.7z"/>
			<path class="st13" d="M147.4,107.7c1.5,0.3,5.7-1.7,3-6C149.3,102.7,149.5,105.9,147.4,107.7z"/>
		</g>
		<g>
			<path class="st12" d="M157.5,167.8c-1.1-3.1,1.9-8.5,8.4-5.5c-0.2,1.8-1,4.6-3.2,5.2C160.7,168.1,159.8,166.8,157.5,167.8z"/>
			<path class="st13" d="M157.5,167.8c-1.1-3.1,1.9-8.5,8.4-5.5C165.1,164.2,159.3,164,157.5,167.8z"/>
		</g>
		<g>
			<path class="st12" d="M180.7,86.5c1.1,1.5,6.3,2.9,7.4-2.9c-1.3-0.7-2.5-1.2-4-0.4C182.6,83.9,181.4,85.6,180.7,86.5z"/>
			<path class="st13" d="M180.7,86.5c1.1,1.5,6.3,2.9,7.4-2.9C186.2,83.7,183.9,86.5,180.7,86.5z"/>
		</g>
		<g>
			<path class="st12" d="M168.8,128.9c1.2,1.5,7,2.8,7.9-3.6c-1.4-0.7-2.7-1.1-4.4-0.2C170.8,126,169.6,127.9,168.8,128.9z"/>
			<path class="st13" d="M168.8,128.9c1.2,1.5,7,2.8,7.9-3.6C174.7,125.5,172.4,128.8,168.8,128.9z"/>
		</g>
		<g>
			
				<ellipse transform="matrix(0.9956 -9.362800e-02 9.362800e-02 0.9956 -8.4255 13.3229)" class="st14" cx="137.8" cy="96.5" rx="0.9" ry="0.5"/>
			
				<ellipse transform="matrix(0.9956 -9.362800e-02 9.362800e-02 0.9956 -8.4255 13.3229)" class="st15" cx="137.8" cy="96.5" rx="0.3" ry="0.1"/>
			<path class="st5" d="M137.8,96.6c0,0,8.5-13.5-14.1-22.1s-40.8,7-40.8,7l-19.5,27C63.4,108.5,120.5,75.3,137.8,96.6z"/>
		</g>
		<path class="st4" d="M21.1,109.6c0,0,13.5,21,29.5,21S76.1,112,91.5,104c0,0-35.3,17.1-46.1,0C45.4,104,44.7,121.9,21.1,109.6z"/>
		<path class="st4" d="M78.1,82.1c0,0,5.8-3.9,4.1-12.6c0,0,5.5,9.5,10.9,10s10.3,0.4,10.9,8.2C104.1,87.7,94.7,80.4,78.1,82.1z"/>
		<g>
			
				<ellipse transform="matrix(0.1605 -0.987 0.987 0.1605 50.9609 215.3355)" class="st16" cx="152.1" cy="77.7" rx="12.7" ry="12.7"/>
			
				<ellipse transform="matrix(8.259293e-02 -0.9966 0.9966 8.259293e-02 62.0671 222.842)" class="st17" cx="152.1" cy="77.7" rx="12.2" ry="12.2"/>
			<path class="st18" d="M159.5,78.6c0.7,0.4,2.2-0.9,2.1-1.6c-0.1-0.7-1.4-1-1.8-0.6C159.3,76.9,158.8,78.2,159.5,78.6z
				 M148.8,73.8c0.7,1,1.8-0.4,1.7-1.2C150.4,71.8,148.1,72.8,148.8,73.8z M159.7,79.8c-0.2-0.6-1.3,0.5-1.1,0.9
				C158.7,81.1,159.9,80.4,159.7,79.8z M154.6,72.7c-0.3-0.7-2.8-0.3-3.1,0.9c-0.3,1.1,1.2,1.6,1.9,1.5
				C154.1,74.9,155,73.4,154.6,72.7z M162.5,77.8c0.6,0,1.1-3,0.2-2.9C161.8,75,161.7,77.8,162.5,77.8z M157.1,79.3
				c0.7,0.1,0.4-2.4,0-2.4C156.6,76.9,156.2,79.2,157.1,79.3z M159.4,83c0.1-0.6-1.4-1-1.6-0.3C157.7,83.5,159.3,83.6,159.4,83z
				 M156.4,81.1c0.2-0.8-2.1-0.6-2.2,0C154.1,81.8,156.1,82.4,156.4,81.1z M151.9,82c-0.6-0.5-1.1,0.1-1.3,0.7
				c-0.2,0.5,0.4,2.1,0.9,1.9C152,84.4,152.5,82.4,151.9,82z M157.5,69.6c0.5-0.1,0.8-1.7,0.3-1.9c-0.5-0.2-1.3,0.5-1.4,0.9
				C156.4,69.1,156.9,69.7,157.5,69.6z M156.3,70.2c0-0.7-2.9-0.1-2.8,0.8C153.5,71.7,156.3,70.9,156.3,70.2z M145.2,74.3
				c0.4,0.4,1.4-1.4,1.2-1.8C146.1,72,144.8,73.9,145.2,74.3z M159.8,70.4c0.3-0.4-0.4-1.2-1-0.7C158.2,70.3,159.6,70.8,159.8,70.4z
				 M155.3,67.6c0.1-0.5-1.8-1.2-1.9-0.6C153.3,67.7,155.3,68.1,155.3,67.6z M153,80c0.5,0.4,2.1-1.4,1.6-1.9
				C154.1,77.7,152.5,79.6,153,80z M152.4,68.1c-1,0.3-1.7,1.8-0.9,2.4c0.8,0.6,1.2-0.1,1.4-1.1C153,68.9,153.3,67.8,152.4,68.1z
				 M159.9,74.6c0.5-0.5-0.4-1.3-0.9-0.9C158.5,74.2,159.2,75.3,159.9,74.6z M157.3,76.2c0.5-0.3,0.4-1.6-0.2-1.8
				c-0.6-0.2-1.5,0.3-1.5,0.9C155.5,76,156.8,76.4,157.3,76.2z M149.3,76.5c0.6-0.4-0.3-1.7-0.9-1.4
				C147.8,75.4,148.7,76.9,149.3,76.5z M153.5,76.2c0-0.7-3,0.5-2.6,1.4C151.4,78.5,153.5,77.4,153.5,76.2z M155.8,73.1
				c0,0.4,1.4-0.5,1-0.9C156.4,71.8,155.7,72.5,155.8,73.1z M141.4,76.8c0.5,0.2,1.3-1.4,1.1-1.8C142.3,74.6,140.7,76.6,141.4,76.8z
				 M143.6,71.4c-0.5-0.5-2.2,1.4-1.6,1.9C142.6,73.6,144.1,71.8,143.6,71.4z M142.1,78.6c0,1.1,1.3,0.4,1.7-0.1
				c0.5-0.4,1.1-0.4,1-1.1C144.7,76.9,142,77.5,142.1,78.6z M147.4,79.9c0.5,0,0.6-2.3,0-2.5c-0.7-0.2-1.1,0.4-1.3,1
				C145.8,78.9,146.9,79.9,147.4,79.9z M158,71.8c-0.6,0.4,0.2,1.3,0.8,1C159.4,72.4,158.6,71.4,158,71.8z M149.3,80.5
				c0.9,0.5,1.4-1.5,0.9-1.8C149.8,78.4,148.4,80,149.3,80.5z M147.5,68c-1.2,1.3-0.7,2-0.4,2c0.6,0.1,0.6-1.2,2.6-2.3
				c0.9-0.5,1.9-0.7,1.9-1C151.6,66.2,148.7,66.8,147.5,68z M147.5,71.4c0,0.6,2.3-0.4,2.4-0.9C149.8,70,147.4,70.8,147.5,71.4z
				 M144.7,69.5c-0.6,0.6,0.7,1.1,1,0.7C145.9,69.8,145.3,68.9,144.7,69.5z M160.9,71.5c-0.6,0.4,0.6,2.7,1.7,2
				C163.2,73.1,161.5,71.1,160.9,71.5z M156.1,84.3c0.3-0.4-2.1-1.2-2.4-0.7C153.3,84.1,155.8,84.7,156.1,84.3z M146.1,87
				c0,0.6,3.4,1.2,3.4,0.1C149.4,86.4,146.1,86.4,146.1,87z M150.3,87.8c0,0.7,1.8,1.2,2.1,0.4C152.6,87.7,150.3,87.1,150.3,87.8z
				 M157.3,87.4c0.7,0.1,2.1-0.7,2.3-1.4c0.2-0.7-1.7-1.6-2.4-1.3C156.6,84.9,156.4,87.2,157.3,87.4z M155.7,88.2
				c0.1-0.5-1.9-1.2-2-0.3C153.6,88.9,155.6,88.9,155.7,88.2z M161.1,83.5c0.9,0,2.1-3.2,1-3.6C161.4,79.6,160.2,83.5,161.1,83.5z
				 M143.6,84.5c0.2,0.8,3.2,0.7,3.5-0.1C147.2,84,143.4,83.7,143.6,84.5z M141.5,80.8c-0.5,0-0.7,1.1-0.4,1.5
				c0.3,0.4,1,0.6,1.4,0.3C143,82.3,142,80.7,141.5,80.8z M148.8,82.4c0-0.5-1.8-0.3-1.6,0.2C147.3,83,148.8,83,148.8,82.4z
				 M150.8,86.1c0.1,0.7,2.3,0.6,2.5-0.3C153.4,85.3,150.7,85.4,150.8,86.1z M144,80.3c-0.5,0.2-0.8,1.2-0.3,1.5
				c0.5,0.3,1.6-0.2,1.5-0.8C145.2,80.5,144.5,80.1,144,80.3z"/>
		</g>
		<g>
			
				<ellipse transform="matrix(0.1605 -0.987 0.987 0.1605 49.3343 261.5362)" class="st16" cx="178.4" cy="101.8" rx="9.4" ry="9.4"/>
			
				<ellipse transform="matrix(8.259293e-02 -0.9966 0.9966 8.259293e-02 62.2635 271.1686)" class="st17" cx="178.4" cy="101.8" rx="9" ry="9"/>
			<path class="st18" d="M184,102.4c0.5,0.3,1.6-0.7,1.6-1.2c-0.1-0.5-1-0.8-1.4-0.4C183.8,101.2,183.4,102.1,184,102.4z M176,98.9
				c0.5,0.7,1.4-0.3,1.3-0.9C177.1,97.4,175.5,98.2,176,98.9z M184,103.3c-0.2-0.5-1,0.3-0.8,0.7C183.3,104.3,184.2,103.8,184,103.3
				z M180.3,98c-0.2-0.5-2-0.2-2.3,0.6c-0.2,0.8,0.9,1.2,1.4,1.1C179.9,99.7,180.6,98.6,180.3,98z M186.1,101.9
				c0.4,0,0.8-2.2,0.1-2.2C185.6,99.7,185.6,101.8,186.1,101.9z M182.1,103c0.5,0.1,0.3-1.8,0-1.8
				C181.8,101.2,181.5,102.9,182.1,103z M183.9,105.7c0.1-0.5-1.1-0.8-1.2-0.2C182.6,106,183.8,106.2,183.9,105.7z M181.7,104.3
				c0.2-0.6-1.5-0.5-1.6,0C179.9,104.8,181.4,105.2,181.7,104.3z M178.3,104.9c-0.4-0.4-0.8,0.1-1,0.5c-0.2,0.4,0.3,1.6,0.7,1.4
				C178.3,106.7,178.7,105.3,178.3,104.9z M182.5,95.7c0.3-0.1,0.6-1.2,0.2-1.4c-0.3-0.1-1,0.4-1,0.7
				C181.6,95.4,182,95.9,182.5,95.7z M181.5,96.2c0-0.5-2.2,0-2.1,0.6C179.5,97.3,181.5,96.7,181.5,96.2z M173.3,99.2
				c0.3,0.3,1.1-1.1,0.9-1.4C174,97.6,173,98.9,173.3,99.2z M184.2,96.3c0.2-0.3-0.3-0.9-0.7-0.5C183,96.2,184,96.6,184.2,96.3z
				 M180.8,94.3c0-0.3-1.3-0.9-1.4-0.4C179.3,94.4,180.8,94.6,180.8,94.3z M179.1,103.5c0.4,0.3,1.5-1,1.2-1.4
				C180,101.8,178.7,103.1,179.1,103.5z M178.6,94.6c-0.7,0.2-1.3,1.4-0.7,1.8c0.6,0.4,0.9-0.1,1.1-0.8
				C179.1,95.3,179.3,94.4,178.6,94.6z M184.2,99.4c0.4-0.4-0.3-1-0.7-0.6C183.2,99.2,183.7,100,184.2,99.4z M182.3,100.6
				c0.4-0.2,0.3-1.2-0.2-1.3c-0.4-0.1-1.1,0.2-1.1,0.7C180.9,100.5,181.9,100.8,182.3,100.6z M176.4,100.9c0.4-0.3-0.2-1.3-0.6-1
				S175.9,101.2,176.4,100.9z M179.5,100.7c0-0.5-2.2,0.3-1.9,1C177.9,102.4,179.5,101.5,179.5,100.7z M181.2,98.4
				c0,0.3,1.1-0.3,0.8-0.7C181.6,97.4,181.1,97.9,181.2,98.4z M170.5,101.1c0.4,0.2,0.9-1.1,0.8-1.3
				C171.2,99.5,170,100.9,170.5,101.1z M172.1,97.1c-0.4-0.3-1.6,1-1.2,1.4C171.4,98.8,172.5,97.4,172.1,97.1z M171,102.5
				c0,0.9,0.9,0.3,1.3,0c0.4-0.3,0.8-0.3,0.7-0.8C173,101.2,171,101.6,171,102.5z M174.9,103.4c0.3,0,0.5-1.7,0-1.8
				c-0.5-0.1-0.8,0.3-1,0.7C173.7,102.7,174.6,103.4,174.9,103.4z M182.8,97.4c-0.4,0.3,0.2,1,0.6,0.7
				C183.8,97.8,183.3,97.1,182.8,97.4z M176.4,103.8c0.7,0.4,1-1.1,0.7-1.3C176.7,102.3,175.7,103.4,176.4,103.8z M175,94.6
				c-0.9,0.9-0.5,1.5-0.3,1.5c0.4,0.1,0.5-0.9,1.9-1.7c0.7-0.4,1.4-0.5,1.4-0.7C178.1,93.2,175.9,93.7,175,94.6z M175,97.1
				c0,0.5,1.7-0.3,1.8-0.7C176.8,96.1,175,96.6,175,97.1z M172.9,95.7c-0.5,0.4,0.5,0.8,0.7,0.5C173.8,95.9,173.4,95.2,172.9,95.7z
				 M185,97.2c-0.4,0.3,0.5,2,1.2,1.5C186.7,98.4,185.4,96.9,185,97.2z M181.4,106.7c0.2-0.3-1.5-0.9-1.8-0.5
				C179.3,106.5,181.2,106.9,181.4,106.7z M174,108.7c0,0.5,2.5,0.9,2.5,0.1C176.5,108.2,174,108.2,174,108.7z M177.1,109.2
				c0,0.5,1.4,0.9,1.6,0.3C178.8,109.2,177.1,108.7,177.1,109.2z M182.3,109c0.5,0.1,1.6-0.5,1.7-1.1c0.1-0.5-1.3-1.2-1.7-1
				C181.8,107.1,181.6,108.8,182.3,109z M181.1,109.6c0.1-0.3-1.4-0.9-1.5-0.2C179.6,110,181,110,181.1,109.6z M185.1,106.1
				c0.6,0,1.6-2.4,0.8-2.7C185.4,103.1,184.5,106,185.1,106.1z M172.1,106.8c0.1,0.6,2.4,0.5,2.6,0
				C174.8,106.4,172,106.2,172.1,106.8z M170.6,104c-0.3,0-0.5,0.8-0.3,1.1c0.2,0.3,0.7,0.4,1,0.2C171.7,105.2,170.9,104,170.6,104z
				 M176,105.3c0-0.3-1.3-0.2-1.2,0.1C174.9,105.7,176,105.7,176,105.3z M177.5,108c0.1,0.5,1.7,0.4,1.9-0.2
				C179.4,107.4,177.4,107.5,177.5,108z M172.4,103.7c-0.3,0.2-0.6,0.9-0.2,1.1c0.4,0.2,1.2-0.2,1.1-0.6
				C173.4,103.9,172.8,103.6,172.4,103.7z"/>
		</g>
		<g>
			<defs>
				<path id="SVGID_4_" d="M173.5,159.7c0-1.2,0.1-1.9,0.1-1.9s-4,5.1-6.7,3.9c-2.7-1.2-2.7-4.5-8.3-3.6c0,0,4.5,1.7,4.7,4.4
					c0,0,4.1,2.1,6.6,5.5c-3.7,7.7-7.6,12.9-11.5,14c-0.6-0.9-1-2.4-0.6-5c1.1-7.5,0-12.4-3.9-20.6c-3.9-8.3-0.5-21.7-7-33.9
					c0,0-2.5-9.3-2.2-15.3c0.4-5.9-2.3-39-5.6-44.7c0,0,15.1,1.1,22.6,0c7.5-1.1,18.3,2.9,25.8,1.4c3.7-0.7,7.4-0.5,10.6,0.2
					C195.9,75.9,185.8,128.9,173.5,159.7z"/>
			</defs>
			<clipPath id="SVGID_5_">
				<use xlink:href="#SVGID_4_"  style="overflow:visible;"/>
			</clipPath>
			<g class="st19">
				
					<ellipse transform="matrix(0.1605 -0.987 0.987 0.1605 7.1889 293.0391)" class="st16" cx="175.9" cy="142.3" rx="13.5" ry="13.5"/>
				
					<ellipse transform="matrix(8.259295e-02 -0.9966 0.9966 8.259295e-02 19.5323 305.8047)" class="st17" cx="175.9" cy="142.3" rx="12.9" ry="12.9"/>
				<path class="st18" d="M183.8,143.2c0.7,0.4,2.4-1,2.2-1.7c-0.1-0.7-1.5-1.1-2-0.6C183.6,141.4,183,142.8,183.8,143.2z
					 M172.4,138.1c0.7,1,1.9-0.5,1.8-1.3C174,136,171.7,137.1,172.4,138.1z M183.9,144.5c-0.2-0.7-1.4,0.5-1.2,0.9
					C182.9,145.9,184.1,145.2,183.9,144.5z M178.6,137c-0.3-0.7-2.9-0.3-3.3,0.9c-0.3,1.2,1.3,1.7,2,1.6
					C178,139.3,178.9,137.7,178.6,137z M186.9,142.4c0.6,0,1.1-3.2,0.2-3.1C186.1,139.4,186.1,142.4,186.9,142.4z M181.2,144
					c0.7,0.1,0.4-2.5,0-2.5C180.6,141.4,180.2,143.9,181.2,144z M183.7,147.9c0.1-0.6-1.5-1.1-1.7-0.3
					C181.8,148.4,183.6,148.6,183.7,147.9z M180.5,145.9c0.2-0.9-2.2-0.6-2.3,0C178,146.7,180.2,147.2,180.5,145.9z M175.7,146.8
					c-0.6-0.5-1.1,0.1-1.4,0.7c-0.3,0.6,0.4,2.2,1,2C175.7,149.4,176.3,147.3,175.7,146.8z M181.7,133.7c0.5-0.1,0.8-1.8,0.3-2
					c-0.5-0.2-1.4,0.5-1.5,1C180.5,133.2,181,133.8,181.7,133.7z M180.3,134.4c0-0.7-3.1-0.1-3,0.8
					C177.4,135.9,180.3,135.1,180.3,134.4z M168.5,138.7c0.4,0.5,1.5-1.5,1.3-2C169.6,136.3,168.1,138.2,168.5,138.7z M184.1,134.5
					c0.3-0.4-0.4-1.3-1-0.7C182.4,134.4,183.8,134.9,184.1,134.5z M179.3,131.6c0.1-0.5-1.9-1.3-2-0.6
					C177.1,131.7,179.3,132.1,179.3,131.6z M176.9,144.7c0.6,0.5,2.2-1.5,1.7-2C178.1,142.3,176.3,144.3,176.9,144.7z M176.2,132
					c-1,0.3-1.8,2-1,2.6c0.8,0.6,1.3-0.1,1.5-1.1C176.8,133,177.2,131.7,176.2,132z M184.2,139c0.5-0.6-0.5-1.4-0.9-0.9
					C182.7,138.6,183.4,139.8,184.2,139z M181.4,140.6c0.5-0.3,0.4-1.7-0.3-1.9c-0.6-0.2-1.6,0.3-1.6,1
					C179.5,140.4,180.9,140.9,181.4,140.6z M172.9,141.1c0.6-0.4-0.3-1.8-0.9-1.5C171.4,139.9,172.3,141.4,172.9,141.1z
					 M177.4,140.7c0-0.8-3.2,0.5-2.7,1.5C175.1,143.2,177.4,141.9,177.4,140.7z M179.8,137.4c0.1,0.4,1.5-0.5,1.1-0.9
					C180.5,136,179.7,136.8,179.8,137.4z M164.5,141.3c0.6,0.2,1.4-1.5,1.2-1.9C165.5,139,163.8,141.1,164.5,141.3z M166.9,135.6
					c-0.5-0.5-2.3,1.5-1.7,2C165.8,138,167.4,136,166.9,135.6z M165.3,143.3c0,1.2,1.3,0.4,1.8-0.1c0.5-0.4,1.2-0.4,1.1-1.2
					C168.1,141.4,165.2,142.1,165.3,143.3z M170.9,144.6c0.5,0,0.7-2.5,0-2.6c-0.7-0.2-1.1,0.5-1.4,1
					C169.2,143.6,170.3,144.6,170.9,144.6z M182.2,136c-0.6,0.4,0.3,1.4,0.8,1C183.6,136.7,182.8,135.6,182.2,136z M172.9,145.3
					c1,0.6,1.5-1.6,1-1.9C173.5,143.1,171.9,144.7,172.9,145.3z M171,132c-1.2,1.3-0.8,2.1-0.5,2.1c0.6,0.1,0.7-1.3,2.8-2.4
					c1-0.5,2-0.7,2-1.1C175.4,130.1,172.3,130.7,171,132z M171,135.6c0,0.7,2.5-0.5,2.5-1C173.5,134.2,170.9,135,171,135.6z
					 M168,133.5c-0.7,0.6,0.8,1.1,1,0.7C169.3,133.9,168.6,133,168,133.5z M185.3,135.7c-0.6,0.4,0.6,2.9,1.8,2.2
					C187.7,137.4,185.9,135.3,185.3,135.7z M180.2,149.3c0.3-0.4-2.2-1.3-2.6-0.7C177.2,149.1,179.8,149.7,180.2,149.3z
					 M169.5,152.2c0,0.7,3.6,1.2,3.6,0.1C173.1,151.5,169.5,151.5,169.5,152.2z M174,153c0,0.7,1.9,1.3,2.2,0.5
					C176.5,152.9,174,152.2,174,153z M181.4,152.6c0.8,0.2,2.3-0.8,2.5-1.5c0.2-0.7-1.8-1.7-2.5-1.4
					C180.7,149.9,180.5,152.4,181.4,152.6z M179.7,153.5c0.1-0.5-2-1.3-2.1-0.3C177.5,154.1,179.6,154.1,179.7,153.5z M185.5,148.4
					c0.9,0.1,2.3-3.4,1.1-3.9C185.8,144.3,184.5,148.4,185.5,148.4z M166.9,149.5c0.2,0.9,3.4,0.7,3.7-0.1
					C170.7,148.9,166.7,148.6,166.9,149.5z M164.6,145.5c-0.5,0-0.7,1.1-0.4,1.6c0.3,0.5,1.1,0.6,1.5,0.3
					C166.2,147.2,165.1,145.5,164.6,145.5z M172.4,147.3c0-0.5-1.9-0.3-1.7,0.2C170.8,147.9,172.4,147.9,172.4,147.3z M174.5,151.2
					c0.1,0.7,2.5,0.6,2.7-0.3C177.3,150.4,174.4,150.5,174.5,151.2z M167.3,145.1c-0.5,0.2-0.8,1.2-0.3,1.6c0.5,0.3,1.7-0.3,1.6-0.8
					C168.6,145.3,167.8,144.9,167.3,145.1z"/>
				<g>
					
						<ellipse transform="matrix(0.1605 -0.987 0.987 0.1605 5.7141 242.2587)" class="st16" cx="145.3" cy="117.8" rx="9.4" ry="9.4"/>
					
						<ellipse transform="matrix(8.259295e-02 -0.9966 0.9966 8.259295e-02 15.9082 252.8215)" class="st17" cx="145.3" cy="117.8" rx="9" ry="9"/>
					<path class="st18" d="M150.8,118.4c0.5,0.3,1.6-0.7,1.6-1.2c-0.1-0.5-1-0.8-1.4-0.4C150.6,117.2,150.2,118.1,150.8,118.4z
						 M142.8,114.9c0.5,0.7,1.4-0.3,1.3-0.9C144,113.4,142.3,114.2,142.8,114.9z M150.9,119.3c-0.2-0.5-1,0.3-0.8,0.7
						C150.2,120.3,151.1,119.8,150.9,119.3z M147.2,114c-0.2-0.5-2-0.2-2.3,0.6c-0.2,0.8,0.9,1.2,1.4,1.1
						C146.8,115.7,147.4,114.6,147.2,114z M153,117.9c0.4,0,0.8-2.2,0.1-2.2C152.5,115.7,152.4,117.8,153,117.9z M149,119
						c0.5,0.1,0.3-1.8,0-1.8C148.6,117.2,148.3,118.9,149,119z M150.7,121.7c0.1-0.5-1.1-0.8-1.2-0.2
						C149.4,122,150.7,122.2,150.7,121.7z M148.5,120.3c0.2-0.6-1.5-0.5-1.6,0C146.8,120.8,148.3,121.2,148.5,120.3z M145.2,120.9
						c-0.4-0.4-0.8,0.1-1,0.5c-0.2,0.4,0.3,1.6,0.7,1.4C145.2,122.7,145.6,121.3,145.2,120.9z M149.3,111.7c0.3-0.1,0.6-1.2,0.2-1.4
						c-0.3-0.1-1,0.4-1,0.7C148.5,111.4,148.9,111.9,149.3,111.7z M148.4,112.2c0-0.5-2.2,0-2.1,0.6
						C146.3,113.3,148.4,112.7,148.4,112.2z M140.2,115.2c0.3,0.3,1.1-1.1,0.9-1.4C140.9,113.6,139.9,114.9,140.2,115.2z M151,112.4
						c0.2-0.3-0.3-0.9-0.7-0.5C149.9,112.3,150.8,112.6,151,112.4z M147.7,110.3c0-0.3-1.3-0.9-1.4-0.4
						C146.2,110.4,147.7,110.6,147.7,110.3z M146,119.5c0.4,0.3,1.5-1,1.2-1.4C146.8,117.8,145.6,119.1,146,119.5z M145.5,110.6
						c-0.7,0.2-1.3,1.4-0.7,1.8c0.6,0.4,0.9-0.1,1.1-0.8C145.9,111.3,146.2,110.4,145.5,110.6z M151.1,115.4c0.4-0.4-0.3-1-0.7-0.6
						S150.5,116,151.1,115.4z M149.1,116.6c0.4-0.2,0.3-1.2-0.2-1.3c-0.4-0.1-1.1,0.2-1.1,0.7C147.8,116.5,148.8,116.8,149.1,116.6z
						 M143.2,116.9c0.4-0.3-0.2-1.3-0.6-1C142.1,116.1,142.8,117.2,143.2,116.9z M146.3,116.7c0-0.5-2.2,0.3-1.9,1
						C144.8,118.4,146.3,117.5,146.3,116.7z M148,114.4c0,0.3,1.1-0.3,0.8-0.7C148.5,113.4,148,113.9,148,114.4z M137.4,117.1
						c0.4,0.2,0.9-1.1,0.8-1.3C138,115.5,136.9,116.9,137.4,117.1z M139,113.1c-0.4-0.3-1.6,1-1.2,1.4
						C138.2,114.8,139.4,113.4,139,113.1z M137.9,118.5c0,0.9,0.9,0.3,1.3,0c0.4-0.3,0.8-0.3,0.7-0.8
						C139.8,117.2,137.8,117.6,137.9,118.5z M141.8,119.4c0.3,0,0.5-1.7,0-1.8c-0.5-0.1-0.8,0.3-1,0.7
						C140.6,118.7,141.4,119.4,141.8,119.4z M149.7,113.4c-0.4,0.3,0.2,1,0.6,0.7C150.7,113.8,150.1,113.1,149.7,113.4z
						 M143.2,119.8c0.7,0.4,1-1.1,0.7-1.3C143.6,118.3,142.5,119.4,143.2,119.8z M141.9,110.6c-0.9,0.9-0.5,1.5-0.3,1.5
						c0.4,0.1,0.5-0.9,1.9-1.7c0.7-0.4,1.4-0.5,1.4-0.7C144.9,109.2,142.8,109.7,141.9,110.6z M141.8,113.1c0,0.5,1.7-0.3,1.8-0.7
						C143.6,112.1,141.8,112.6,141.8,113.1z M139.8,111.7c-0.5,0.4,0.5,0.8,0.7,0.5C140.7,111.9,140.2,111.2,139.8,111.7z
						 M151.8,113.2c-0.4,0.3,0.5,2,1.2,1.5C153.5,114.4,152.3,112.9,151.8,113.2z M148.3,122.7c0.2-0.3-1.5-0.9-1.8-0.5
						C146.2,122.5,148.1,122.9,148.3,122.7z M140.8,124.7c0,0.5,2.5,0.9,2.5,0.1C143.3,124.2,140.8,124.2,140.8,124.7z M144,125.2
						c0,0.5,1.4,0.9,1.6,0.3C145.7,125.2,144,124.7,144,125.2z M149.2,125c0.5,0.1,1.6-0.5,1.7-1.1c0.1-0.5-1.3-1.2-1.7-1
						C148.7,123.1,148.5,124.8,149.2,125z M148,125.6c0.1-0.3-1.4-0.9-1.5-0.2C146.4,126,147.9,126,148,125.6z M152,122.1
						c0.6,0,1.6-2.4,0.8-2.7C152.2,119.2,151.3,122,152,122.1z M139,122.8c0.1,0.6,2.4,0.5,2.6,0C141.7,122.4,138.9,122.2,139,122.8
						z M137.4,120c-0.3,0-0.5,0.8-0.3,1.1c0.2,0.3,0.7,0.4,1,0.2C138.5,121.2,137.8,120,137.4,120z M142.9,121.3
						c0-0.3-1.3-0.2-1.2,0.1C141.7,121.7,142.9,121.7,142.9,121.3z M144.3,124c0.1,0.5,1.7,0.4,1.9-0.2
						C146.3,123.4,144.2,123.5,144.3,124z M139.3,119.7c-0.3,0.2-0.6,0.9-0.2,1.1c0.4,0.2,1.2-0.2,1.1-0.6
						C140.2,119.9,139.6,119.6,139.3,119.7z"/>
				</g>
			</g>
		</g>
	</g>
</g>
</svg>
