<?xml version="1.0" encoding="utf-8"?>
<!-- Generator: Adobe Illustrator 24.1.0, SVG Export Plug-In . SVG Version: 6.00 Build 0)  -->
<svg version="1.1" id="Layer_1" xmlns="http://www.w3.org/2000/svg" xmlns:xlink="http://www.w3.org/1999/xlink" x="0px" y="0px"
	 viewBox="0 0 1286.2 630" style="enable-background:new 0 0 1286.2 630;" xml:space="preserve">
<style type="text/css">
	.st0{fill:#D51920;}
	.st1{fill:#ED1C25;}
	.st2{fill:#D4AE4B;}
	.st3{fill:#FFC443;}
	.st4{fill:#EFA444;}
	.st5{fill:#EF9438;}
	.st6{fill:#FFD340;}
	.st7{fill:#FBC14D;}
	.st8{fill:#74A734;}
	.st9{fill:#95BA32;}
	.st10{fill:#D31F26;}
	.st11{fill:#910D10;}
	.st12{fill:#D71920;}
	.st13{fill:#F15B40;}
	.st14{fill:#F69679;}
	.st15{clip-path:url(#SVGID_2_);}
</style>
<g>
	<path d="M491.8,481.1c10.2-50.1,16.4-85.9,18.6-107.2c9.2,0.8,17.1,1.1,23.7,1.1c-4.7,19.8-7.8,33.7-9.3,41.8l14.4-1.7
		c1.3-6.9,2.5-13.6,3.6-20.1c1.1-6.5,2.5-13.2,4.2-20.1c3.8-0.7,7.9-1.2,12.2-1.5c4.3-0.3,7.2-0.5,8.9-0.6l2.4-0.3
		c-4.7,15.3-9.2,36.7-13.7,64.2c-2.2,12.4-4.2,25.1-6,38l-22.9,2.6c1.2-5.8,2.4-11.3,3.4-16.4c1-5.1,2-10.2,3-15.3
		c1-5.1,1.8-9.4,2.5-13l-14.3,1.3c-2.2,12.1-4.9,26.3-8.2,42.6L491.8,481.1z"/>
	<path d="M562,480.9l19.2-104.1l46.3-4c-0.7,2.2-1.2,4.3-1.7,6.4c-0.5,2.1-1,4.1-1.4,6.1c-0.5,2-0.9,3.8-1.1,5.3
		c-2.9,0.3-6.8,0.4-11.7,0.4h-9.9l-5.1,26.3c5.2-0.3,9.6-0.5,13.2-0.6c3.5-0.1,5.8-0.2,6.9-0.3c-0.4,2.8-0.7,5.5-1.1,8.1
		c-0.3,2.6-0.7,5.3-1.2,8.1c-1.1,0.1-2.7,0.2-4.9,0.2c-2.2,0-4.5,0.1-6.9,0.2c-2.4,0.1-5.1,0.2-8,0.3l-5,27l21.3-3.4l-1.4,16.7
		L562,480.9z"/>
	<path d="M660.3,478.5c-7.3-24.1-11.2-37.9-11.4-41.3l-1.9,0.6c-0.8,4.4-1.9,10.5-3.4,18.3c-1.5,7.8-2.7,14.1-3.6,18.7l-23.7,6.1
		c9.9-47.9,16-82,18.2-102.1c11.1-3.4,23.5-5.1,37.2-5.1c10.3,0,16.4,3.6,18.3,10.7c0.6,2.2,0.9,4.9,0.9,8.2c0,3.2-0.7,6.7-2,10.5
		c-1.3,3.8-3.1,7.4-5.4,10.8c-4.8,7-10.6,12.3-17.6,16c3.7,8,7,15.6,9.9,22.7c2.9,7.1,5.4,13.1,7.4,17.9L660.3,478.5z M661.7,394
		l-6.3,0.1l-4.7,23.3c3.8-0.4,8.6-2.8,14.4-7.3c6-4.6,9-8.3,9-11.3c0-2.8-2.6-4.3-7.9-4.7C664.7,394,663.2,394,661.7,394z"/>
	<path d="M765.7,404.8c0,5.8-0.8,12.3-2.5,19.3c-1.7,7.1-3.9,13.5-6.8,19.4c-2.9,5.9-6.2,11.2-9.9,15.9c-3.8,4.7-7.7,8.6-11.8,11.9
		c-8.5,6.7-16.6,10-24.5,10c-6.6,0-11.8-2.4-15.6-7.2c-4.2-5.2-6.3-12.9-6.3-22.9c0-10.9,2.5-22.6,7.6-35.2
		c5.1-12.6,11.7-23.1,19.9-31.5c8.9-9,18.2-13.4,27.9-13.4c8,0,13.9,3.2,17.6,9.7C764.2,386.2,765.7,394.2,765.7,404.8z
		 M745.4,413.8c0-7.9-2.3-11.9-6.9-11.9c-5.8,0-11.1,2.9-15.7,8.6c-3.7,4.6-6.9,10.8-9.6,18.7c-2.1,6.5-3.1,12.6-3.1,18.3
		c0,3.8,1.6,6.7,4.9,8.6c1,0.7,2,1,3.3,1c4.4,0,8.3-1.5,11.7-4.5c3.4-3,6.2-6.7,8.5-11.1c2.3-4.4,4-9.1,5.2-14.1
		C744.8,422.5,745.4,417.9,745.4,413.8z"/>
	<path d="M790.1,442c-1.6,9-3.2,18.7-4.9,29.3c-8.4,0.5-15.5,1.6-21.4,3.3c1.7-8.3,3.5-19.1,5.4-32.5c4.4-0.2,8-0.3,10.9-0.3h6.1
		C787.5,441.9,788.8,441.9,790.1,442z M798.3,396.4c-2.2,9.2-4.3,20.8-6.3,34.6c-6.3,0.4-12.5,0.6-18.7,0.6h-1.7
		c0.8-5.4,1.6-10.8,2.4-16c0.9-5.2,1.7-10.5,2.6-15.7C783.1,399.8,790.4,398.7,798.3,396.4z"/>
</g>
<g>
	<path d="M573.3,343.5c-7.3-24.1-11.2-37.9-11.4-41.3l-1.9,0.6c-0.8,4.4-1.9,10.5-3.4,18.3c-1.5,7.8-2.7,14.1-3.6,18.7l-23.7,6.1
		c9.9-47.9,16-82,18.2-102.1c11.1-3.4,23.5-5.1,37.2-5.1c10.3,0,16.4,3.6,18.3,10.7c0.6,2.2,0.9,4.9,0.9,8.2c0,3.2-0.7,6.7-2,10.5
		c-1.3,3.8-3.1,7.4-5.4,10.8c-4.8,7-10.6,12.3-17.6,16c3.7,8,7,15.6,9.9,22.7c2.9,7.1,5.4,13.1,7.4,17.9L573.3,343.5z M574.7,259
		l-6.3,0.1l-4.7,23.3c3.8-0.4,8.6-2.8,14.4-7.3c6-4.6,9-8.3,9-11.3c0-2.8-2.6-4.3-7.9-4.7C577.8,259,576.3,259,574.7,259z"/>
	<path d="M599.4,345.9l19.2-104.1l46.3-4c-0.7,2.2-1.2,4.3-1.7,6.4c-0.5,2.1-1,4.1-1.4,6.1c-0.5,2-0.9,3.8-1.1,5.3
		c-2.9,0.3-6.8,0.4-11.7,0.4H639l-5.1,26.3c5.2-0.3,9.6-0.5,13.2-0.6c3.5-0.1,5.8-0.2,6.9-0.3c-0.4,2.8-0.7,5.5-1.1,8.1
		c-0.3,2.6-0.7,5.3-1.2,8.1c-1.1,0.1-2.7,0.2-4.9,0.2c-2.2,0-4.5,0.1-6.9,0.2c-2.4,0.1-5.1,0.2-8,0.3l-5,27l21.3-3.4l-1.4,16.7
		L599.4,345.9z"/>
	<path d="M704.3,271c0.5-1.9,0.7-3.9,0.7-6c0-2.1-0.5-3.8-1.6-5.1c-1.1-1.3-2.2-1.9-3.4-1.9c-1.2,0-2.4,0.3-3.5,0.9
		c-1.1,0.6-2.3,1.3-3.4,2.3c-2.7,2.2-4,4.6-4,7.1c0,2.5,0.7,4.6,2,6.1c1.3,1.6,3,3,4.9,4.4c2,1.3,4.1,2.7,6.4,4.1
		c2.3,1.4,4.4,3.2,6.4,5.4c4.6,5.3,6.9,12.4,6.9,21.3c0,10.7-3.9,19.5-11.7,26.5c-7.4,6.7-16.8,10-28.2,10c-8.4,0-16.1-4.4-23-13.2
		l10.9-21.3c1.3,2.7,3.9,5.1,7.7,7.3c3.8,2.3,6.7,3.4,8.6,3.4c1.9,0,3.5-0.2,4.8-0.6c1.3-0.4,2.5-1,3.5-1.7c2.4-1.7,3.6-3.8,3.6-6.2
		c0-2.4-0.8-4.6-2.3-6.6c-1.5-2-3.4-3.9-5.6-5.7c-2.2-1.8-4.7-3.6-7.3-5.5c-2.6-1.9-5-3.8-7.2-5.9c-5.3-4.8-8-9.8-8-15
		c0-5.2,1.5-10.1,4.5-14.4c3-4.4,6.8-8.2,11.3-11.4c4.5-3.2,9.5-5.7,14.9-7.6c5.4-1.9,9.9-2.8,13.7-2.8s6.7,0.3,9.1,1
		c2.3,0.7,4.4,1.7,6.1,3c3.7,3.1,5.6,7.5,5.6,13.4c0,1.4-0.1,2.8-0.4,4.1c-0.2,1.3-0.5,2.8-0.6,4.4L704.3,271z"/>
	<path d="M729.2,259.7l0.7-18.7c5,0.4,10,0.6,15,0.6c13.3,0,26.4-0.8,39-2.4l-1.6,7.9c-0.5,2.2-0.9,4.5-1.4,6.8
		c-0.4,2.3-0.8,4.4-1.2,6.1c-2.2,0.6-4.4,1-6.6,1.2c-2.2,0.2-4.3,0.5-6.4,0.9c-1.7,7.3-3.4,16.4-5.1,27.3c-3.8,24-6.5,41.5-8,52.5
		l-26.3,4.1c7.7-36.2,12.9-64.6,15.6-85.1c-2.3-0.3-4.6-0.4-6.9-0.3C733.8,260.6,731.5,260.4,729.2,259.7z"/>
	<path d="M796.9,320.7l-5.9,21c-2.2,0.3-4.7,0.6-7.7,1c-2.9,0.4-5.8,0.7-8.7,1.1c-2.9,0.3-5.8,0.7-8.9,1.1c3.9-13,7.2-23.9,9.9-32.9
		c2.7-9,4.9-16.3,6.6-22.1c1.7-5.8,3.4-11.5,5.1-17.2c1.7-5.7,3.3-11.2,4.9-16.4c1.6-5.3,3-10.1,4.2-14.5
		c17.6-1.2,31.1-2.8,40.3-4.6c-0.9,9.4-1.6,20.6-2.1,33.5c-1.2,25.6-2.3,49.3-3.1,70.9c-2.9,0.5-5.6,0.9-8.4,1.3
		c-2.7,0.4-5.5,0.8-8.4,1.3c-2.9,0.5-5.6,0.9-7.9,1.3c1-9.2,2-17.4,2.7-24.7H796.9z M800.3,306.2l10.6-0.7c0-0.6,0.1-1.5,0.2-2.9
		c0.1-1.4,0.3-3,0.5-4.8c0.8-10.2,1.6-19.7,2.4-28.5l1-12.7l-2.3,0.1L800.3,306.2z"/>
	<path d="M856.5,241.7c2.1-0.2,4.6-0.4,7.4-0.7c2.8-0.3,5.6-0.5,8.3-0.8c2.7-0.2,5.6-0.5,8.5-0.8c-2.5,11.7-4.4,21-5.9,27.9
		c-1.4,6.9-2.6,12.3-3.4,16.4c-0.9,4.1-1.6,7.9-2.3,11.3c-1.5,7.2-2.5,12-3,14.2c-1.4,6.6-2.1,10.8-2.1,12.7c0,1.9,0.4,3.4,1.2,4.4
		c0.8,1,1.9,1.5,3.3,1.5c1.4,0,2.6-0.7,3.7-2c1.1-1.3,2-2.9,2.7-4.7c0.7-1.8,1.3-3.7,1.6-5.6c0.4-1.9,0.8-3.8,1.2-5.8
		c0.4-2,1-4.7,1.7-8.2c0.7-3.5,1.4-7.1,2.1-10.9c0.7-3.8,1.5-7.6,2.2-11.5c2-10,4.3-22.7,7-38l22.2-1.4l-0.7,3.7
		c-1.1,6-2.4,12.9-3.8,20.8c-1.4,7.9-2.6,14.7-3.8,20.4c-3,14.9-5.1,25.4-6.6,31.7c-1.4,6.2-3.4,11.3-5.9,15.2
		c-2.5,3.9-5.5,7.2-8.8,9.7c-6.4,4.8-13.8,7.2-22.2,7.2c-5.1,0-9.6-1.4-13.3-4.3c-4.2-3.4-6.3-8-6.3-13.6c0-0.4,0-0.8,0-1.1
		c0-0.4,0.1-1.7,0.4-3.9c0.2-2.2,0.8-6.1,1.6-11.8c0.9-5.7,1.8-11.6,2.8-17.7c1-6.1,2.1-12.3,3.2-18.5c1.1-6.2,2.2-11.8,3.1-16.9
		C854.9,249.7,856.2,243.4,856.5,241.7z"/>
	<path d="M949.2,343.5c-7.3-24.1-11.2-37.9-11.4-41.3l-1.9,0.6c-0.8,4.4-1.9,10.5-3.4,18.3c-1.5,7.8-2.7,14.1-3.6,18.7l-23.7,6.1
		c9.9-47.9,16-82,18.2-102.1c11.1-3.4,23.5-5.1,37.2-5.1c10.3,0,16.4,3.6,18.3,10.7c0.6,2.2,0.9,4.9,0.9,8.2c0,3.2-0.7,6.7-2,10.5
		c-1.3,3.8-3.1,7.4-5.4,10.8c-4.8,7-10.6,12.3-17.6,16c3.7,8,7,15.6,9.9,22.7c2.9,7.1,5.4,13.1,7.4,17.9L949.2,343.5z M950.6,259
		l-6.3,0.1l-4.7,23.3c3.8-0.4,8.6-2.8,14.4-7.3c6-4.6,9-8.3,9-11.3c0-2.8-2.6-4.3-7.9-4.7C953.7,259,952.1,259,950.6,259z"/>
	<path d="M1001.3,320.7l-5.9,21c-2.2,0.3-4.7,0.6-7.7,1c-2.9,0.4-5.8,0.7-8.7,1.1c-2.9,0.3-5.8,0.7-8.9,1.1
		c3.9-13,7.2-23.9,9.9-32.9c2.7-9,4.9-16.3,6.6-22.1c1.7-5.8,3.4-11.5,5.1-17.2c1.7-5.7,3.3-11.2,4.9-16.4c1.6-5.3,3-10.1,4.2-14.5
		c17.6-1.2,31.1-2.8,40.3-4.6c-0.9,9.4-1.6,20.6-2.1,33.5c-1.2,25.6-2.3,49.3-3.1,70.9c-2.9,0.5-5.6,0.9-8.4,1.3
		c-2.7,0.4-5.5,0.8-8.4,1.3c-2.9,0.5-5.6,0.9-7.9,1.3c1-9.2,2-17.4,2.7-24.7H1001.3z M1004.7,306.2l10.6-0.7c0-0.6,0.1-1.5,0.2-2.9
		c0.1-1.4,0.3-3,0.5-4.8c0.8-10.2,1.6-19.7,2.4-28.5l1-12.7l-2.3,0.1L1004.7,306.2z"/>
	<path d="M1064.5,238.5h4.1c1.9,0,7.2-0.2,16-0.6c1.3,6.9,2.6,13.3,3.7,19.2c3,17,5.1,27.9,6.3,32.7c0.4-2,0.8-4.3,1.3-6.9
		c0.5-2.6,1-5.3,1.6-8.1c0.6-2.8,1.1-5.7,1.7-8.7c1-4.7,2.9-14.1,5.9-28.2l17.9-2.1c-10.4,48.1-16.9,82.7-19.4,103.7
		c-1.1,0-5.1,0.8-11.8,2.4c-6.7,1.6-10.7,2.7-12.1,3.1c-1.9-26.1-4-44.6-6.3-55.5c-0.3,1.8-0.7,3.9-1.1,6.4c-0.5,2.4-1,5-1.4,7.8
		c-1.8,10.4-4.2,22.9-7.1,37.6l-21.4,5c10.9-51.8,17.2-87.8,19-108.1C1062.6,238.5,1063.7,238.5,1064.5,238.5z"/>
	<path d="M1124,259.7l0.7-18.7c5,0.4,10,0.6,15,0.6c13.3,0,26.4-0.8,39-2.4l-1.6,7.9c-0.5,2.2-0.9,4.5-1.4,6.8
		c-0.4,2.3-0.8,4.4-1.2,6.1c-2.2,0.6-4.4,1-6.6,1.2c-2.2,0.2-4.3,0.5-6.4,0.9c-1.7,7.3-3.4,16.4-5.1,27.3c-3.8,24-6.5,41.5-8,52.5
		l-26.3,4.1c7.7-36.2,12.9-64.6,15.6-85.1c-2.3-0.3-4.6-0.4-6.9-0.3C1128.6,260.6,1126.3,260.4,1124,259.7z"/>
</g>
<path class="st0" d="M287.4,220.2c0,0,87.5-27.9,173.8-12.9c86.3,14.9,44.7,58.5,26.3,61.2C469,271.2,287.4,220.2,287.4,220.2z"/>
<path class="st0" d="M382.7,229.9c0,0-79,88.7-134.5,88.7s-106.3-42-106.3-42L382.7,229.9z"/>
<path class="st1" d="M362.8,282c0,0-47.8-39.8-133.2,30.4S119.3,439.6,20.5,293c0,0,44.8,29.2,78.5-22.6s41.7-47.9,75.1-42
	c0,0,16.7,0,16.7-28.3s-20.9-12.6-20.9-12.6s9.6-16.9,44.6-16.9s57.1,27.1,86.4,38.5c29.2,11.4,52.6,20,116.5,16.1l34.7,14.5
	L362.8,282z"/>
<g>
	<g>
		<path class="st2" d="M315.6,135.1c0.5,6.3-0.1,13.3-0.6,20.9c-0.3,4.5-0.1,7.9,0.3,10.5c1.5,9.2,6.3,8.7,6.3,8.7
			c-7,19.7,12.6,35.6,15.9,39.4c3.3,3.7,6.6,56.2,6.1,65.6s11.7,42.6,14.5,56.7c2.8,14.1,10.8,23.4,11.7,48.3
			c0.9,24.8,2.3,40.3,10.8,53.4c8.4,13.1,6.1,23.9,7.5,43.6c0.8,10.7,5.7,14.5,10.1,15.8c-0.7,0.1-1.4,0.3-2.1,0.3
			c0,0-13.7,5.8-14.5-19.3c-0.8-25.1-47.1-233.1-76.1-304.9c0,0-23.1-30.2-5.5-60.8c0,0,0.9-0.4,2.7-1
			C311.8,118,314.9,125.8,315.6,135.1"/>
		<path class="st3" d="M388.1,482c-1.4-19.7,0.9-30.5-7.5-43.6c-8.4-13.1-9.8-28.6-10.8-53.4c-0.9-24.8-8.9-34.2-11.7-48.3
			c-2.8-14.1-15-47.3-14.5-56.7s-2.8-61.8-6.1-65.6c-3.3-3.7-23-19.7-15.9-39.4c0,0-4.8,0.5-6.3-8.7c16.9,6.5,77.4,25.1,187.1,11
			c0,0,1.7,1.3,2.4,5.5c-0.5,0.2-0.8,0.3-0.8,0.3s-0.4,2.3-1.1,6.3c-8.3-1.8-17.8-2.3-27.6-0.4c-19.7,3.7-47.8-6.6-67.5-3.7
			c-19.7,2.8-59,0-59,0c8.4,15,15.5,101.2,14.5,116.6c-0.9,15.5,5.6,39.8,5.6,39.8c16.9,31.9,8,67,18.3,88.5
			c10.3,21.5,13.1,34.2,10.3,53.9c-1,6.8,0,10.8,1.6,13.1c-0.3,0.1-0.6,0.2-1,0.3C393.8,496.6,388.8,492.8,388.1,482z"/>
		<path class="st4" d="M502.4,177.5c-109.7,14.1-170.2-4.6-187.1-11c-0.4-2.6-0.6-6-0.3-10.5c0.5-7.6,1.1-14.6,0.6-20.9
			c30.4-2,164.6-8.8,203.5,18.3c-0.8,12.8-3.6,24.4-5.8,25.6c-3.3,1.8-7,3.3-8.6,4C504,178.9,502.4,177.5,502.4,177.5z"/>
		<path class="st5" d="M315.6,135.1c-0.7-9.3-3.8-17.1-13.1-23c9.2-3.3,44-12.8,123.7-7.2c0,0,76.1,3.5,87.1,16.5
			c5.4,6.3,6.5,19.7,5.8,32C480.2,126.3,346,133.2,315.6,135.1z"/>
	</g>
	<g>
		<path class="st6" d="M438.6,439.3c0.1-3,0.2-5,0.2-5s-10.5,13.4-17.5,10.3c-6.9-3.1-7.2-11.7-21.8-9.3c0,0,11.7,4.5,12.2,11.5
			c0,0,10.7,5.4,17.3,14.3c-9.8,20.1-19.9,33.7-30,36.5c-1.7-2.3-2.6-6.3-1.6-13.1c2.8-19.7,0-32.3-10.3-53.9
			c-10.3-21.5-1.4-56.7-18.3-88.5c0,0-6.6-24.4-5.6-39.8c0.9-15.5-6.1-101.7-14.5-116.6c0,0,39.4,2.8,59,0
			c19.7-2.8,47.8,7.5,67.5,3.7c9.8-1.9,19.3-1.4,27.6,0.4C497.1,220.6,470.6,358.8,438.6,439.3z"/>
		<path class="st7" d="M411.8,446.7c-0.5-6.9-12.2-11.5-12.2-11.5c14.6-2.4,14.8,6.2,21.8,9.3c6.9,3.1,17.5-10.3,17.5-10.3
			s0,2-0.2,5c-3.1,7.8-6.3,15.1-9.5,21.7C422.4,452.1,411.8,446.7,411.8,446.7z"/>
	</g>
	<path class="st7" d="M364.4,331.6c0,0,11-6.7,16.7,2.6c0,0,7.9-3.8,27,10c0,0-6.5-15.3-16.7-12.7c0,0-8.1-0.6-10-2.3
		S375.9,321.6,364.4,331.6z"/>
	<path class="st7" d="M417,302.7c0,0,9.1-1.7,10.5,3.6s1.7,16.7,15.3,12.4c0,0,1.4-1.4,6.9-1c5.5,0.5,12,0.7,15.1-1.2
		c3.1-1.9,7.4,5.5,7.4,5.5s1-11.7-11.5-6.7c0,0-16.7,1.4-18.4,0.2c-1.7-1.2-8.1,0.2-8.8-2.2C432.8,311.1,430.2,293.6,417,302.7z"/>
	<path class="st7" d="M411.5,264.4c0,0,16.7-8.8,23.4-7.7c6.7,1.2,8.4,7.9,12,6.5s6.2-9.3,13.4-7.7c0,0-7.4-2.9-13.2,2.2
		c-5.7,5-9.6-10-12.9-9.3C430.9,249.1,418.5,252,411.5,264.4z"/>
	<path class="st7" d="M335.5,199.6c0,0,6,2.9,11.5-1.4c5.5-4.3,10.5-3.6,13.9,0c3.3,3.6,12-6.9,16-6.7c0,0-5,2.2-12.4,1.9
		c-7.4-0.2-15.1-4.8-19.6-1.9C340.3,194.4,342.2,199.9,335.5,199.6z"/>
	<path class="st7" d="M417,203.2c0,0,11,2.6,12.7,6c1.7,3.3,10,8.6,16.3,6.7c6.2-1.9,33.7-2.9,37.8,4.3c0,0-4.3-13.2-33.4-8.5
		c0,0-11.1,4.4-16.1-2.8C429.2,201.8,417,203.2,417,203.2z"/>
	<path class="st7" d="M375.8,402.1c0,0,11.2-1.3,14,1.2c2.7,2.6,12.4,4.6,17.6,0.7c5.2-3.9,30.7-14.3,37-9c0,0-8.6-10.9-34.2,3.5
		c0,0-8.9,8-16.1,3C386.7,396.6,375.8,402.1,375.8,402.1z"/>
	<path class="st7" d="M398.4,238.3c0,0-7.3-1-8.6-3.1c-1.3-2.1-7-5-10.9-3.4c-3.9,1.6-21.6,3.9-24.7-0.5c0,0,3.6,8.2,22.1,3.5
		c0,0,6.9-3.5,10.6,0.8S398.4,238.3,398.4,238.3z"/>
	<path class="st7" d="M384.5,287.7c0,0,4.6-6.5,10.1-2.7c0,0,3.5-4.1,17.8-1c0,0-7.5-7-12.6-3c0,0-4.7,1.7-6.3,1.2
		S388.5,279.2,384.5,287.7z"/>
</g>
<g>
	<path class="st8" d="M423.7,202.5c-3.8-4.4-14.5-4.8-15.7,7.9c3,1.2,7.8,2.5,10.6-0.1C421.5,207.6,420.3,205.1,423.7,202.5z"/>
	<path class="st9" d="M423.7,202.5c-3.8-4.4-14.5-4.8-15.7,7.9C411.7,210.7,416.5,201.8,423.7,202.5z"/>
</g>
<g>
	<path class="st8" d="M370.4,303.5c3.9,0.9,14.7-4.4,7.9-15.7c-3.1,0.8-5.8,1.7-7.2,5.3C369.9,296.5,370.4,300.9,370.4,303.5z"/>
	<path class="st9" d="M370.4,303.5c3.9,0.9,14.7-4.4,7.9-15.7C375.5,290.6,376,298.8,370.4,303.5z"/>
</g>
<g>
	<path class="st8" d="M397,460.3c-2.8-8.2,4.9-22.3,22-14.2c-0.6,4.7-2.7,11.9-8.2,13.6C405.3,461.3,402.9,457.9,397,460.3z"/>
	<path class="st9" d="M397,460.3c-2.8-8.2,4.9-22.3,22-14.2C416.7,451.1,401.5,450.4,397,460.3z"/>
</g>
<g>
	<path class="st8" d="M457.3,248.1c2.8,3.8,16.4,7.6,19.2-7.6c-3.3-1.8-6.4-3-10.5-0.9C462.3,241.5,459.3,245.8,457.3,248.1z"/>
	<path class="st9" d="M457.3,248.1c2.8,3.8,16.4,7.6,19.2-7.6C471.8,240.8,465.9,248.3,457.3,248.1z"/>
</g>
<g>
	<path class="st8" d="M426.5,358.8c3.2,4,18.3,7.4,20.5-9.3c-3.7-1.7-7.2-2.9-11.5-0.4C431.6,351.4,428.6,356.2,426.5,358.8z"/>
	<path class="st9" d="M426.5,358.8c3.2,4,18.3,7.4,20.5-9.3C441.9,350,435.8,358.6,426.5,358.8z"/>
</g>
<g>
	
		<ellipse transform="matrix(0.9956 -9.362800e-02 9.362800e-02 0.9956 -24.154 33.5445)" class="st10" cx="345.4" cy="274.2" rx="2.3" ry="1.2"/>
	
		<ellipse transform="matrix(0.9956 -9.362800e-02 9.362800e-02 0.9956 -24.154 33.5445)" class="st11" cx="345.4" cy="274.2" rx="0.7" ry="0.4"/>
	<path class="st1" d="M345.4,274.5c0,0,22.1-35.3-36.9-57.6s-106.4,18.3-106.4,18.3l-50.9,70.4C151.3,305.5,300.4,218.9,345.4,274.5
		z"/>
</g>
<path class="st0" d="M40.9,308.5c0,0,35.3,54.8,77,54.8s66.7-48.6,106.7-69.4c0,0-92.1,44.6-120.2,0
	C104.4,294,102.4,340.6,40.9,308.5z"/>
<path class="st0" d="M189.7,236.8c0,0,15.1-10.2,10.7-33c0,0,14.3,24.7,28.6,26.2s27,1,28.6,21.3C257.6,251.3,233,232.4,189.7,236.8
	z"/>
<g>
	
		<ellipse transform="matrix(0.1605 -0.987 0.987 0.1605 98.9561 566.877)" class="st12" cx="382.7" cy="225.3" rx="33.2" ry="33.2"/>
	
		<ellipse transform="matrix(8.259293e-02 -0.9966 0.9966 8.259293e-02 126.6246 588.0823)" class="st13" cx="382.7" cy="225.3" rx="31.8" ry="31.8"/>
	<path class="st14" d="M402.2,227.6c1.8,1,5.8-2.4,5.5-4.1c-0.3-1.7-3.6-2.7-4.8-1.6C401.7,223.1,400.2,226.5,402.2,227.6z
		 M374.1,215.1c1.7,2.5,4.8-1.1,4.5-3.2C378.3,209.8,372.4,212.5,374.1,215.1z M402.5,230.7c-0.6-1.7-3.4,1.2-3,2.3
		C400,234.1,403.1,232.4,402.5,230.7z M389.4,212.1c-0.8-1.7-7.2-0.7-8,2.3c-0.8,3,3.2,4.2,4.9,3.9C388,218,390.3,214,389.4,212.1z
		 M409.8,225.6c1.6,0.1,2.8-7.8,0.5-7.6C408,218.1,407.9,225.5,409.8,225.6z M395.8,229.5c1.8,0.2,1.1-6.2-0.1-6.2
		C394.5,223.1,393.5,229.2,395.8,229.5z M402,239.1c0.3-1.6-3.7-2.7-4.2-0.8C397.4,240.3,401.7,240.7,402,239.1z M394.1,234.2
		c0.5-2.2-5.4-1.6-5.8,0.1C388,236,393.3,237.4,394.1,234.2z M382.3,236.4c-1.5-1.2-2.8,0.3-3.5,1.7c-0.6,1.4,0.9,5.5,2.4,5
		C382.4,242.7,383.8,237.6,382.3,236.4z M397,204c1.2-0.3,2-4.4,0.9-4.8c-1.2-0.4-3.4,1.3-3.6,2.5C394.1,202.8,395.5,204.5,397,204z
		 M393.7,205.7c0-1.7-7.6-0.2-7.4,2C386.5,209.7,393.6,207.5,393.7,205.7z M364.7,216.3c1,1.1,3.7-3.7,3.1-4.8
		C367.3,210.5,363.7,215.2,364.7,216.3z M403,206.2c0.7-1-0.9-3.2-2.5-1.8C398.9,205.8,402.3,207.2,403,206.2z M391.3,199
		c0.1-1.2-4.7-3.2-5-1.5C385.8,199.2,391.1,200.2,391.3,199z M385.3,231.2c1.4,1.1,5.4-3.6,4.2-4.8
		C388.1,225.2,383.8,230.1,385.3,231.2z M383.5,200.1c-2.5,0.8-4.5,4.8-2.5,6.3c2,1.5,3.1-0.3,3.8-2.8
		C385.1,202.4,386,199.3,383.5,200.1z M403.2,217.1c1.3-1.4-1.1-3.5-2.3-2.2C399.6,216.1,401.3,219.1,403.2,217.1z M396.3,221.2
		c1.3-0.7,0.9-4.1-0.6-4.6c-1.6-0.5-4,0.7-4,2.4C391.6,220.7,395.2,221.8,396.3,221.2z M375.5,222.2c1.6-0.9-0.7-4.4-2.3-3.6
		C371.7,219.3,373.9,223.1,375.5,222.2z M386.4,221.4c0-1.9-7.8,1.2-6.7,3.6C380.9,227.4,386.5,224.4,386.4,221.4z M392.4,213.3
		c0.1,1,3.7-1.2,2.7-2.3C394,209.9,392.2,211.7,392.4,213.3z M354.9,222.9c1.4,0.5,3.3-3.7,2.8-4.7
		C357.2,217.2,353.2,222.3,354.9,222.9z M360.6,208.7c-1.3-1.2-5.7,3.7-4.2,4.8C357.9,214.7,361.9,209.9,360.6,208.7z M356.6,227.7
		c0.1,3,3.3,0.9,4.5-0.1c1.2-1.1,2.9-1,2.6-2.9C363.5,223.1,356.6,224.7,356.6,227.7z M370.5,230.9c1.2-0.1,1.7-6-0.1-6.5
		c-1.8-0.4-2.8,1.1-3.4,2.5C366.3,228.4,369.2,231,370.5,230.9z M398.3,209.9c-1.5,1.1,0.6,3.4,2.1,2.5
		C401.9,211.4,399.8,208.8,398.3,209.9z M375.5,232.6c2.4,1.4,3.6-3.9,2.4-4.6C376.8,227.1,373,231.2,375.5,232.6z M370.8,200
		c-3,3.3-1.9,5.1-1.1,5.2c1.5,0.2,1.6-3.2,6.8-5.9c2.4-1.2,5-1.8,5-2.6C381.5,195.2,373.8,196.7,370.8,200z M370.7,208.9
		c0,1.7,6.1-1.2,6.2-2.4C376.9,205.2,370.6,207.2,370.7,208.9z M363.4,203.8c-1.6,1.4,1.9,2.8,2.5,1.8
		C366.5,204.5,365,202.3,363.4,203.8z M405.9,209.1c-1.4,1.1,1.6,7.1,4.3,5.3C411.8,213.3,407.3,208,405.9,209.1z M393.3,242.5
		c0.8-1-5.4-3.2-6.4-1.8C386,242.1,392.5,243.5,393.3,242.5z M367,249.6c0,1.6,8.9,3,8.9,0.3C375.9,247.9,367.1,248,367,249.6z
		 M378.2,251.5c0,1.8,4.8,3.1,5.5,1.2C384.2,251.3,378.1,249.7,378.2,251.5z M396.4,250.6c1.9,0.4,5.6-1.9,6-3.7
		c0.5-1.8-4.5-4.1-6.2-3.5C394.7,244,394,250.1,396.4,250.6z M392.3,252.7c0.3-1.2-4.9-3.2-5.2-0.8
		C386.8,254.3,391.9,254.4,392.3,252.7z M406.3,240.4c2.3,0.1,5.6-8.3,2.7-9.5C407.2,230.1,404,240.3,406.3,240.4z M360.6,243
		c0.5,2.1,8.3,1.8,9.1-0.2C370.1,241.6,360.2,240.9,360.6,243z M355.1,233.2c-1.2,0-1.7,2.8-1,3.9c0.7,1.2,2.6,1.5,3.7,0.9
		C359,237.2,356.3,233.2,355.1,233.2z M374.2,237.6c0-1.2-4.6-0.7-4.2,0.4C370.3,239.1,374.2,239,374.2,237.6z M379.3,247.2
		c0.3,1.7,6.1,1.5,6.6-0.8C386.2,245.2,379.1,245.5,379.3,247.2z M361.7,232.1c-1.2,0.6-2,3.1-0.7,3.8c1.3,0.8,4.1-0.6,4-2
		C364.9,232.7,362.9,231.6,361.7,232.1z"/>
</g>
<g>
	
		<ellipse transform="matrix(0.1605 -0.987 0.987 0.1605 94.7108 687.4562)" class="st12" cx="451.5" cy="288.1" rx="24.6" ry="24.6"/>
	
		<ellipse transform="matrix(8.259293e-02 -0.9966 0.9966 8.259293e-02 127.1372 714.2098)" class="st13" cx="451.5" cy="288.1" rx="23.5" ry="23.5"/>
	<path class="st14" d="M466,289.8c1.3,0.7,4.3-1.8,4.1-3c-0.2-1.3-2.6-2-3.6-1.2C465.5,286.4,464.5,289,466,289.8z M445.1,280.5
		c1.3,1.9,3.5-0.8,3.3-2.4C448.2,276.6,443.8,278.6,445.1,280.5z M466.2,292.1c-0.4-1.2-2.5,0.9-2.2,1.7
		C464.3,294.6,466.6,293.3,466.2,292.1z M456.4,278.3c-0.6-1.3-5.3-0.5-5.9,1.7c-0.6,2.2,2.4,3.1,3.6,2.9
		C455.4,282.6,457.1,279.7,456.4,278.3z M471.6,288.3c1.2,0.1,2.1-5.8,0.4-5.7C470.2,282.8,470.1,288.3,471.6,288.3z M461.2,291.2
		c1.3,0.1,0.8-4.6-0.1-4.6C460.2,286.5,459.4,291,461.2,291.2z M465.8,298.3c0.2-1.2-2.8-2-3.1-0.6
		C462.3,299.2,465.5,299.5,465.8,298.3z M459.9,294.7c0.4-1.6-4-1.2-4.3,0.1S459.3,297.1,459.9,294.7z M451.2,296.3
		c-1.1-0.9-2.1,0.3-2.6,1.3c-0.5,1,0.7,4.1,1.8,3.7C451.3,301,452.3,297.2,451.2,296.3z M462.1,272.3c0.9-0.3,1.5-3.3,0.6-3.6
		c-0.9-0.3-2.5,1-2.6,1.8C459.9,271.4,460.9,272.6,462.1,272.3z M459.6,273.6c0-1.3-5.7-0.1-5.5,1.5
		C454.3,276.5,459.6,274.9,459.6,273.6z M438.1,281.4c0.8,0.8,2.8-2.8,2.3-3.6C440,277.1,437.4,280.6,438.1,281.4z M466.5,273.9
		c0.5-0.7-0.7-2.4-1.9-1.3C463.4,273.6,466,274.6,466.5,273.9z M457.8,268.6c0.1-0.9-3.5-2.4-3.7-1.1
		C453.8,268.7,457.7,269.5,457.8,268.6z M453.4,292.5c1.1,0.8,4-2.7,3.1-3.6C455.5,288,452.3,291.6,453.4,292.5z M452,269.4
		c-1.9,0.6-3.3,3.6-1.8,4.7c1.5,1.1,2.3-0.2,2.8-2.1C453.2,271.1,453.9,268.8,452,269.4z M466.7,282c1-1-0.8-2.6-1.7-1.6
		S465.2,283.5,466.7,282z M461.5,285.1c1-0.5,0.7-3-0.5-3.4c-1.2-0.4-3,0.5-3,1.8C458.1,284.7,460.7,285.5,461.5,285.1z
		 M446.1,285.8c1.2-0.7-0.5-3.3-1.7-2.7S445,286.5,446.1,285.8z M454.2,285.2c0-1.4-5.8,0.9-5,2.7
		C450.1,289.6,454.3,287.4,454.2,285.2z M458.6,279.2c0.1,0.8,2.7-0.9,2-1.7C459.9,276.6,458.5,278,458.6,279.2z M430.8,286.3
		c1,0.4,2.5-2.8,2.1-3.5C432.6,282.1,429.6,285.8,430.8,286.3z M435.1,275.8c-1-0.9-4.2,2.7-3.1,3.6
		C433.1,280.2,436.1,276.7,435.1,275.8z M432.1,289.8c0,2.2,2.5,0.7,3.4-0.1c0.9-0.8,2.2-0.8,1.9-2.1
		C437.3,286.5,432.1,287.6,432.1,289.8z M442.4,292.2c0.9-0.1,1.2-4.5-0.1-4.8c-1.3-0.3-2,0.8-2.5,1.9
		C439.3,290.4,441.4,292.3,442.4,292.2z M463.1,276.6c-1.1,0.8,0.5,2.5,1.5,1.8C465.7,277.8,464.1,275.8,463.1,276.6z M446.2,293.5
		c1.8,1,2.7-2.9,1.8-3.4C447.1,289.4,444.3,292.4,446.2,293.5z M442.7,269.3c-2.3,2.4-1.4,3.8-0.8,3.9c1.1,0.2,1.2-2.4,5.1-4.4
		c1.8-0.9,3.7-1.3,3.7-2C450.6,265.8,444.9,266.9,442.7,269.3z M442.6,275.9c0,1.2,4.5-0.9,4.6-1.8
		C447.2,273.2,442.5,274.7,442.6,275.9z M437.1,272.1c-1.2,1.1,1.4,2.1,1.9,1.3C439.5,272.7,438.3,271,437.1,272.1z M468.6,276
		c-1.1,0.8,1.2,5.3,3.2,3.9C473.1,279.2,469.7,275.3,468.6,276z M459.3,300.8c0.6-0.7-4-2.3-4.7-1.3
		C453.9,300.5,458.8,301.5,459.3,300.8z M439.8,306.1c0,1.2,6.6,2.2,6.6,0.2C446.4,304.8,439.9,304.9,439.8,306.1z M448.1,307.5
		c0,1.3,3.5,2.3,4.1,0.9C452.6,307.3,448.1,306.2,448.1,307.5z M461.6,306.8c1.4,0.3,4.1-1.4,4.5-2.7c0.3-1.3-3.4-3-4.6-2.6
		C460.3,301.9,459.9,306.5,461.6,306.8z M458.6,308.4c0.2-0.9-3.6-2.4-3.8-0.6C454.5,309.6,458.3,309.6,458.6,308.4z M469,299.3
		c1.7,0.1,4.1-6.1,2-7C469.6,291.7,467.3,299.2,469,299.3z M435.1,301.2c0.3,1.6,6.1,1.4,6.7-0.1
		C442.2,300.2,434.8,299.6,435.1,301.2z M431,293.9c-0.9,0-1.3,2-0.8,2.9c0.5,0.9,2,1.1,2.7,0.6C433.9,296.9,431.9,293.9,431,293.9z
		 M445.2,297.2c0-0.9-3.4-0.5-3.1,0.3C442.3,298.3,445.2,298.2,445.2,297.2z M449,304.3c0.2,1.3,4.5,1.1,4.9-0.6
		C454.1,302.8,448.8,303,449,304.3z M435.9,293.1c-0.9,0.4-1.5,2.3-0.5,2.8c1,0.6,3-0.5,2.9-1.5
		C438.3,293.5,436.8,292.7,435.9,293.1z"/>
</g>
<g>
	<defs>
		<path id="SVGID_1_" d="M438.6,439.3c0.1-3,0.2-5,0.2-5s-10.5,13.4-17.5,10.3c-6.9-3.1-7.2-11.7-21.8-9.3c0,0,11.7,4.5,12.2,11.5
			c0,0,10.7,5.4,17.3,14.3c-9.8,20.1-19.9,33.7-30,36.5c-1.7-2.3-2.6-6.3-1.6-13.1c2.8-19.7,0-32.3-10.3-53.9
			c-10.3-21.5-1.4-56.7-18.3-88.5c0,0-6.6-24.4-5.6-39.8c0.9-15.5-6.1-101.7-14.5-116.6c0,0,39.4,2.8,59,0
			c19.7-2.8,47.8,7.5,67.5,3.7c9.8-1.9,19.3-1.4,27.6,0.4C497.1,220.6,470.6,358.8,438.6,439.3z"/>
	</defs>
	<clipPath id="SVGID_2_">
		<use xlink:href="#SVGID_1_"  style="overflow:visible;"/>
	</clipPath>
	<g class="st15">
		
			<ellipse transform="matrix(0.1605 -0.987 0.987 0.1605 -15.2843 769.6754)" class="st12" cx="444.8" cy="393.8" rx="35.2" ry="35.2"/>
		
			<ellipse transform="matrix(8.259295e-02 -0.9966 0.9966 8.259295e-02 15.613 804.6064)" class="st13" cx="444.8" cy="393.8" rx="33.7" ry="33.7"/>
		<path class="st14" d="M465.5,396.3c1.9,1,6.1-2.5,5.8-4.3c-0.3-1.8-3.8-2.9-5.1-1.7C464.9,391.5,463.4,395.1,465.5,396.3z
			 M435.7,383c1.8,2.7,5.1-1.2,4.7-3.4C440.1,377.4,433.9,380.3,435.7,383z M465.9,399.6c-0.6-1.8-3.6,1.3-3.2,2.4
			C463.1,403.2,466.4,401.4,465.9,399.6z M451.9,379.9c-0.9-1.8-7.6-0.8-8.5,2.4c-0.8,3.2,3.4,4.4,5.2,4.1
			C450.4,386.1,452.8,381.8,451.9,379.9z M473.6,394.2c1.7,0.1,2.9-8.3,0.5-8.1C471.7,386.3,471.5,394.1,473.6,394.2z M458.7,398.3
			c1.9,0.2,1.2-6.5-0.1-6.6C457.3,391.6,456.2,398,458.7,398.3z M465.3,408.6c0.3-1.7-4-2.9-4.4-0.8
			C460.3,409.8,464.9,410.2,465.3,408.6z M456.9,403.3c0.6-2.3-5.7-1.7-6.1,0.1C450.4,405.2,456.1,406.7,456.9,403.3z M444.4,405.6
			c-1.6-1.3-3,0.4-3.7,1.8c-0.7,1.5,1,5.8,2.6,5.3C444.5,412.3,446,406.9,444.4,405.6z M460,371.3c1.2-0.4,2.2-4.7,0.9-5.1
			c-1.3-0.5-3.6,1.4-3.8,2.6C456.9,370,458.3,371.7,460,371.3z M456.4,373.1c0-1.8-8.1-0.2-7.9,2.1
			C448.8,377.3,456.4,374.9,456.4,373.1z M425.7,384.3c1.1,1.2,4-4,3.3-5.1C428.4,378.1,424.6,383.2,425.7,384.3z M466.3,373.6
			c0.7-1.1-1-3.4-2.7-1.9C461.9,373.2,465.6,374.6,466.3,373.6z M453.9,365.9c0.2-1.3-4.9-3.4-5.3-1.6
			C448.1,366.2,453.7,367.2,453.9,365.9z M447.5,400.2c1.5,1.2,5.8-3.9,4.4-5.1C450.6,393.8,446,399,447.5,400.2z M445.6,367.1
			c-2.7,0.8-4.7,5.1-2.6,6.7c2.1,1.6,3.3-0.3,4-2.9C447.3,369.5,448.3,366.3,445.6,367.1z M466.5,385.1c1.4-1.5-1.2-3.7-2.5-2.4
			S464.5,387.2,466.5,385.1z M459.2,389.5c1.4-0.8,1-4.4-0.7-4.9c-1.7-0.5-4.3,0.7-4.3,2.5C454.3,389,458,390.2,459.2,389.5z
			 M437.2,390.6c1.7-1-0.8-4.7-2.4-3.9S435.5,391.6,437.2,390.6z M448.8,389.7c0-2-8.3,1.3-7.1,3.8
			C442.9,396.1,448.8,392.9,448.8,389.7z M455.1,381.1c0.1,1.1,3.9-1.3,2.8-2.4C456.8,377.5,454.9,379.4,455.1,381.1z M415.2,391.3
			c1.5,0.6,3.5-4,3-5C417.7,385.3,413.5,390.6,415.2,391.3z M421.4,376.3c-1.4-1.3-6,3.9-4.4,5.1
			C418.5,382.6,422.7,377.5,421.4,376.3z M417.1,396.4c0.1,3.2,3.5,1,4.8-0.1c1.3-1.1,3.1-1.1,2.8-3.1
			C424.5,391.6,417.1,393.2,417.1,396.4z M431.8,399.8c1.3-0.1,1.8-6.4-0.1-6.9c-1.9-0.5-2.9,1.2-3.6,2.7
			C427.3,397.1,430.4,399.9,431.8,399.8z M461.4,377.5c-1.6,1.1,0.7,3.6,2.2,2.6C465.1,379.2,462.9,376.4,461.4,377.5z M437.2,401.6
			c2.6,1.5,3.8-4.1,2.6-4.9C438.6,395.8,434.5,400.1,437.2,401.6z M432.2,367c-3.2,3.5-2,5.5-1.2,5.6c1.6,0.2,1.7-3.4,7.2-6.3
			c2.5-1.3,5.3-1.9,5.3-2.8C443.5,361.9,435.4,363.5,432.2,367z M432,376.5c0,1.8,6.5-1.2,6.5-2.6C438.6,372.6,432,374.7,432,376.5z
			 M424.3,371c-1.7,1.5,2,3,2.7,1.9C427.7,371.8,426,369.5,424.3,371z M469.4,376.6c-1.5,1.1,1.7,7.6,4.6,5.6
			C475.7,381.1,470.9,375.5,469.4,376.6z M456.1,412.1c0.8-1-5.7-3.4-6.8-1.9C448.3,411.7,455.2,413.1,456.1,412.1z M428.2,419.6
			c0,1.7,9.5,3.2,9.4,0.3C437.6,417.8,428.2,417.9,428.2,419.6z M440,421.7c0,1.9,5.1,3.3,5.8,1.2C446.4,421.4,440,419.8,440,421.7z
			 M459.4,420.7c2,0.4,5.9-2.1,6.4-3.9c0.5-1.9-4.8-4.3-6.5-3.7C457.5,413.7,456.8,420.2,459.4,420.7z M455,423
			c0.3-1.3-5.2-3.4-5.5-0.8C449.2,424.7,454.5,424.7,455,423z M469.9,409.9c2.4,0.1,5.9-8.8,2.9-10.1
			C470.8,399,467.4,409.7,469.9,409.9z M421.4,412.6c0.5,2.2,8.8,1.9,9.6-0.2C431.5,411.2,420.9,410.4,421.4,412.6z M415.5,402.3
			c-1.3,0-1.8,2.9-1.1,4.2c0.7,1.2,2.8,1.6,3.9,0.9C419.7,406.5,416.8,402.2,415.5,402.3z M435.8,406.9c0-1.3-4.9-0.7-4.5,0.4
			C431.7,408.5,435.8,408.4,435.8,406.9z M441.2,417.1c0.3,1.8,6.5,1.6,7-0.9C448.5,415,440.9,415.2,441.2,417.1z M422.5,401.1
			c-1.3,0.6-2.1,3.3-0.7,4.1c1.4,0.8,4.3-0.7,4.2-2.1C425.9,401.7,423.8,400.5,422.5,401.1z"/>
		<g>
			
				<ellipse transform="matrix(0.1605 -0.987 0.987 0.1605 -19.1336 637.1437)" class="st12" cx="365" cy="329.8" rx="24.6" ry="24.6"/>
			
				<ellipse transform="matrix(8.259295e-02 -0.9966 0.9966 8.259295e-02 6.1546 666.3257)" class="st13" cx="365" cy="329.8" rx="23.5" ry="23.5"/>
			<path class="st14" d="M379.5,331.6c1.3,0.7,4.3-1.8,4.1-3c-0.2-1.3-2.6-2-3.6-1.2C379,328.2,378,330.7,379.5,331.6z M358.6,322.3
				c1.3,1.9,3.5-0.8,3.3-2.4C361.7,318.3,357.3,320.4,358.6,322.3z M379.7,333.9c-0.4-1.2-2.5,0.9-2.2,1.7
				C377.8,336.4,380.1,335.1,379.7,333.9z M369.9,320.1c-0.6-1.3-5.3-0.5-5.9,1.7c-0.6,2.2,2.4,3.1,3.6,2.9
				C368.9,324.4,370.6,321.4,369.9,320.1z M385.1,330.1c1.2,0.1,2.1-5.8,0.4-5.7C383.7,324.5,383.6,330,385.1,330.1z M374.7,332.9
				c1.3,0.1,0.8-4.6-0.1-4.6C373.7,328.2,372.9,332.7,374.7,332.9z M379.3,340.1c0.2-1.2-2.8-2-3.1-0.6
				C375.8,341,379,341.3,379.3,340.1z M373.4,336.4c0.4-1.6-4-1.2-4.3,0.1C368.9,337.8,372.8,338.8,373.4,336.4z M364.7,338.1
				c-1.1-0.9-2.1,0.3-2.6,1.3c-0.5,1,0.7,4.1,1.8,3.7C364.8,342.7,365.8,339,364.7,338.1z M375.6,314.1c0.9-0.3,1.5-3.3,0.6-3.6
				c-0.9-0.3-2.5,1-2.6,1.8C373.4,313.2,374.4,314.4,375.6,314.1z M373.1,315.4c0-1.3-5.7-0.1-5.5,1.5
				C367.8,318.3,373.1,316.6,373.1,315.4z M351.6,323.2c0.8,0.8,2.8-2.8,2.3-3.6C353.5,318.8,350.9,322.4,351.6,323.2z M380,315.7
				c0.5-0.7-0.7-2.4-1.9-1.3C376.9,315.4,379.5,316.4,380,315.7z M371.3,310.3c0.1-0.9-3.5-2.4-3.7-1.1
				C367.3,310.5,371.2,311.2,371.3,310.3z M366.9,334.2c1.1,0.8,4-2.7,3.1-3.6C369,329.8,365.8,333.4,366.9,334.2z M365.5,311.1
				c-1.9,0.6-3.3,3.6-1.8,4.7c1.5,1.1,2.3-0.2,2.8-2.1C366.7,312.9,367.4,310.6,365.5,311.1z M380.2,323.7c1-1-0.8-2.6-1.7-1.6
				S378.7,325.2,380.2,323.7z M375,326.8c1-0.5,0.7-3-0.5-3.4c-1.2-0.4-3,0.5-3,1.8C371.6,326.4,374.2,327.3,375,326.8z
				 M359.6,327.6c1.2-0.7-0.5-3.3-1.7-2.7S358.5,328.2,359.6,327.6z M367.7,327c0-1.4-5.8,0.9-5,2.7
				C363.6,331.4,367.8,329.2,367.7,327z M372.1,320.9c0.1,0.8,2.7-0.9,2-1.7C373.4,318.4,372,319.8,372.1,320.9z M344.3,328.1
				c1,0.4,2.5-2.8,2.1-3.5C346.1,323.8,343.1,327.6,344.3,328.1z M348.6,317.5c-1-0.9-4.2,2.7-3.1,3.6
				C346.6,322,349.6,318.4,348.6,317.5z M345.6,331.6c0,2.2,2.5,0.7,3.4-0.1c0.9-0.8,2.2-0.8,1.9-2.1
				C350.8,328.2,345.6,329.4,345.6,331.6z M355.9,334c0.9-0.1,1.2-4.5-0.1-4.8c-1.3-0.3-2,0.8-2.5,1.9
				C352.8,332.1,354.9,334.1,355.9,334z M376.6,318.4c-1.1,0.8,0.5,2.5,1.5,1.8C379.2,319.6,377.6,317.6,376.6,318.4z M359.7,335.2
				c1.8,1,2.7-2.9,1.8-3.4C360.6,331.2,357.8,334.2,359.7,335.2z M356.2,311.1c-2.3,2.4-1.4,3.8-0.8,3.9c1.1,0.2,1.2-2.4,5.1-4.4
				c1.8-0.9,3.7-1.3,3.7-2C364.1,307.5,358.4,308.7,356.2,311.1z M356.1,317.7c0,1.2,4.5-0.9,4.6-1.8
				C360.7,315,356,316.5,356.1,317.7z M350.6,313.9c-1.2,1.1,1.4,2.1,1.9,1.3C353,314.5,351.8,312.8,350.6,313.9z M382.1,317.8
				c-1.1,0.8,1.2,5.3,3.2,3.9C386.6,321,383.2,317,382.1,317.8z M372.8,342.6c0.6-0.7-4-2.3-4.7-1.3
				C367.4,342.3,372.3,343.3,372.8,342.6z M353.3,347.9c0,1.2,6.6,2.2,6.6,0.2C359.9,346.6,353.4,346.7,353.3,347.9z M361.6,349.3
				c0,1.3,3.5,2.3,4.1,0.9C366.1,349.1,361.6,348,361.6,349.3z M375.1,348.6c1.4,0.3,4.1-1.4,4.5-2.7c0.3-1.3-3.4-3-4.6-2.6
				C373.8,343.7,373.4,348.2,375.1,348.6z M372.1,350.2c0.2-0.9-3.6-2.4-3.8-0.6C368,351.4,371.8,351.4,372.1,350.2z M382.5,341
				c1.7,0.1,4.1-6.1,2-7C383.1,333.4,380.8,340.9,382.5,341z M348.6,342.9c0.3,1.6,6.1,1.4,6.7-0.1
				C355.7,341.9,348.3,341.4,348.6,342.9z M344.5,335.7c-0.9,0-1.3,2-0.8,2.9c0.5,0.9,2,1.1,2.7,0.6
				C347.4,338.7,345.4,335.7,344.5,335.7z M358.7,339c0-0.9-3.4-0.5-3.1,0.3C355.8,340.1,358.7,340,358.7,339z M362.5,346.1
				c0.2,1.3,4.5,1.1,4.9-0.6C367.6,344.6,362.3,344.8,362.5,346.1z M349.4,334.9c-0.9,0.4-1.5,2.3-0.5,2.8c1,0.6,3-0.5,2.9-1.5
				C351.8,335.3,350.3,334.5,349.4,334.9z"/>
		</g>
	</g>
</g>
<path d="M893.2,407.1c0.5-1.9,0.7-3.9,0.7-6c0-2.1-0.5-3.8-1.6-5.1c-1.1-1.3-2.2-1.9-3.4-1.9c-1.2,0-2.4,0.3-3.5,0.9
	c-1.1,0.6-2.3,1.3-3.4,2.3c-2.7,2.2-4,4.6-4,7.1c0,2.5,0.7,4.6,2,6.2c1.3,1.6,3,3,4.9,4.4c2,1.3,4.1,2.7,6.4,4.2
	c2.3,1.4,4.4,3.3,6.5,5.5c4.6,5.4,6.9,12.5,6.9,21.4c0,10.7-3.9,19.6-11.8,26.5c-7.5,6.7-16.9,10-28.3,10c-8.4,0-16.1-4.4-23.1-13.2
	l10.9-21.4c1.3,2.7,3.9,5.1,7.7,7.3c3.8,2.3,6.7,3.4,8.6,3.4c1.9,0,3.5-0.2,4.8-0.6c1.3-0.4,2.5-1,3.5-1.7c2.4-1.7,3.6-3.8,3.6-6.2
	c0-2.4-0.8-4.7-2.3-6.7c-1.5-2-3.4-3.9-5.7-5.7c-2.2-1.8-4.7-3.7-7.3-5.5c-2.6-1.9-5-3.8-7.2-6c-5.4-4.8-8-9.8-8-15.1
	c0-5.3,1.5-10.1,4.5-14.5c3-4.4,6.8-8.2,11.3-11.4c4.5-3.2,9.5-5.7,14.9-7.6c5.4-1.9,10-2.8,13.7-2.8c3.7,0,6.8,0.3,9.1,1
	c2.3,0.7,4.4,1.7,6.1,3c3.7,3.1,5.6,7.6,5.6,13.5c0,1.4-0.1,2.8-0.4,4.2c-0.2,1.3-0.5,2.8-0.6,4.4L893.2,407.1z"/>
<path d="M903.9,482.3l19.2-104.4l46.5-4c-0.7,2.2-1.2,4.3-1.7,6.4c-0.5,2.1-1,4.1-1.4,6.1c-0.5,2-0.9,3.8-1.1,5.3
	c-2.9,0.3-6.8,0.4-11.8,0.4h-9.9l-5.2,26.4c5.3-0.3,9.7-0.5,13.2-0.6c3.5-0.1,5.8-0.2,6.9-0.3c-0.4,2.8-0.7,5.5-1.1,8.1
	c-0.3,2.6-0.7,5.3-1.2,8.1c-1.1,0.1-2.7,0.2-4.9,0.2c-2.2,0-4.5,0.1-6.9,0.2c-2.4,0.1-5.1,0.2-8,0.3l-5,27.1l21.4-3.4l-1.4,16.8
	L903.9,482.3z"/>
<path d="M980.7,457l-5.9,21.1c-2.2,0.3-4.8,0.6-7.7,1c-2.9,0.4-5.8,0.7-8.7,1.1c-2.9,0.3-5.8,0.7-8.9,1.1c3.9-13,7.2-24,10-33
	c2.7-9,4.9-16.4,6.7-22.2c1.7-5.8,3.4-11.5,5.1-17.2c1.7-5.7,3.3-11.2,4.9-16.5c1.6-5.3,3-10.2,4.2-14.6c17.7-1.2,31.2-2.8,40.4-4.6
	c-0.9,9.5-1.6,20.7-2.2,33.6c-1.2,25.7-2.3,49.4-3.2,71.1c-2.9,0.5-5.7,0.9-8.4,1.3c-2.7,0.4-5.5,0.8-8.5,1.3
	c-2.9,0.5-5.6,0.9-8,1.3c1.1-9.2,2-17.4,2.7-24.8H980.7z M984.2,442.4l10.6-0.7c0-0.6,0.1-1.6,0.2-2.9c0.1-1.4,0.3-3,0.5-4.8
	c0.8-10.2,1.6-19.7,2.4-28.5l1-12.8l-2.3,0.1L984.2,442.4z"/>
<path d="M1025.9,395.8l0.7-18.8c5,0.4,10,0.6,15.1,0.6c13.4,0,26.4-0.8,39.2-2.4l-1.6,7.9c-0.5,2.2-0.9,4.5-1.4,6.8
	c-0.4,2.3-0.8,4.4-1.2,6.1c-2.2,0.6-4.4,1-6.6,1.2c-2.2,0.2-4.4,0.6-6.5,0.9c-1.7,7.4-3.4,16.5-5.2,27.4c-3.8,24.1-6.5,41.6-8,52.6
	l-26.4,4.2c7.7-36.3,13-64.8,15.6-85.3c-2.3-0.3-4.6-0.4-6.9-0.3C1030.5,396.8,1028.2,396.5,1025.9,395.8z"/>
<path d="M1079.1,395.8l0.7-18.8c5,0.4,10,0.6,15.1,0.6c13.4,0,26.4-0.8,39.2-2.4l-1.6,7.9c-0.5,2.2-0.9,4.5-1.4,6.8
	c-0.4,2.3-0.8,4.4-1.2,6.1c-2.2,0.6-4.4,1-6.6,1.2c-2.2,0.2-4.4,0.6-6.5,0.9c-1.7,7.4-3.4,16.5-5.2,27.4c-3.8,24.1-6.5,41.6-8,52.6
	l-26.4,4.2c7.7-36.3,13-64.8,15.6-85.3c-2.3-0.3-4.6-0.4-6.9-0.3C1083.7,396.8,1081.4,396.5,1079.1,395.8z"/>
<path d="M1145.1,461.5c3.6-0.3,8.7-0.4,15.2-0.4c0.2,3.7,0.5,6.8,0.9,9.1c0.4,2.3,0.6,4.1,0.8,5.2c0.1,1.1,0.3,1.8,0.4,2.2l-4.4-0.1
	c-10,0-20,0.9-30,2.7c-3.3,0.7-6.2,1.4-8.9,2.3c2.3-17.7,5.3-36.3,9.1-55.8c3.8-19.5,7-35.9,9.7-49.2l25.8-3.4
	c-8.9,37.7-14.1,60.8-15.6,69.4C1146.5,452,1145.6,458.1,1145.1,461.5z"/>
<path d="M1162.7,482.3l19.2-104.4l46.5-4c-0.7,2.2-1.2,4.3-1.7,6.4c-0.5,2.1-1,4.1-1.4,6.1c-0.5,2-0.9,3.8-1.1,5.3
	c-2.9,0.3-6.8,0.4-11.8,0.4h-9.9l-5.2,26.4c5.3-0.3,9.7-0.5,13.2-0.6c3.5-0.1,5.8-0.2,6.9-0.3c-0.4,2.8-0.7,5.5-1.1,8.1
	c-0.3,2.6-0.7,5.3-1.2,8.1c-1.1,0.1-2.7,0.2-4.9,0.2c-2.2,0-4.5,0.1-6.9,0.2c-2.4,0.1-5.1,0.2-8,0.3l-5,27.1l21.4-3.4l-1.4,16.8
	L1162.7,482.3z"/>
</svg>
