<?xml version="1.0" encoding="utf-8"?>
<!-- Generator: Adobe Illustrator 24.1.0, SVG Export Plug-In . SVG Version: 6.00 Build 0)  -->
<svg width="1286.2" height="630" xmlns="http://www.w3.org/2000/svg" xmlns:svg="http://www.w3.org/2000/svg" xmlns:xlink="http://www.w3.org/1999/xlink">
 <style type="text/css">.st0{fill:#D51920;}
	.st1{fill:#ED1C25;}
	.st2{fill:#D4AE4B;}
	.st3{fill:#FFC443;}
	.st4{fill:#EFA444;}
	.st5{fill:#EF9438;}
	.st6{fill:#FFD340;}
	.st7{fill:#FBC14D;}
	.st8{fill:#74A734;}
	.st9{fill:#95BA32;}
	.st10{fill:#D31F26;}
	.st11{fill:#910D10;}
	.st12{fill:#D71920;}
	.st13{fill:#F15B40;}
	.st14{fill:#F69679;}
	.st15{clip-path:url(#SVGID_2_);}</style>
 <g>
  <title>Layer 1</title>
  <g id="svg_1">
   <path fill="#ffffff" id="svg_2" d="m491.8,481.1c10.2,-50.1 16.4,-85.9 18.6,-107.2c9.2,0.8 17.1,1.1 23.7,1.1c-4.7,19.8 -7.8,33.7 -9.3,41.8l14.4,-1.7c1.3,-6.9 2.5,-13.6 3.6,-20.1c1.1,-6.5 2.5,-13.2 4.2,-20.1c3.8,-0.7 7.9,-1.2 12.2,-1.5c4.3,-0.3 7.2,-0.5 8.9,-0.6l2.4,-0.3c-4.7,15.3 -9.2,36.7 -13.7,64.2c-2.2,12.4 -4.2,25.1 -6,38l-22.9,2.6c1.2,-5.8 2.4,-11.3 3.4,-16.4c1,-5.1 2,-10.2 3,-15.3c1,-5.1 1.8,-9.4 2.5,-13l-14.3,1.3c-2.2,12.1 -4.9,26.3 -8.2,42.6l-22.5,4.6z"/>
   <path fill="#ffffff" id="svg_3" d="m562,480.9l19.2,-104.1l46.3,-4c-0.7,2.2 -1.2,4.3 -1.7,6.4c-0.5,2.1 -1,4.1 -1.4,6.1c-0.5,2 -0.9,3.8 -1.1,5.3c-2.9,0.3 -6.8,0.4 -11.7,0.4l-9.9,0l-5.1,26.3c5.2,-0.3 9.6,-0.5 13.2,-0.6c3.5,-0.1 5.8,-0.2 6.9,-0.3c-0.4,2.8 -0.7,5.5 -1.1,8.1c-0.3,2.6 -0.7,5.3 -1.2,8.1c-1.1,0.1 -2.7,0.2 -4.9,0.2c-2.2,0 -4.5,0.1 -6.9,0.2c-2.4,0.1 -5.1,0.2 -8,0.3l-5,27l21.3,-3.4l-1.4,16.7l-47.5,7.3z"/>
   <path fill="#ffffff" id="svg_4" d="m660.3,478.5c-7.3,-24.1 -11.2,-37.9 -11.4,-41.3l-1.9,0.6c-0.8,4.4 -1.9,10.5 -3.4,18.3c-1.5,7.8 -2.7,14.1 -3.6,18.7l-23.7,6.1c9.9,-47.9 16,-82 18.2,-102.1c11.1,-3.4 23.5,-5.1 37.2,-5.1c10.3,0 16.4,3.6 18.3,10.7c0.6,2.2 0.9,4.9 0.9,8.2c0,3.2 -0.7,6.7 -2,10.5c-1.3,3.8 -3.1,7.4 -5.4,10.8c-4.8,7 -10.6,12.3 -17.6,16c3.7,8 7,15.6 9.9,22.7c2.9,7.1 5.4,13.1 7.4,17.9l-22.9,8zm1.4,-84.5l-6.3,0.1l-4.7,23.3c3.8,-0.4 8.6,-2.8 14.4,-7.3c6,-4.6 9,-8.3 9,-11.3c0,-2.8 -2.6,-4.3 -7.9,-4.7c-1.5,-0.1 -3,-0.1 -4.5,-0.1z"/>
   <path fill="#ffffff" id="svg_5" d="m765.7,404.8c0,5.8 -0.8,12.3 -2.5,19.3c-1.7,7.1 -3.9,13.5 -6.8,19.4c-2.9,5.9 -6.2,11.2 -9.9,15.9c-3.8,4.7 -7.7,8.6 -11.8,11.9c-8.5,6.7 -16.6,10 -24.5,10c-6.6,0 -11.8,-2.4 -15.6,-7.2c-4.2,-5.2 -6.3,-12.9 -6.3,-22.9c0,-10.9 2.5,-22.6 7.6,-35.2c5.1,-12.6 11.7,-23.1 19.9,-31.5c8.9,-9 18.2,-13.4 27.9,-13.4c8,0 13.9,3.2 17.6,9.7c2.9,5.4 4.4,13.4 4.4,24zm-20.3,9c0,-7.9 -2.3,-11.9 -6.9,-11.9c-5.8,0 -11.1,2.9 -15.7,8.6c-3.7,4.6 -6.9,10.8 -9.6,18.7c-2.1,6.5 -3.1,12.6 -3.1,18.3c0,3.8 1.6,6.7 4.9,8.6c1,0.7 2,1 3.3,1c4.4,0 8.3,-1.5 11.7,-4.5c3.4,-3 6.2,-6.7 8.5,-11.1c2.3,-4.4 4,-9.1 5.2,-14.1c1.1,-4.9 1.7,-9.5 1.7,-13.6z"/>
   <path fill="#ffffff" id="svg_6" d="m790.1,442c-1.6,9 -3.2,18.7 -4.9,29.3c-8.4,0.5 -15.5,1.6 -21.4,3.3c1.7,-8.3 3.5,-19.1 5.4,-32.5c4.4,-0.2 8,-0.3 10.9,-0.3l6.1,0c1.3,0.1 2.6,0.1 3.9,0.2zm8.2,-45.6c-2.2,9.2 -4.3,20.8 -6.3,34.6c-6.3,0.4 -12.5,0.6 -18.7,0.6l-1.7,0c0.8,-5.4 1.6,-10.8 2.4,-16c0.9,-5.2 1.7,-10.5 2.6,-15.7c6.5,-0.1 13.8,-1.2 21.7,-3.5z"/>
  </g>
  <g id="svg_7">
   <path fill="#ffffff" id="svg_8" d="m573.3,343.5c-7.3,-24.1 -11.2,-37.9 -11.4,-41.3l-1.9,0.6c-0.8,4.4 -1.9,10.5 -3.4,18.3c-1.5,7.8 -2.7,14.1 -3.6,18.7l-23.7,6.1c9.9,-47.9 16,-82 18.2,-102.1c11.1,-3.4 23.5,-5.1 37.2,-5.1c10.3,0 16.4,3.6 18.3,10.7c0.6,2.2 0.9,4.9 0.9,8.2c0,3.2 -0.7,6.7 -2,10.5c-1.3,3.8 -3.1,7.4 -5.4,10.8c-4.8,7 -10.6,12.3 -17.6,16c3.7,8 7,15.6 9.9,22.7c2.9,7.1 5.4,13.1 7.4,17.9l-22.9,8zm1.4,-84.5l-6.3,0.1l-4.7,23.3c3.8,-0.4 8.6,-2.8 14.4,-7.3c6,-4.6 9,-8.3 9,-11.3c0,-2.8 -2.6,-4.3 -7.9,-4.7c-1.4,-0.1 -2.9,-0.1 -4.5,-0.1z"/>
   <path fill="#ffffff" id="svg_9" d="m599.4,345.9l19.2,-104.1l46.3,-4c-0.7,2.2 -1.2,4.3 -1.7,6.4c-0.5,2.1 -1,4.1 -1.4,6.1c-0.5,2 -0.9,3.8 -1.1,5.3c-2.9,0.3 -6.8,0.4 -11.7,0.4l-10,0l-5.1,26.3c5.2,-0.3 9.6,-0.5 13.2,-0.6c3.5,-0.1 5.8,-0.2 6.9,-0.3c-0.4,2.8 -0.7,5.5 -1.1,8.1c-0.3,2.6 -0.7,5.3 -1.2,8.1c-1.1,0.1 -2.7,0.2 -4.9,0.2c-2.2,0 -4.5,0.1 -6.9,0.2c-2.4,0.1 -5.1,0.2 -8,0.3l-5,27l21.3,-3.4l-1.4,16.7l-47.4,7.3z"/>
   <path fill="#ffffff" id="svg_10" d="m704.3,271c0.5,-1.9 0.7,-3.9 0.7,-6c0,-2.1 -0.5,-3.8 -1.6,-5.1c-1.1,-1.3 -2.2,-1.9 -3.4,-1.9c-1.2,0 -2.4,0.3 -3.5,0.9c-1.1,0.6 -2.3,1.3 -3.4,2.3c-2.7,2.2 -4,4.6 -4,7.1c0,2.5 0.7,4.6 2,6.1c1.3,1.6 3,3 4.9,4.4c2,1.3 4.1,2.7 6.4,4.1c2.3,1.4 4.4,3.2 6.4,5.4c4.6,5.3 6.9,12.4 6.9,21.3c0,10.7 -3.9,19.5 -11.7,26.5c-7.4,6.7 -16.8,10 -28.2,10c-8.4,0 -16.1,-4.4 -23,-13.2l10.9,-21.3c1.3,2.7 3.9,5.1 7.7,7.3c3.8,2.3 6.7,3.4 8.6,3.4c1.9,0 3.5,-0.2 4.8,-0.6c1.3,-0.4 2.5,-1 3.5,-1.7c2.4,-1.7 3.6,-3.8 3.6,-6.2c0,-2.4 -0.8,-4.6 -2.3,-6.6c-1.5,-2 -3.4,-3.9 -5.6,-5.7c-2.2,-1.8 -4.7,-3.6 -7.3,-5.5c-2.6,-1.9 -5,-3.8 -7.2,-5.9c-5.3,-4.8 -8,-9.8 -8,-15c0,-5.2 1.5,-10.1 4.5,-14.4c3,-4.4 6.8,-8.2 11.3,-11.4c4.5,-3.2 9.5,-5.7 14.9,-7.6c5.4,-1.9 9.9,-2.8 13.7,-2.8s6.7,0.3 9.1,1c2.3,0.7 4.4,1.7 6.1,3c3.7,3.1 5.6,7.5 5.6,13.4c0,1.4 -0.1,2.8 -0.4,4.1c-0.2,1.3 -0.5,2.8 -0.6,4.4l-21.4,6.2z"/>
   <path fill="#ffffff" id="svg_11" d="m729.2,259.7l0.7,-18.7c5,0.4 10,0.6 15,0.6c13.3,0 26.4,-0.8 39,-2.4l-1.6,7.9c-0.5,2.2 -0.9,4.5 -1.4,6.8c-0.4,2.3 -0.8,4.4 -1.2,6.1c-2.2,0.6 -4.4,1 -6.6,1.2c-2.2,0.2 -4.3,0.5 -6.4,0.9c-1.7,7.3 -3.4,16.4 -5.1,27.3c-3.8,24 -6.5,41.5 -8,52.5l-26.3,4.1c7.7,-36.2 12.9,-64.6 15.6,-85.1c-2.3,-0.3 -4.6,-0.4 -6.9,-0.3c-2.2,0 -4.5,-0.2 -6.8,-0.9z"/>
   <path fill="#ffffff" id="svg_12" d="m796.9,320.7l-5.9,21c-2.2,0.3 -4.7,0.6 -7.7,1c-2.9,0.4 -5.8,0.7 -8.7,1.1c-2.9,0.3 -5.8,0.7 -8.9,1.1c3.9,-13 7.2,-23.9 9.9,-32.9c2.7,-9 4.9,-16.3 6.6,-22.1c1.7,-5.8 3.4,-11.5 5.1,-17.2c1.7,-5.7 3.3,-11.2 4.9,-16.4c1.6,-5.3 3,-10.1 4.2,-14.5c17.6,-1.2 31.1,-2.8 40.3,-4.6c-0.9,9.4 -1.6,20.6 -2.1,33.5c-1.2,25.6 -2.3,49.3 -3.1,70.9c-2.9,0.5 -5.6,0.9 -8.4,1.3c-2.7,0.4 -5.5,0.8 -8.4,1.3c-2.9,0.5 -5.6,0.9 -7.9,1.3c1,-9.2 2,-17.4 2.7,-24.7l-12.6,0l0,-0.1zm3.4,-14.5l10.6,-0.7c0,-0.6 0.1,-1.5 0.2,-2.9c0.1,-1.4 0.3,-3 0.5,-4.8c0.8,-10.2 1.6,-19.7 2.4,-28.5l1,-12.7l-2.3,0.1l-12.4,49.5z"/>
   <path fill="#ffffff" id="svg_13" d="m856.5,241.7c2.1,-0.2 4.6,-0.4 7.4,-0.7c2.8,-0.3 5.6,-0.5 8.3,-0.8c2.7,-0.2 5.6,-0.5 8.5,-0.8c-2.5,11.7 -4.4,21 -5.9,27.9c-1.4,6.9 -2.6,12.3 -3.4,16.4c-0.9,4.1 -1.6,7.9 -2.3,11.3c-1.5,7.2 -2.5,12 -3,14.2c-1.4,6.6 -2.1,10.8 -2.1,12.7c0,1.9 0.4,3.4 1.2,4.4c0.8,1 1.9,1.5 3.3,1.5c1.4,0 2.6,-0.7 3.7,-2c1.1,-1.3 2,-2.9 2.7,-4.7c0.7,-1.8 1.3,-3.7 1.6,-5.6c0.4,-1.9 0.8,-3.8 1.2,-5.8c0.4,-2 1,-4.7 1.7,-8.2c0.7,-3.5 1.4,-7.1 2.1,-10.9c0.7,-3.8 1.5,-7.6 2.2,-11.5c2,-10 4.3,-22.7 7,-38l22.2,-1.4l-0.7,3.7c-1.1,6 -2.4,12.9 -3.8,20.8c-1.4,7.9 -2.6,14.7 -3.8,20.4c-3,14.9 -5.1,25.4 -6.6,31.7c-1.4,6.2 -3.4,11.3 -5.9,15.2c-2.5,3.9 -5.5,7.2 -8.8,9.7c-6.4,4.8 -13.8,7.2 -22.2,7.2c-5.1,0 -9.6,-1.4 -13.3,-4.3c-4.2,-3.4 -6.3,-8 -6.3,-13.6c0,-0.4 0,-0.8 0,-1.1c0,-0.4 0.1,-1.7 0.4,-3.9c0.2,-2.2 0.8,-6.1 1.6,-11.8c0.9,-5.7 1.8,-11.6 2.8,-17.7c1,-6.1 2.1,-12.3 3.2,-18.5c1.1,-6.2 2.2,-11.8 3.1,-16.9c2.3,-10.9 3.6,-17.2 3.9,-18.9z"/>
   <path fill="#ffffff" id="svg_14" d="m949.2,343.5c-7.3,-24.1 -11.2,-37.9 -11.4,-41.3l-1.9,0.6c-0.8,4.4 -1.9,10.5 -3.4,18.3c-1.5,7.8 -2.7,14.1 -3.6,18.7l-23.7,6.1c9.9,-47.9 16,-82 18.2,-102.1c11.1,-3.4 23.5,-5.1 37.2,-5.1c10.3,0 16.4,3.6 18.3,10.7c0.6,2.2 0.9,4.9 0.9,8.2c0,3.2 -0.7,6.7 -2,10.5c-1.3,3.8 -3.1,7.4 -5.4,10.8c-4.8,7 -10.6,12.3 -17.6,16c3.7,8 7,15.6 9.9,22.7c2.9,7.1 5.4,13.1 7.4,17.9l-22.9,8zm1.4,-84.5l-6.3,0.1l-4.7,23.3c3.8,-0.4 8.6,-2.8 14.4,-7.3c6,-4.6 9,-8.3 9,-11.3c0,-2.8 -2.6,-4.3 -7.9,-4.7c-1.4,-0.1 -3,-0.1 -4.5,-0.1z"/>
   <path fill="#ffffff" id="svg_15" d="m1001.3,320.7l-5.9,21c-2.2,0.3 -4.7,0.6 -7.7,1c-2.9,0.4 -5.8,0.7 -8.7,1.1c-2.9,0.3 -5.8,0.7 -8.9,1.1c3.9,-13 7.2,-23.9 9.9,-32.9c2.7,-9 4.9,-16.3 6.6,-22.1c1.7,-5.8 3.4,-11.5 5.1,-17.2c1.7,-5.7 3.3,-11.2 4.9,-16.4c1.6,-5.3 3,-10.1 4.2,-14.5c17.6,-1.2 31.1,-2.8 40.3,-4.6c-0.9,9.4 -1.6,20.6 -2.1,33.5c-1.2,25.6 -2.3,49.3 -3.1,70.9c-2.9,0.5 -5.6,0.9 -8.4,1.3c-2.7,0.4 -5.5,0.8 -8.4,1.3c-2.9,0.5 -5.6,0.9 -7.9,1.3c1,-9.2 2,-17.4 2.7,-24.7l-12.6,0l0,-0.1zm3.4,-14.5l10.6,-0.7c0,-0.6 0.1,-1.5 0.2,-2.9c0.1,-1.4 0.3,-3 0.5,-4.8c0.8,-10.2 1.6,-19.7 2.4,-28.5l1,-12.7l-2.3,0.1l-12.4,49.5z"/>
   <path fill="#ffffff" id="svg_16" d="m1064.5,238.5l4.1,0c1.9,0 7.2,-0.2 16,-0.6c1.3,6.9 2.6,13.3 3.7,19.2c3,17 5.1,27.9 6.3,32.7c0.4,-2 0.8,-4.3 1.3,-6.9c0.5,-2.6 1,-5.3 1.6,-8.1c0.6,-2.8 1.1,-5.7 1.7,-8.7c1,-4.7 2.9,-14.1 5.9,-28.2l17.9,-2.1c-10.4,48.1 -16.9,82.7 -19.4,103.7c-1.1,0 -5.1,0.8 -11.8,2.4c-6.7,1.6 -10.7,2.7 -12.1,3.1c-1.9,-26.1 -4,-44.6 -6.3,-55.5c-0.3,1.8 -0.7,3.9 -1.1,6.4c-0.5,2.4 -1,5 -1.4,7.8c-1.8,10.4 -4.2,22.9 -7.1,37.6l-21.4,5c10.9,-51.8 17.2,-87.8 19,-108.1c1.2,0.3 2.3,0.3 3.1,0.3z"/>
   <path fill="#ffffff" id="svg_17" d="m1124,259.7l0.7,-18.7c5,0.4 10,0.6 15,0.6c13.3,0 26.4,-0.8 39,-2.4l-1.6,7.9c-0.5,2.2 -0.9,4.5 -1.4,6.8c-0.4,2.3 -0.8,4.4 -1.2,6.1c-2.2,0.6 -4.4,1 -6.6,1.2c-2.2,0.2 -4.3,0.5 -6.4,0.9c-1.7,7.3 -3.4,16.4 -5.1,27.3c-3.8,24 -6.5,41.5 -8,52.5l-26.3,4.1c7.7,-36.2 12.9,-64.6 15.6,-85.1c-2.3,-0.3 -4.6,-0.4 -6.9,-0.3c-2.2,0 -4.5,-0.2 -6.8,-0.9z"/>
  </g>
  <path id="svg_18" d="m287.4,220.2c0,0 87.5,-27.9 173.8,-12.9c86.3,14.9 44.7,58.5 26.3,61.2c-18.5,2.7 -200.1,-48.3 -200.1,-48.3z" class="st0"/>
  <path id="svg_19" d="m382.7,229.9c0,0 -79,88.7 -134.5,88.7s-106.3,-42 -106.3,-42l240.8,-46.7z" class="st0"/>
  <path id="svg_20" d="m362.8,282c0,0 -47.8,-39.8 -133.2,30.4s-110.3,127.2 -209.1,-19.4c0,0 44.8,29.2 78.5,-22.6s41.7,-47.9 75.1,-42c0,0 16.7,0 16.7,-28.3s-20.9,-12.6 -20.9,-12.6s9.6,-16.9 44.6,-16.9s57.1,27.1 86.4,38.5c29.2,11.4 52.6,20 116.5,16.1l34.7,14.5l-89.3,42.3z" class="st1"/>
  <g id="svg_21">
   <g id="svg_22">
    <path id="svg_23" d="m315.6,135.1c0.5,6.3 -0.1,13.3 -0.6,20.9c-0.3,4.5 -0.1,7.9 0.3,10.5c1.5,9.2 6.3,8.7 6.3,8.7c-7,19.7 12.6,35.6 15.9,39.4c3.3,3.7 6.6,56.2 6.1,65.6s11.7,42.6 14.5,56.7c2.8,14.1 10.8,23.4 11.7,48.3c0.9,24.8 2.3,40.3 10.8,53.4c8.4,13.1 6.1,23.9 7.5,43.6c0.8,10.7 5.7,14.5 10.1,15.8c-0.7,0.1 -1.4,0.3 -2.1,0.3c0,0 -13.7,5.8 -14.5,-19.3c-0.8,-25.1 -47.1,-233.1 -76.1,-304.9c0,0 -23.1,-30.2 -5.5,-60.8c0,0 0.9,-0.4 2.7,-1c9.1,5.7 12.2,13.5 12.9,22.8" class="st2"/>
    <path id="svg_24" d="m388.1,482c-1.4,-19.7 0.9,-30.5 -7.5,-43.6c-8.4,-13.1 -9.8,-28.6 -10.8,-53.4c-0.9,-24.8 -8.9,-34.2 -11.7,-48.3c-2.8,-14.1 -15,-47.3 -14.5,-56.7s-2.8,-61.8 -6.1,-65.6c-3.3,-3.7 -23,-19.7 -15.9,-39.4c0,0 -4.8,0.5 -6.3,-8.7c16.9,6.5 77.4,25.1 187.1,11c0,0 1.7,1.3 2.4,5.5c-0.5,0.2 -0.8,0.3 -0.8,0.3s-0.4,2.3 -1.1,6.3c-8.3,-1.8 -17.8,-2.3 -27.6,-0.4c-19.7,3.7 -47.8,-6.6 -67.5,-3.7c-19.7,2.8 -59,0 -59,0c8.4,15 15.5,101.2 14.5,116.6c-0.9,15.5 5.6,39.8 5.6,39.8c16.9,31.9 8,67 18.3,88.5c10.3,21.5 13.1,34.2 10.3,53.9c-1,6.8 0,10.8 1.6,13.1c-0.3,0.1 -0.6,0.2 -1,0.3c-4.3,-0.9 -9.3,-4.7 -10,-15.5z" class="st3"/>
    <path id="svg_25" d="m502.4,177.5c-109.7,14.1 -170.2,-4.6 -187.1,-11c-0.4,-2.6 -0.6,-6 -0.3,-10.5c0.5,-7.6 1.1,-14.6 0.6,-20.9c30.4,-2 164.6,-8.8 203.5,18.3c-0.8,12.8 -3.6,24.4 -5.8,25.6c-3.3,1.8 -7,3.3 -8.6,4c-0.7,-4.1 -2.3,-5.5 -2.3,-5.5z" class="st4"/>
    <path id="svg_26" d="m315.6,135.1c-0.7,-9.3 -3.8,-17.1 -13.1,-23c9.2,-3.3 44,-12.8 123.7,-7.2c0,0 76.1,3.5 87.1,16.5c5.4,6.3 6.5,19.7 5.8,32c-38.9,-27.1 -173.1,-20.2 -203.5,-18.3z" class="st5"/>
   </g>
   <g id="svg_27">
    <path id="svg_28" d="m438.6,439.3c0.1,-3 0.2,-5 0.2,-5s-10.5,13.4 -17.5,10.3c-6.9,-3.1 -7.2,-11.7 -21.8,-9.3c0,0 11.7,4.5 12.2,11.5c0,0 10.7,5.4 17.3,14.3c-9.8,20.1 -19.9,33.7 -30,36.5c-1.7,-2.3 -2.6,-6.3 -1.6,-13.1c2.8,-19.7 0,-32.3 -10.3,-53.9c-10.3,-21.5 -1.4,-56.7 -18.3,-88.5c0,0 -6.6,-24.4 -5.6,-39.8c0.9,-15.5 -6.1,-101.7 -14.5,-116.6c0,0 39.4,2.8 59,0c19.7,-2.8 47.8,7.5 67.5,3.7c9.8,-1.9 19.3,-1.4 27.6,0.4c-5.7,30.8 -32.2,169 -64.2,249.5z" class="st6"/>
    <path id="svg_29" d="m411.8,446.7c-0.5,-6.9 -12.2,-11.5 -12.2,-11.5c14.6,-2.4 14.8,6.2 21.8,9.3c6.9,3.1 17.5,-10.3 17.5,-10.3s0,2 -0.2,5c-3.1,7.8 -6.3,15.1 -9.5,21.7c-6.8,-8.8 -17.4,-14.2 -17.4,-14.2z" class="st7"/>
   </g>
   <path id="svg_30" d="m364.4,331.6c0,0 11,-6.7 16.7,2.6c0,0 7.9,-3.8 27,10c0,0 -6.5,-15.3 -16.7,-12.7c0,0 -8.1,-0.6 -10,-2.3s-5.5,-7.6 -17,2.4z" class="st7"/>
   <path id="svg_31" d="m417,302.7c0,0 9.1,-1.7 10.5,3.6s1.7,16.7 15.3,12.4c0,0 1.4,-1.4 6.9,-1c5.5,0.5 12,0.7 15.1,-1.2c3.1,-1.9 7.4,5.5 7.4,5.5s1,-11.7 -11.5,-6.7c0,0 -16.7,1.4 -18.4,0.2c-1.7,-1.2 -8.1,0.2 -8.8,-2.2c-0.7,-2.2 -3.3,-19.7 -16.5,-10.6z" class="st7"/>
   <path id="svg_32" d="m411.5,264.4c0,0 16.7,-8.8 23.4,-7.7c6.7,1.2 8.4,7.9 12,6.5s6.2,-9.3 13.4,-7.7c0,0 -7.4,-2.9 -13.2,2.2c-5.7,5 -9.6,-10 -12.9,-9.3c-3.3,0.7 -15.7,3.6 -22.7,16z" class="st7"/>
   <path id="svg_33" d="m335.5,199.6c0,0 6,2.9 11.5,-1.4c5.5,-4.3 10.5,-3.6 13.9,0c3.3,3.6 12,-6.9 16,-6.7c0,0 -5,2.2 -12.4,1.9c-7.4,-0.2 -15.1,-4.8 -19.6,-1.9c-4.6,2.9 -2.7,8.4 -9.4,8.1z" class="st7"/>
   <path id="svg_34" d="m417,203.2c0,0 11,2.6 12.7,6c1.7,3.3 10,8.6 16.3,6.7c6.2,-1.9 33.7,-2.9 37.8,4.3c0,0 -4.3,-13.2 -33.4,-8.5c0,0 -11.1,4.4 -16.1,-2.8c-5.1,-7.1 -17.3,-5.7 -17.3,-5.7z" class="st7"/>
   <path id="svg_35" d="m375.8,402.1c0,0 11.2,-1.3 14,1.2c2.7,2.6 12.4,4.6 17.6,0.7c5.2,-3.9 30.7,-14.3 37,-9c0,0 -8.6,-10.9 -34.2,3.5c0,0 -8.9,8 -16.1,3c-7.4,-4.9 -18.3,0.6 -18.3,0.6z" class="st7"/>
   <path id="svg_36" d="m398.4,238.3c0,0 -7.3,-1 -8.6,-3.1c-1.3,-2.1 -7,-5 -10.9,-3.4c-3.9,1.6 -21.6,3.9 -24.7,-0.5c0,0 3.6,8.2 22.1,3.5c0,0 6.9,-3.5 10.6,0.8s11.5,2.7 11.5,2.7z" class="st7"/>
   <path id="svg_37" d="m384.5,287.7c0,0 4.6,-6.5 10.1,-2.7c0,0 3.5,-4.1 17.8,-1c0,0 -7.5,-7 -12.6,-3c0,0 -4.7,1.7 -6.3,1.2s-5,-3 -9,5.5z" class="st7"/>
  </g>
  <g id="svg_38">
   <path id="svg_39" d="m423.7,202.5c-3.8,-4.4 -14.5,-4.8 -15.7,7.9c3,1.2 7.8,2.5 10.6,-0.1c2.9,-2.7 1.7,-5.2 5.1,-7.8z" class="st8"/>
   <path id="svg_40" d="m423.7,202.5c-3.8,-4.4 -14.5,-4.8 -15.7,7.9c3.7,0.3 8.5,-8.6 15.7,-7.9z" class="st9"/>
  </g>
  <g id="svg_41">
   <path id="svg_42" d="m370.4,303.5c3.9,0.9 14.7,-4.4 7.9,-15.7c-3.1,0.8 -5.8,1.7 -7.2,5.3c-1.2,3.4 -0.7,7.8 -0.7,10.4z" class="st8"/>
   <path id="svg_43" d="m370.4,303.5c3.9,0.9 14.7,-4.4 7.9,-15.7c-2.8,2.8 -2.3,11 -7.9,15.7z" class="st9"/>
  </g>
  <g id="svg_44">
   <path id="svg_45" d="m397,460.3c-2.8,-8.2 4.9,-22.3 22,-14.2c-0.6,4.7 -2.7,11.9 -8.2,13.6c-5.5,1.6 -7.9,-1.8 -13.8,0.6z" class="st8"/>
   <path id="svg_46" d="m397,460.3c-2.8,-8.2 4.9,-22.3 22,-14.2c-2.3,5 -17.5,4.3 -22,14.2z" class="st9"/>
  </g>
  <g id="svg_47">
   <path id="svg_48" d="m457.3,248.1c2.8,3.8 16.4,7.6 19.2,-7.6c-3.3,-1.8 -6.4,-3 -10.5,-0.9c-3.7,1.9 -6.7,6.2 -8.7,8.5z" class="st8"/>
   <path id="svg_49" d="m457.3,248.1c2.8,3.8 16.4,7.6 19.2,-7.6c-4.7,0.3 -10.6,7.8 -19.2,7.6z" class="st9"/>
  </g>
  <g id="svg_50">
   <path id="svg_51" d="m426.5,358.8c3.2,4 18.3,7.4 20.5,-9.3c-3.7,-1.7 -7.2,-2.9 -11.5,-0.4c-3.9,2.3 -6.9,7.1 -9,9.7z" class="st8"/>
   <path id="svg_52" d="m426.5,358.8c3.2,4 18.3,7.4 20.5,-9.3c-5.1,0.5 -11.2,9.1 -20.5,9.3z" class="st9"/>
  </g>
  <g id="svg_53">
   <ellipse id="svg_54" ry="1.2" rx="2.3" cy="274.2" cx="345.4" class="st10" transform="matrix(0.9956,-0.093628,0.093628,0.9956,-24.154,33.5445) "/>
   <ellipse id="svg_55" ry="0.4" rx="0.7" cy="274.2" cx="345.4" class="st11" transform="matrix(0.9956,-0.093628,0.093628,0.9956,-24.154,33.5445) "/>
   <path id="svg_56" d="m345.4,274.5c0,0 22.1,-35.3 -36.9,-57.6s-106.4,18.3 -106.4,18.3l-50.9,70.4c0.1,-0.1 149.2,-86.7 194.2,-31.1z" class="st1"/>
  </g>
  <path id="svg_57" d="m40.9,308.5c0,0 35.3,54.8 77,54.8s66.7,-48.6 106.7,-69.4c0,0 -92.1,44.6 -120.2,0c0,0.1 -2,46.7 -63.5,14.6z" class="st0"/>
  <path id="svg_58" d="m189.7,236.8c0,0 15.1,-10.2 10.7,-33c0,0 14.3,24.7 28.6,26.2s27,1 28.6,21.3c0,0 -24.6,-18.9 -67.9,-14.5z" class="st0"/>
  <g id="svg_59">
   <ellipse id="svg_60" ry="33.2" rx="33.2" cy="225.3" cx="382.7" class="st12" transform="matrix(0.1605,-0.987,0.987,0.1605,98.9561,566.877) "/>
   <ellipse id="svg_61" ry="31.8" rx="31.8" cy="225.3" cx="382.7" class="st13" transform="matrix(0.08259293,-0.9966,0.9966,0.08259293,126.6246,588.0823) "/>
   <path id="svg_62" d="m402.2,227.6c1.8,1 5.8,-2.4 5.5,-4.1c-0.3,-1.7 -3.6,-2.7 -4.8,-1.6c-1.2,1.2 -2.7,4.6 -0.7,5.7zm-28.1,-12.5c1.7,2.5 4.8,-1.1 4.5,-3.2c-0.3,-2.1 -6.2,0.6 -4.5,3.2zm28.4,15.6c-0.6,-1.7 -3.4,1.2 -3,2.3c0.5,1.1 3.6,-0.6 3,-2.3zm-13.1,-18.6c-0.8,-1.7 -7.2,-0.7 -8,2.3c-0.8,3 3.2,4.2 4.9,3.9c1.7,-0.3 4,-4.3 3.1,-6.2zm20.4,13.5c1.6,0.1 2.8,-7.8 0.5,-7.6c-2.3,0.1 -2.4,7.5 -0.5,7.6zm-14,3.9c1.8,0.2 1.1,-6.2 -0.1,-6.2c-1.2,-0.2 -2.2,5.9 0.1,6.2zm6.2,9.6c0.3,-1.6 -3.7,-2.7 -4.2,-0.8c-0.4,2 3.9,2.4 4.2,0.8zm-7.9,-4.9c0.5,-2.2 -5.4,-1.6 -5.8,0.1c-0.3,1.7 5,3.1 5.8,-0.1zm-11.8,2.2c-1.5,-1.2 -2.8,0.3 -3.5,1.7c-0.6,1.4 0.9,5.5 2.4,5c1.2,-0.4 2.6,-5.5 1.1,-6.7zm14.7,-32.4c1.2,-0.3 2,-4.4 0.9,-4.8c-1.2,-0.4 -3.4,1.3 -3.6,2.5c-0.2,1.1 1.2,2.8 2.7,2.3zm-3.3,1.7c0,-1.7 -7.6,-0.2 -7.4,2c0.2,2 7.3,-0.2 7.4,-2zm-29,10.6c1,1.1 3.7,-3.7 3.1,-4.8c-0.5,-1 -4.1,3.7 -3.1,4.8zm38.3,-10.1c0.7,-1 -0.9,-3.2 -2.5,-1.8c-1.6,1.4 1.8,2.8 2.5,1.8zm-11.7,-7.2c0.1,-1.2 -4.7,-3.2 -5,-1.5c-0.5,1.7 4.8,2.7 5,1.5zm-6,32.2c1.4,1.1 5.4,-3.6 4.2,-4.8c-1.4,-1.2 -5.7,3.7 -4.2,4.8zm-1.8,-31.1c-2.5,0.8 -4.5,4.8 -2.5,6.3c2,1.5 3.1,-0.3 3.8,-2.8c0.3,-1.2 1.2,-4.3 -1.3,-3.5zm19.7,17c1.3,-1.4 -1.1,-3.5 -2.3,-2.2c-1.3,1.2 0.4,4.2 2.3,2.2zm-6.9,4.1c1.3,-0.7 0.9,-4.1 -0.6,-4.6c-1.6,-0.5 -4,0.7 -4,2.4c-0.1,1.7 3.5,2.8 4.6,2.2zm-20.8,1c1.6,-0.9 -0.7,-4.4 -2.3,-3.6c-1.5,0.7 0.7,4.5 2.3,3.6zm10.9,-0.8c0,-1.9 -7.8,1.2 -6.7,3.6c1.2,2.4 6.8,-0.6 6.7,-3.6zm6,-8.1c0.1,1 3.7,-1.2 2.7,-2.3c-1.1,-1.1 -2.9,0.7 -2.7,2.3zm-37.5,9.6c1.4,0.5 3.3,-3.7 2.8,-4.7c-0.5,-1 -4.5,4.1 -2.8,4.7zm5.7,-14.2c-1.3,-1.2 -5.7,3.7 -4.2,4.8c1.5,1.2 5.5,-3.6 4.2,-4.8zm-4,19c0.1,3 3.3,0.9 4.5,-0.1c1.2,-1.1 2.9,-1 2.6,-2.9c-0.2,-1.6 -7.1,0 -7.1,3zm13.9,3.2c1.2,-0.1 1.7,-6 -0.1,-6.5c-1.8,-0.4 -2.8,1.1 -3.4,2.5c-0.7,1.5 2.2,4.1 3.5,4zm27.8,-21c-1.5,1.1 0.6,3.4 2.1,2.5c1.5,-1 -0.6,-3.6 -2.1,-2.5zm-22.8,22.7c2.4,1.4 3.6,-3.9 2.4,-4.6c-1.1,-0.9 -4.9,3.2 -2.4,4.6zm-4.7,-32.6c-3,3.3 -1.9,5.1 -1.1,5.2c1.5,0.2 1.6,-3.2 6.8,-5.9c2.4,-1.2 5,-1.8 5,-2.6c0,-1.5 -7.7,0 -10.7,3.3zm-0.1,8.9c0,1.7 6.1,-1.2 6.2,-2.4c0,-1.3 -6.3,0.7 -6.2,2.4zm-7.3,-5.1c-1.6,1.4 1.9,2.8 2.5,1.8c0.6,-1.1 -0.9,-3.3 -2.5,-1.8zm42.5,5.3c-1.4,1.1 1.6,7.1 4.3,5.3c1.6,-1.1 -2.9,-6.4 -4.3,-5.3zm-12.6,33.4c0.8,-1 -5.4,-3.2 -6.4,-1.8c-0.9,1.4 5.6,2.8 6.4,1.8zm-26.3,7.1c0,1.6 8.9,3 8.9,0.3c0,-2 -8.8,-1.9 -8.9,-0.3zm11.2,1.9c0,1.8 4.8,3.1 5.5,1.2c0.5,-1.4 -5.6,-3 -5.5,-1.2zm18.2,-0.9c1.9,0.4 5.6,-1.9 6,-3.7c0.5,-1.8 -4.5,-4.1 -6.2,-3.5c-1.5,0.6 -2.2,6.7 0.2,7.2zm-4.1,2.1c0.3,-1.2 -4.9,-3.2 -5.2,-0.8c-0.3,2.4 4.8,2.5 5.2,0.8zm14,-12.3c2.3,0.1 5.6,-8.3 2.7,-9.5c-1.8,-0.8 -5,9.4 -2.7,9.5zm-45.7,2.6c0.5,2.1 8.3,1.8 9.1,-0.2c0.4,-1.2 -9.5,-1.9 -9.1,0.2zm-5.5,-9.8c-1.2,0 -1.7,2.8 -1,3.9c0.7,1.2 2.6,1.5 3.7,0.9c1.2,-0.8 -1.5,-4.8 -2.7,-4.8zm19.1,4.4c0,-1.2 -4.6,-0.7 -4.2,0.4c0.3,1.1 4.2,1 4.2,-0.4zm5.1,9.6c0.3,1.7 6.1,1.5 6.6,-0.8c0.3,-1.2 -6.8,-0.9 -6.6,0.8zm-17.6,-15.1c-1.2,0.6 -2,3.1 -0.7,3.8c1.3,0.8 4.1,-0.6 4,-2c-0.1,-1.2 -2.1,-2.3 -3.3,-1.8z" class="st14"/>
  </g>
  <g id="svg_63">
   <ellipse id="svg_64" ry="24.6" rx="24.6" cy="288.1" cx="451.5" class="st12" transform="matrix(0.1605,-0.987,0.987,0.1605,94.7108,687.4562) "/>
   <ellipse id="svg_65" ry="23.5" rx="23.5" cy="288.1" cx="451.5" class="st13" transform="matrix(0.08259293,-0.9966,0.9966,0.08259293,127.1372,714.2098) "/>
   <path id="svg_66" d="m466,289.8c1.3,0.7 4.3,-1.8 4.1,-3c-0.2,-1.3 -2.6,-2 -3.6,-1.2c-1,0.8 -2,3.4 -0.5,4.2zm-20.9,-9.3c1.3,1.9 3.5,-0.8 3.3,-2.4c-0.2,-1.5 -4.6,0.5 -3.3,2.4zm21.1,11.6c-0.4,-1.2 -2.5,0.9 -2.2,1.7c0.3,0.8 2.6,-0.5 2.2,-1.7zm-9.8,-13.8c-0.6,-1.3 -5.3,-0.5 -5.9,1.7c-0.6,2.2 2.4,3.1 3.6,2.9c1.3,-0.3 3,-3.2 2.3,-4.6zm15.2,10c1.2,0.1 2.1,-5.8 0.4,-5.7c-1.8,0.2 -1.9,5.7 -0.4,5.7zm-10.4,2.9c1.3,0.1 0.8,-4.6 -0.1,-4.6c-0.9,-0.1 -1.7,4.4 0.1,4.6zm4.6,7.1c0.2,-1.2 -2.8,-2 -3.1,-0.6c-0.4,1.5 2.8,1.8 3.1,0.6zm-5.9,-3.6c0.4,-1.6 -4,-1.2 -4.3,0.1s3.7,2.3 4.3,-0.1zm-8.7,1.6c-1.1,-0.9 -2.1,0.3 -2.6,1.3c-0.5,1 0.7,4.1 1.8,3.7c0.9,-0.3 1.9,-4.1 0.8,-5zm10.9,-24c0.9,-0.3 1.5,-3.3 0.6,-3.6c-0.9,-0.3 -2.5,1 -2.6,1.8c-0.2,0.9 0.8,2.1 2,1.8zm-2.5,1.3c0,-1.3 -5.7,-0.1 -5.5,1.5c0.2,1.4 5.5,-0.2 5.5,-1.5zm-21.5,7.8c0.8,0.8 2.8,-2.8 2.3,-3.6c-0.4,-0.7 -3,2.8 -2.3,3.6zm28.4,-7.5c0.5,-0.7 -0.7,-2.4 -1.9,-1.3c-1.2,1 1.4,2 1.9,1.3zm-8.7,-5.3c0.1,-0.9 -3.5,-2.4 -3.7,-1.1c-0.3,1.2 3.6,2 3.7,1.1zm-4.4,23.9c1.1,0.8 4,-2.7 3.1,-3.6c-1,-0.9 -4.2,2.7 -3.1,3.6zm-1.4,-23.1c-1.9,0.6 -3.3,3.6 -1.8,4.7c1.5,1.1 2.3,-0.2 2.8,-2.1c0.2,-0.9 0.9,-3.2 -1,-2.6zm14.7,12.6c1,-1 -0.8,-2.6 -1.7,-1.6s0.2,3.1 1.7,1.6zm-5.2,3.1c1,-0.5 0.7,-3 -0.5,-3.4c-1.2,-0.4 -3,0.5 -3,1.8c0.1,1.2 2.7,2 3.5,1.6zm-15.4,0.7c1.2,-0.7 -0.5,-3.3 -1.7,-2.7s0.6,3.4 1.7,2.7zm8.1,-0.6c0,-1.4 -5.8,0.9 -5,2.7c0.9,1.7 5.1,-0.5 5,-2.7zm4.4,-6c0.1,0.8 2.7,-0.9 2,-1.7c-0.7,-0.9 -2.1,0.5 -2,1.7zm-27.8,7.1c1,0.4 2.5,-2.8 2.1,-3.5c-0.3,-0.7 -3.3,3 -2.1,3.5zm4.3,-10.5c-1,-0.9 -4.2,2.7 -3.1,3.6c1.1,0.8 4.1,-2.7 3.1,-3.6zm-3,14c0,2.2 2.5,0.7 3.4,-0.1c0.9,-0.8 2.2,-0.8 1.9,-2.1c-0.1,-1.1 -5.3,0 -5.3,2.2zm10.3,2.4c0.9,-0.1 1.2,-4.5 -0.1,-4.8c-1.3,-0.3 -2,0.8 -2.5,1.9c-0.5,1.1 1.6,3 2.6,2.9zm20.7,-15.6c-1.1,0.8 0.5,2.5 1.5,1.8c1.1,-0.6 -0.5,-2.6 -1.5,-1.8zm-16.9,16.9c1.8,1 2.7,-2.9 1.8,-3.4c-0.9,-0.7 -3.7,2.3 -1.8,3.4zm-3.5,-24.2c-2.3,2.4 -1.4,3.8 -0.8,3.9c1.1,0.2 1.2,-2.4 5.1,-4.4c1.8,-0.9 3.7,-1.3 3.7,-2c-0.1,-1 -5.8,0.1 -8,2.5zm-0.1,6.6c0,1.2 4.5,-0.9 4.6,-1.8c0,-0.9 -4.7,0.6 -4.6,1.8zm-5.5,-3.8c-1.2,1.1 1.4,2.1 1.9,1.3c0.5,-0.7 -0.7,-2.4 -1.9,-1.3zm31.5,3.9c-1.1,0.8 1.2,5.3 3.2,3.9c1.3,-0.7 -2.1,-4.6 -3.2,-3.9zm-9.3,24.8c0.6,-0.7 -4,-2.3 -4.7,-1.3c-0.7,1 4.2,2 4.7,1.3zm-19.5,5.3c0,1.2 6.6,2.2 6.6,0.2c0,-1.5 -6.5,-1.4 -6.6,-0.2zm8.3,1.4c0,1.3 3.5,2.3 4.1,0.9c0.4,-1.1 -4.1,-2.2 -4.1,-0.9zm13.5,-0.7c1.4,0.3 4.1,-1.4 4.5,-2.7c0.3,-1.3 -3.4,-3 -4.6,-2.6c-1.2,0.4 -1.6,5 0.1,5.3zm-3,1.6c0.2,-0.9 -3.6,-2.4 -3.8,-0.6c-0.3,1.8 3.5,1.8 3.8,0.6zm10.4,-9.1c1.7,0.1 4.1,-6.1 2,-7c-1.4,-0.6 -3.7,6.9 -2,7zm-33.9,1.9c0.3,1.6 6.1,1.4 6.7,-0.1c0.4,-0.9 -7,-1.5 -6.7,0.1zm-4.1,-7.3c-0.9,0 -1.3,2 -0.8,2.9c0.5,0.9 2,1.1 2.7,0.6c1,-0.5 -1,-3.5 -1.9,-3.5zm14.2,3.3c0,-0.9 -3.4,-0.5 -3.1,0.3c0.2,0.8 3.1,0.7 3.1,-0.3zm3.8,7.1c0.2,1.3 4.5,1.1 4.9,-0.6c0.2,-0.9 -5.1,-0.7 -4.9,0.6zm-13.1,-11.2c-0.9,0.4 -1.5,2.3 -0.5,2.8c1,0.6 3,-0.5 2.9,-1.5c0,-0.9 -1.5,-1.7 -2.4,-1.3z" class="st14"/>
  </g>
  <g id="svg_67">
   <defs>
    <path d="m438.6,439.3c0.1,-3 0.2,-5 0.2,-5s-10.5,13.4 -17.5,10.3c-6.9,-3.1 -7.2,-11.7 -21.8,-9.3c0,0 11.7,4.5 12.2,11.5c0,0 10.7,5.4 17.3,14.3c-9.8,20.1 -19.9,33.7 -30,36.5c-1.7,-2.3 -2.6,-6.3 -1.6,-13.1c2.8,-19.7 0,-32.3 -10.3,-53.9c-10.3,-21.5 -1.4,-56.7 -18.3,-88.5c0,0 -6.6,-24.4 -5.6,-39.8c0.9,-15.5 -6.1,-101.7 -14.5,-116.6c0,0 39.4,2.8 59,0c19.7,-2.8 47.8,7.5 67.5,3.7c9.8,-1.9 19.3,-1.4 27.6,0.4c-5.7,30.8 -32.2,169 -64.2,249.5z" id="SVGID_1_"/>
   </defs>
   <clipPath id="SVGID_2_">
    <use id="svg_68" xlink:href="#SVGID_1_"/>
   </clipPath>
   <g id="svg_69" class="st15">
    <ellipse id="svg_70" ry="35.2" rx="35.2" cy="393.8" cx="444.8" class="st12" transform="matrix(0.1605,-0.987,0.987,0.1605,-15.2843,769.6754) "/>
    <ellipse id="svg_71" ry="33.7" rx="33.7" cy="393.8" cx="444.8" class="st13" transform="matrix(0.08259295,-0.9966,0.9966,0.08259295,15.613,804.6064) "/>
    <path id="svg_72" d="m465.5,396.3c1.9,1 6.1,-2.5 5.8,-4.3c-0.3,-1.8 -3.8,-2.9 -5.1,-1.7c-1.3,1.2 -2.8,4.8 -0.7,6zm-29.8,-13.3c1.8,2.7 5.1,-1.2 4.7,-3.4c-0.3,-2.2 -6.5,0.7 -4.7,3.4zm30.2,16.6c-0.6,-1.8 -3.6,1.3 -3.2,2.4c0.4,1.2 3.7,-0.6 3.2,-2.4zm-14,-19.7c-0.9,-1.8 -7.6,-0.8 -8.5,2.4c-0.8,3.2 3.4,4.4 5.2,4.1c1.8,-0.3 4.2,-4.6 3.3,-6.5zm21.7,14.3c1.7,0.1 2.9,-8.3 0.5,-8.1c-2.4,0.2 -2.6,8 -0.5,8.1zm-14.9,4.1c1.9,0.2 1.2,-6.5 -0.1,-6.6c-1.3,-0.1 -2.4,6.3 0.1,6.6zm6.6,10.3c0.3,-1.7 -4,-2.9 -4.4,-0.8c-0.6,2 4,2.4 4.4,0.8zm-8.4,-5.3c0.6,-2.3 -5.7,-1.7 -6.1,0.1c-0.4,1.8 5.3,3.3 6.1,-0.1zm-12.5,2.3c-1.6,-1.3 -3,0.4 -3.7,1.8c-0.7,1.5 1,5.8 2.6,5.3c1.2,-0.4 2.7,-5.8 1.1,-7.1zm15.6,-34.3c1.2,-0.4 2.2,-4.7 0.9,-5.1c-1.3,-0.5 -3.6,1.4 -3.8,2.6c-0.2,1.2 1.2,2.9 2.9,2.5zm-3.6,1.8c0,-1.8 -8.1,-0.2 -7.9,2.1c0.3,2.1 7.9,-0.3 7.9,-2.1zm-30.7,11.2c1.1,1.2 4,-4 3.3,-5.1c-0.6,-1.1 -4.4,4 -3.3,5.1zm40.6,-10.7c0.7,-1.1 -1,-3.4 -2.7,-1.9c-1.7,1.5 2,2.9 2.7,1.9zm-12.4,-7.7c0.2,-1.3 -4.9,-3.4 -5.3,-1.6c-0.5,1.9 5.1,2.9 5.3,1.6zm-6.4,34.3c1.5,1.2 5.8,-3.9 4.4,-5.1c-1.3,-1.3 -5.9,3.9 -4.4,5.1zm-1.9,-33.1c-2.7,0.8 -4.7,5.1 -2.6,6.7c2.1,1.6 3.3,-0.3 4,-2.9c0.3,-1.4 1.3,-4.6 -1.4,-3.8zm20.9,18c1.4,-1.5 -1.2,-3.7 -2.5,-2.4s0.5,4.5 2.5,2.4zm-7.3,4.4c1.4,-0.8 1,-4.4 -0.7,-4.9c-1.7,-0.5 -4.3,0.7 -4.3,2.5c0.1,1.9 3.8,3.1 5,2.4zm-22,1.1c1.7,-1 -0.8,-4.7 -2.4,-3.9s0.7,4.9 2.4,3.9zm11.6,-0.9c0,-2 -8.3,1.3 -7.1,3.8c1.2,2.6 7.1,-0.6 7.1,-3.8zm6.3,-8.6c0.1,1.1 3.9,-1.3 2.8,-2.4c-1.1,-1.2 -3,0.7 -2.8,2.4zm-39.9,10.2c1.5,0.6 3.5,-4 3,-5c-0.5,-1 -4.7,4.3 -3,5zm6.2,-15c-1.4,-1.3 -6,3.9 -4.4,5.1c1.5,1.2 5.7,-3.9 4.4,-5.1zm-4.3,20.1c0.1,3.2 3.5,1 4.8,-0.1c1.3,-1.1 3.1,-1.1 2.8,-3.1c-0.2,-1.6 -7.6,0 -7.6,3.2zm14.7,3.4c1.3,-0.1 1.8,-6.4 -0.1,-6.9c-1.9,-0.5 -2.9,1.2 -3.6,2.7c-0.8,1.5 2.3,4.3 3.7,4.2zm29.6,-22.3c-1.6,1.1 0.7,3.6 2.2,2.6c1.5,-0.9 -0.7,-3.7 -2.2,-2.6zm-24.2,24.1c2.6,1.5 3.8,-4.1 2.6,-4.9c-1.2,-0.9 -5.3,3.4 -2.6,4.9zm-5,-34.6c-3.2,3.5 -2,5.5 -1.2,5.6c1.6,0.2 1.7,-3.4 7.2,-6.3c2.5,-1.3 5.3,-1.9 5.3,-2.8c0,-1.6 -8.1,0 -11.3,3.5zm-0.2,9.5c0,1.8 6.5,-1.2 6.5,-2.6c0.1,-1.3 -6.5,0.8 -6.5,2.6zm-7.7,-5.5c-1.7,1.5 2,3 2.7,1.9c0.7,-1.1 -1,-3.4 -2.7,-1.9zm45.1,5.6c-1.5,1.1 1.7,7.6 4.6,5.6c1.7,-1.1 -3.1,-6.7 -4.6,-5.6zm-13.3,35.5c0.8,-1 -5.7,-3.4 -6.8,-1.9c-1,1.5 5.9,2.9 6.8,1.9zm-27.9,7.5c0,1.7 9.5,3.2 9.4,0.3c0,-2.1 -9.4,-2 -9.4,-0.3zm11.8,2.1c0,1.9 5.1,3.3 5.8,1.2c0.6,-1.5 -5.8,-3.1 -5.8,-1.2zm19.4,-1c2,0.4 5.9,-2.1 6.4,-3.9c0.5,-1.9 -4.8,-4.3 -6.5,-3.7c-1.8,0.6 -2.5,7.1 0.1,7.6zm-4.4,2.3c0.3,-1.3 -5.2,-3.4 -5.5,-0.8c-0.3,2.5 5,2.5 5.5,0.8zm14.9,-13.1c2.4,0.1 5.9,-8.8 2.9,-10.1c-2,-0.8 -5.4,9.9 -2.9,10.1zm-48.5,2.7c0.5,2.2 8.8,1.9 9.6,-0.2c0.5,-1.2 -10.1,-2 -9.6,0.2zm-5.9,-10.3c-1.3,0 -1.8,2.9 -1.1,4.2c0.7,1.2 2.8,1.6 3.9,0.9c1.4,-0.9 -1.5,-5.2 -2.8,-5.1zm20.3,4.6c0,-1.3 -4.9,-0.7 -4.5,0.4c0.4,1.2 4.5,1.1 4.5,-0.4zm5.4,10.2c0.3,1.8 6.5,1.6 7,-0.9c0.3,-1.2 -7.3,-1 -7,0.9zm-18.7,-16c-1.3,0.6 -2.1,3.3 -0.7,4.1c1.4,0.8 4.3,-0.7 4.2,-2.1c-0.1,-1.4 -2.2,-2.6 -3.5,-2z" class="st14"/>
    <g id="svg_73">
     <ellipse id="svg_74" ry="24.6" rx="24.6" cy="329.8" cx="365" class="st12" transform="matrix(0.1605,-0.987,0.987,0.1605,-19.1336,637.1437) "/>
     <ellipse id="svg_75" ry="23.5" rx="23.5" cy="329.8" cx="365" class="st13" transform="matrix(0.08259295,-0.9966,0.9966,0.08259295,6.1546,666.3257) "/>
     <path id="svg_76" d="m379.5,331.6c1.3,0.7 4.3,-1.8 4.1,-3c-0.2,-1.3 -2.6,-2 -3.6,-1.2c-1,0.8 -2,3.3 -0.5,4.2zm-20.9,-9.3c1.3,1.9 3.5,-0.8 3.3,-2.4c-0.2,-1.6 -4.6,0.5 -3.3,2.4zm21.1,11.6c-0.4,-1.2 -2.5,0.9 -2.2,1.7c0.3,0.8 2.6,-0.5 2.2,-1.7zm-9.8,-13.8c-0.6,-1.3 -5.3,-0.5 -5.9,1.7c-0.6,2.2 2.4,3.1 3.6,2.9c1.3,-0.3 3,-3.3 2.3,-4.6zm15.2,10c1.2,0.1 2.1,-5.8 0.4,-5.7c-1.8,0.1 -1.9,5.6 -0.4,5.7zm-10.4,2.8c1.3,0.1 0.8,-4.6 -0.1,-4.6c-0.9,-0.1 -1.7,4.4 0.1,4.6zm4.6,7.2c0.2,-1.2 -2.8,-2 -3.1,-0.6c-0.4,1.5 2.8,1.8 3.1,0.6zm-5.9,-3.7c0.4,-1.6 -4,-1.2 -4.3,0.1c-0.2,1.3 3.7,2.3 4.3,-0.1zm-8.7,1.7c-1.1,-0.9 -2.1,0.3 -2.6,1.3c-0.5,1 0.7,4.1 1.8,3.7c0.9,-0.4 1.9,-4.1 0.8,-5zm10.9,-24c0.9,-0.3 1.5,-3.3 0.6,-3.6c-0.9,-0.3 -2.5,1 -2.6,1.8c-0.2,0.9 0.8,2.1 2,1.8zm-2.5,1.3c0,-1.3 -5.7,-0.1 -5.5,1.5c0.2,1.4 5.5,-0.3 5.5,-1.5zm-21.5,7.8c0.8,0.8 2.8,-2.8 2.3,-3.6c-0.4,-0.8 -3,2.8 -2.3,3.6zm28.4,-7.5c0.5,-0.7 -0.7,-2.4 -1.9,-1.3c-1.2,1 1.4,2 1.9,1.3zm-8.7,-5.4c0.1,-0.9 -3.5,-2.4 -3.7,-1.1c-0.3,1.3 3.6,2 3.7,1.1zm-4.4,23.9c1.1,0.8 4,-2.7 3.1,-3.6c-1,-0.8 -4.2,2.8 -3.1,3.6zm-1.4,-23.1c-1.9,0.6 -3.3,3.6 -1.8,4.7c1.5,1.1 2.3,-0.2 2.8,-2.1c0.2,-0.8 0.9,-3.1 -1,-2.6zm14.7,12.6c1,-1 -0.8,-2.6 -1.7,-1.6s0.2,3.1 1.7,1.6zm-5.2,3.1c1,-0.5 0.7,-3 -0.5,-3.4c-1.2,-0.4 -3,0.5 -3,1.8c0.1,1.2 2.7,2.1 3.5,1.6zm-15.4,0.8c1.2,-0.7 -0.5,-3.3 -1.7,-2.7s0.6,3.3 1.7,2.7zm8.1,-0.6c0,-1.4 -5.8,0.9 -5,2.7c0.9,1.7 5.1,-0.5 5,-2.7zm4.4,-6.1c0.1,0.8 2.7,-0.9 2,-1.7c-0.7,-0.8 -2.1,0.6 -2,1.7zm-27.8,7.2c1,0.4 2.5,-2.8 2.1,-3.5c-0.3,-0.8 -3.3,3 -2.1,3.5zm4.3,-10.6c-1,-0.9 -4.2,2.7 -3.1,3.6c1.1,0.9 4.1,-2.7 3.1,-3.6zm-3,14.1c0,2.2 2.5,0.7 3.4,-0.1c0.9,-0.8 2.2,-0.8 1.9,-2.1c-0.1,-1.2 -5.3,0 -5.3,2.2zm10.3,2.4c0.9,-0.1 1.2,-4.5 -0.1,-4.8c-1.3,-0.3 -2,0.8 -2.5,1.9c-0.5,1 1.6,3 2.6,2.9zm20.7,-15.6c-1.1,0.8 0.5,2.5 1.5,1.8c1.1,-0.6 -0.5,-2.6 -1.5,-1.8zm-16.9,16.8c1.8,1 2.7,-2.9 1.8,-3.4c-0.9,-0.6 -3.7,2.4 -1.8,3.4zm-3.5,-24.1c-2.3,2.4 -1.4,3.8 -0.8,3.9c1.1,0.2 1.2,-2.4 5.1,-4.4c1.8,-0.9 3.7,-1.3 3.7,-2c-0.1,-1.1 -5.8,0.1 -8,2.5zm-0.1,6.6c0,1.2 4.5,-0.9 4.6,-1.8c0,-0.9 -4.7,0.6 -4.6,1.8zm-5.5,-3.8c-1.2,1.1 1.4,2.1 1.9,1.3c0.5,-0.7 -0.7,-2.4 -1.9,-1.3zm31.5,3.9c-1.1,0.8 1.2,5.3 3.2,3.9c1.3,-0.7 -2.1,-4.7 -3.2,-3.9zm-9.3,24.8c0.6,-0.7 -4,-2.3 -4.7,-1.3c-0.7,1 4.2,2 4.7,1.3zm-19.5,5.3c0,1.2 6.6,2.2 6.6,0.2c0,-1.5 -6.5,-1.4 -6.6,-0.2zm8.3,1.4c0,1.3 3.5,2.3 4.1,0.9c0.4,-1.1 -4.1,-2.2 -4.1,-0.9zm13.5,-0.7c1.4,0.3 4.1,-1.4 4.5,-2.7c0.3,-1.3 -3.4,-3 -4.6,-2.6c-1.2,0.4 -1.6,4.9 0.1,5.3zm-3,1.6c0.2,-0.9 -3.6,-2.4 -3.8,-0.6c-0.3,1.8 3.5,1.8 3.8,0.6zm10.4,-9.2c1.7,0.1 4.1,-6.1 2,-7c-1.4,-0.6 -3.7,6.9 -2,7zm-33.9,1.9c0.3,1.6 6.1,1.4 6.7,-0.1c0.4,-0.9 -7,-1.4 -6.7,0.1zm-4.1,-7.2c-0.9,0 -1.3,2 -0.8,2.9c0.5,0.9 2,1.1 2.7,0.6c1,-0.5 -1,-3.5 -1.9,-3.5zm14.2,3.3c0,-0.9 -3.4,-0.5 -3.1,0.3c0.2,0.8 3.1,0.7 3.1,-0.3zm3.8,7.1c0.2,1.3 4.5,1.1 4.9,-0.6c0.2,-0.9 -5.1,-0.7 -4.9,0.6zm-13.1,-11.2c-0.9,0.4 -1.5,2.3 -0.5,2.8c1,0.6 3,-0.5 2.9,-1.5c0,-0.9 -1.5,-1.7 -2.4,-1.3z" class="st14"/>
    </g>
   </g>
  </g>
  <path fill="#ffffff" id="svg_77" d="m893.2,407.1c0.5,-1.9 0.7,-3.9 0.7,-6c0,-2.1 -0.5,-3.8 -1.6,-5.1c-1.1,-1.3 -2.2,-1.9 -3.4,-1.9c-1.2,0 -2.4,0.3 -3.5,0.9c-1.1,0.6 -2.3,1.3 -3.4,2.3c-2.7,2.2 -4,4.6 -4,7.1c0,2.5 0.7,4.6 2,6.2c1.3,1.6 3,3 4.9,4.4c2,1.3 4.1,2.7 6.4,4.2c2.3,1.4 4.4,3.3 6.5,5.5c4.6,5.4 6.9,12.5 6.9,21.4c0,10.7 -3.9,19.6 -11.8,26.5c-7.5,6.7 -16.9,10 -28.3,10c-8.4,0 -16.1,-4.4 -23.1,-13.2l10.9,-21.4c1.3,2.7 3.9,5.1 7.7,7.3c3.8,2.3 6.7,3.4 8.6,3.4c1.9,0 3.5,-0.2 4.8,-0.6c1.3,-0.4 2.5,-1 3.5,-1.7c2.4,-1.7 3.6,-3.8 3.6,-6.2c0,-2.4 -0.8,-4.7 -2.3,-6.7c-1.5,-2 -3.4,-3.9 -5.7,-5.7c-2.2,-1.8 -4.7,-3.7 -7.3,-5.5c-2.6,-1.9 -5,-3.8 -7.2,-6c-5.4,-4.8 -8,-9.8 -8,-15.1c0,-5.3 1.5,-10.1 4.5,-14.5c3,-4.4 6.8,-8.2 11.3,-11.4c4.5,-3.2 9.5,-5.7 14.9,-7.6c5.4,-1.9 10,-2.8 13.7,-2.8c3.7,0 6.8,0.3 9.1,1c2.3,0.7 4.4,1.7 6.1,3c3.7,3.1 5.6,7.6 5.6,13.5c0,1.4 -0.1,2.8 -0.4,4.2c-0.2,1.3 -0.5,2.8 -0.6,4.4l-21.1,6.1z"/>
  <path fill="#ffffff" id="svg_78" d="m903.9,482.3l19.2,-104.4l46.5,-4c-0.7,2.2 -1.2,4.3 -1.7,6.4c-0.5,2.1 -1,4.1 -1.4,6.1c-0.5,2 -0.9,3.8 -1.1,5.3c-2.9,0.3 -6.8,0.4 -11.8,0.4l-9.9,0l-5.2,26.4c5.3,-0.3 9.7,-0.5 13.2,-0.6c3.5,-0.1 5.8,-0.2 6.9,-0.3c-0.4,2.8 -0.7,5.5 -1.1,8.1c-0.3,2.6 -0.7,5.3 -1.2,8.1c-1.1,0.1 -2.7,0.2 -4.9,0.2c-2.2,0 -4.5,0.1 -6.9,0.2c-2.4,0.1 -5.1,0.2 -8,0.3l-5,27.1l21.4,-3.4l-1.4,16.8l-47.6,7.3z"/>
  <path fill="#ffffff" id="svg_79" d="m980.7,457l-5.9,21.1c-2.2,0.3 -4.8,0.6 -7.7,1c-2.9,0.4 -5.8,0.7 -8.7,1.1c-2.9,0.3 -5.8,0.7 -8.9,1.1c3.9,-13 7.2,-24 10,-33c2.7,-9 4.9,-16.4 6.7,-22.2c1.7,-5.8 3.4,-11.5 5.1,-17.2c1.7,-5.7 3.3,-11.2 4.9,-16.5c1.6,-5.3 3,-10.2 4.2,-14.6c17.7,-1.2 31.2,-2.8 40.4,-4.6c-0.9,9.5 -1.6,20.7 -2.2,33.6c-1.2,25.7 -2.3,49.4 -3.2,71.1c-2.9,0.5 -5.7,0.9 -8.4,1.3c-2.7,0.4 -5.5,0.8 -8.5,1.3c-2.9,0.5 -5.6,0.9 -8,1.3c1.1,-9.2 2,-17.4 2.7,-24.8l-12.5,0zm3.5,-14.6l10.6,-0.7c0,-0.6 0.1,-1.6 0.2,-2.9c0.1,-1.4 0.3,-3 0.5,-4.8c0.8,-10.2 1.6,-19.7 2.4,-28.5l1,-12.8l-2.3,0.1l-12.4,49.6z"/>
  <path fill="#ffffff" id="svg_80" d="m1025.9,395.8l0.7,-18.8c5,0.4 10,0.6 15.1,0.6c13.4,0 26.4,-0.8 39.2,-2.4l-1.6,7.9c-0.5,2.2 -0.9,4.5 -1.4,6.8c-0.4,2.3 -0.8,4.4 -1.2,6.1c-2.2,0.6 -4.4,1 -6.6,1.2c-2.2,0.2 -4.4,0.6 -6.5,0.9c-1.7,7.4 -3.4,16.5 -5.2,27.4c-3.8,24.1 -6.5,41.6 -8,52.6l-26.4,4.2c7.7,-36.3 13,-64.8 15.6,-85.3c-2.3,-0.3 -4.6,-0.4 -6.9,-0.3c-2.2,0.1 -4.5,-0.2 -6.8,-0.9z"/>
  <path fill="#ffffff" id="svg_81" d="m1079.1,395.8l0.7,-18.8c5,0.4 10,0.6 15.1,0.6c13.4,0 26.4,-0.8 39.2,-2.4l-1.6,7.9c-0.5,2.2 -0.9,4.5 -1.4,6.8c-0.4,2.3 -0.8,4.4 -1.2,6.1c-2.2,0.6 -4.4,1 -6.6,1.2c-2.2,0.2 -4.4,0.6 -6.5,0.9c-1.7,7.4 -3.4,16.5 -5.2,27.4c-3.8,24.1 -6.5,41.6 -8,52.6l-26.4,4.2c7.7,-36.3 13,-64.8 15.6,-85.3c-2.3,-0.3 -4.6,-0.4 -6.9,-0.3c-2.2,0.1 -4.5,-0.2 -6.8,-0.9z"/>
  <path fill="#ffffff" id="svg_82" d="m1145.1,461.5c3.6,-0.3 8.7,-0.4 15.2,-0.4c0.2,3.7 0.5,6.8 0.9,9.1c0.4,2.3 0.6,4.1 0.8,5.2c0.1,1.1 0.3,1.8 0.4,2.2l-4.4,-0.1c-10,0 -20,0.9 -30,2.7c-3.3,0.7 -6.2,1.4 -8.9,2.3c2.3,-17.7 5.3,-36.3 9.1,-55.8c3.8,-19.5 7,-35.9 9.7,-49.2l25.8,-3.4c-8.9,37.7 -14.1,60.8 -15.6,69.4c-1.6,8.5 -2.5,14.6 -3,18z"/>
  <path fill="#ffffff" id="svg_83" d="m1162.7,482.3l19.2,-104.4l46.5,-4c-0.7,2.2 -1.2,4.3 -1.7,6.4c-0.5,2.1 -1,4.1 -1.4,6.1c-0.5,2 -0.9,3.8 -1.1,5.3c-2.9,0.3 -6.8,0.4 -11.8,0.4l-9.9,0l-5.2,26.4c5.3,-0.3 9.7,-0.5 13.2,-0.6c3.5,-0.1 5.8,-0.2 6.9,-0.3c-0.4,2.8 -0.7,5.5 -1.1,8.1c-0.3,2.6 -0.7,5.3 -1.2,8.1c-1.1,0.1 -2.7,0.2 -4.9,0.2c-2.2,0 -4.5,0.1 -6.9,0.2c-2.4,0.1 -5.1,0.2 -8,0.3l-5,27.1l21.4,-3.4l-1.4,16.8l-47.6,7.3z"/>
 </g>
</svg>