<?xml version="1.0" encoding="utf-8"?>
<!-- Generator: Adobe Illustrator 24.0.1, SVG Export Plug-In . SVG Version: 6.00 Build 0)  -->
<svg version="1.1" id="Layer_1" xmlns="http://www.w3.org/2000/svg" xmlns:xlink="http://www.w3.org/1999/xlink" x="0px" y="0px"
	 viewBox="0 0 220.9 216" style="enable-background:new 0 0 220.9 216;" xml:space="preserve">
<style type="text/css">
	.st0{fill:#D51920;}
	.st1{fill:#ED1C25;}
	.st2{fill:#D4AE4B;}
	.st3{fill:#FFC443;}
	.st4{fill:#EFA444;}
	.st5{fill:#EF9438;}
	.st6{fill:#FFD340;}
	.st7{fill:#FBC14D;}
	.st8{fill:#74A734;}
	.st9{fill:#95BA32;}
	.st10{fill:#D31F26;}
	.st11{fill:#910D10;}
	.st12{fill:#D71920;}
	.st13{fill:#F15B40;}
	.st14{fill:#F69679;}
	.st15{clip-path:url(#SVGID_2_);}
</style>
<path class="st0" d="M158.3,78.5c0,0-33.5,37.6-57.1,37.6S56.1,98.3,56.1,98.3L158.3,78.5z"/>
<path class="st0" d="M117.9,74.3c0,0,37.1-11.8,73.8-5.5s19,24.8,11.2,26C195,96,117.9,74.3,117.9,74.3z"/>
<path class="st1" d="M149.9,100.5c0,0-20.3-16.9-56.5,12.9s-46.8,54-88.8-8.2c0,0,19,12.4,33.3-9.6s17.7-20.3,31.9-17.8
	c0,0,7.1,0,7.1-12S68,60.5,68,60.5s4.1-7.2,18.9-7.2s24.3,11.5,36.7,16.3c12.4,4.8,22.3,8.5,49.5,6.8l14.7,6.2L149.9,100.5z"/>
<g>
	<g>
		<path class="st2" d="M129.8,38.2c0.2,2.7,0,5.6-0.3,8.9c-0.1,1.9-0.1,3.3,0.1,4.5c0.6,3.9,2.7,3.7,2.7,3.7
			c-3,8.4,5.4,15.1,6.8,16.7c1.4,1.6,2.8,23.9,2.6,27.8s5,18.1,6.2,24.1c1.2,6,4.6,9.9,5,20.5c0.4,10.5,1,17.1,4.6,22.7
			c3.6,5.6,2.6,10.1,3.2,18.5c0.3,4.6,2.4,6.2,4.3,6.7c-0.3,0.1-0.6,0.1-0.9,0.1c0,0-5.8,2.5-6.2-8.2c-0.3-10.7-20-98.9-32.3-129.4
			c0,0-9.8-12.8-2.3-25.8c0,0,0.4-0.2,1.1-0.4C128.2,31,129.5,34.3,129.8,38.2"/>
		<path class="st3" d="M160.6,185.5c-0.6-8.4,0.4-12.9-3.2-18.5c-3.6-5.6-4.2-12.1-4.6-22.7c-0.4-10.5-3.8-14.5-5-20.5
			c-1.2-6-6.4-20.1-6.2-24.1s-1.2-26.2-2.6-27.8c-1.4-1.6-9.7-8.4-6.8-16.7c0,0-2,0.2-2.7-3.7c7.2,2.8,32.8,10.7,79.4,4.7
			c0,0,0.7,0.6,1,2.3c-0.2,0.1-0.4,0.1-0.4,0.1s-0.2,1-0.5,2.7c-3.5-0.8-7.6-1-11.7-0.2c-8.4,1.6-20.3-2.8-28.6-1.6
			c-8.4,1.2-25.1,0-25.1,0c3.6,6.4,6.6,42.9,6.2,49.5c-0.4,6.6,2.4,16.9,2.4,16.9c7.2,13.5,3.4,28.4,7.8,37.6s5.6,14.5,4.4,22.9
			c-0.4,2.9,0,4.6,0.7,5.6c-0.1,0-0.3,0.1-0.4,0.1C163,191.6,160.9,190,160.6,185.5z"/>
		<path class="st4" d="M209.1,56.2c-46.6,6-72.2-1.9-79.4-4.7c-0.2-1.1-0.3-2.6-0.1-4.5c0.2-3.2,0.5-6.2,0.3-8.9
			c12.9-0.8,69.9-3.8,86.4,7.8c-0.3,5.4-1.5,10.4-2.5,10.9c-1.4,0.8-3,1.4-3.6,1.7C209.8,56.8,209.1,56.2,209.1,56.2z"/>
		<path class="st5" d="M129.8,38.2c-0.3-4-1.6-7.3-5.5-9.8c3.9-1.4,18.7-5.4,52.5-3.1c0,0,32.3,1.5,37,7c2.3,2.7,2.8,8.4,2.5,13.6
			C199.7,34.5,142.8,37.4,129.8,38.2z"/>
	</g>
	<g>
		<path class="st6" d="M182.1,167.3c0.1-1.3,0.1-2.1,0.1-2.1s-4.5,5.7-7.4,4.4c-2.9-1.3-3-5-9.2-4c0,0,5,1.9,5.2,4.9
			c0,0,4.5,2.3,7.4,6.1c-4.1,8.5-8.5,14.3-12.7,15.5c-0.7-1-1.1-2.7-0.7-5.6c1.2-8.4,0-13.7-4.4-22.9s-0.6-24.1-7.8-37.6
			c0,0-2.8-10.3-2.4-16.9c0.4-6.6-2.6-43.1-6.2-49.5c0,0,16.7,1.2,25.1,0c8.4-1.2,20.3,3.2,28.6,1.6c4.1-0.8,8.2-0.6,11.7,0.2
			C206.9,74.5,195.6,133.1,182.1,167.3z"/>
		<path class="st7" d="M170.7,170.4c-0.2-2.9-5.2-4.9-5.2-4.9c6.2-1,6.3,2.6,9.2,4c2.9,1.3,7.4-4.4,7.4-4.4s0,0.9-0.1,2.1
			c-1.3,3.3-2.7,6.4-4,9.2C175.2,172.7,170.7,170.4,170.7,170.4z"/>
	</g>
	<path class="st7" d="M150.6,121.6c0,0,4.7-2.8,7.1,1.1c0,0,3.3-1.6,11.5,4.3c0,0-2.7-6.5-7.1-5.4c0,0-3.5-0.2-4.3-1
		S155.4,117.4,150.6,121.6z"/>
	<path class="st7" d="M172.9,109.3c0,0,3.9-0.7,4.5,1.5c0.6,2.2,0.7,7.1,6.5,5.3c0,0,0.6-0.6,2.9-0.4c2.3,0.2,5.1,0.3,6.4-0.5
		c1.3-0.8,3.1,2.3,3.1,2.3s0.4-5-4.9-2.8c0,0-7.1,0.6-7.8,0.1s-3.5,0.1-3.8-0.9S178.5,105.5,172.9,109.3z"/>
	<path class="st7" d="M170.6,93.1c0,0,7.1-3.8,9.9-3.2s3.6,3.3,5.1,2.7c1.5-0.6,2.6-4,5.7-3.2c0,0-3.1-1.2-5.6,0.9
		c-2.4,2.1-4.1-4.3-5.5-4C178.8,86.6,173.5,87.8,170.6,93.1z"/>
	<path class="st7" d="M138.3,65.6c0,0,2.5,1.2,4.9-0.6c2.3-1.8,4.5-1.5,5.9,0c1.4,1.5,5.1-2.9,6.8-2.8c0,0-2.1,0.9-5.3,0.8
		c-3.1-0.1-6.4-2-8.3-0.8S141.1,65.7,138.3,65.6z"/>
	<path class="st7" d="M172.9,67.1c0,0,4.7,1.1,5.4,2.5s4.3,3.7,6.9,2.8c2.6-0.8,14.3-1.2,16,1.8c0,0-1.8-5.6-14.2-3.6
		c0,0-4.7,1.9-6.9-1.2C178.1,66.5,172.9,67.1,172.9,67.1z"/>
	<path class="st7" d="M155.4,151.5c0,0,4.8-0.6,5.9,0.5c1.2,1.1,5.3,2,7.5,0.3c2.2-1.7,13-6.1,15.7-3.8c0,0-3.6-4.6-14.5,1.5
		c0,0-3.8,3.4-6.8,1.3C160,149.2,155.4,151.5,155.4,151.5z"/>
	<path class="st7" d="M165,82c0,0-3.1-0.4-3.6-1.3s-3-2.1-4.6-1.4c-1.7,0.7-9.2,1.6-10.5-0.2c0,0,1.5,3.5,9.4,1.5
		c0,0,2.9-1.5,4.5,0.3C161.7,82.7,165,82,165,82z"/>
	<path class="st7" d="M159.1,103c0,0,1.9-2.8,4.3-1.1c0,0,1.5-1.8,7.5-0.4c0,0-3.2-3-5.4-1.3c0,0-2,0.7-2.7,0.5
		C162.3,100.4,160.8,99.3,159.1,103z"/>
</g>
<g>
	<path class="st8" d="M175.7,66.8c-1.6-1.9-6.2-2-6.7,3.3c1.3,0.5,3.3,1.1,4.5-0.1C174.8,69,174.3,67.9,175.7,66.8z"/>
	<path class="st9" d="M175.7,66.8c-1.6-1.9-6.2-2-6.7,3.3C170.6,70.3,172.7,66.5,175.7,66.8z"/>
</g>
<g>
	<path class="st8" d="M153.1,109.7c1.7,0.4,6.3-1.9,3.4-6.7c-1.3,0.3-2.5,0.7-3,2.3C152.9,106.7,153.1,108.6,153.1,109.7z"/>
	<path class="st9" d="M153.1,109.7c1.7,0.4,6.3-1.9,3.4-6.7C155.3,104.2,155.5,107.7,153.1,109.7z"/>
</g>
<g>
	<path class="st8" d="M164.4,176.2c-1.2-3.5,2.1-9.5,9.4-6c-0.3,2-1.1,5.1-3.5,5.8C167.9,176.6,166.9,175.2,164.4,176.2z"/>
	<path class="st9" d="M164.4,176.2c-1.2-3.5,2.1-9.5,9.4-6C172.7,172.3,166.3,172,164.4,176.2z"/>
</g>
<g>
	<path class="st8" d="M190,86.2c1.2,1.6,7,3.2,8.2-3.2c-1.4-0.8-2.7-1.3-4.4-0.4C192.1,83.4,190.8,85.2,190,86.2z"/>
	<path class="st9" d="M190,86.2c1.2,1.6,7,3.2,8.2-3.2C196.1,83.1,193.6,86.3,190,86.2z"/>
</g>
<g>
	<path class="st8" d="M176.9,133.1c1.4,1.7,7.8,3.1,8.7-4c-1.6-0.7-3-1.2-4.9-0.2C179.1,130,177.8,132.1,176.9,133.1z"/>
	<path class="st9" d="M176.9,133.1c1.4,1.7,7.8,3.1,8.7-4C183.4,129.4,180.9,133,176.9,133.1z"/>
</g>
<g>
	
		<ellipse transform="matrix(0.9956 -9.362800e-02 9.362800e-02 0.9956 -8.4776 13.7685)" class="st10" cx="142.5" cy="97.2" rx="1" ry="0.5"/>
	
		<ellipse transform="matrix(0.9956 -9.362800e-02 9.362800e-02 0.9956 -8.4776 13.7685)" class="st11" cx="142.5" cy="97.2" rx="0.3" ry="0.2"/>
	<path class="st1" d="M142.5,97.3c0,0,9.4-15-15.7-24.5s-45.2,7.8-45.2,7.8l-21.6,29.9C60.1,110.5,123.4,73.8,142.5,97.3z"/>
</g>
<path class="st0" d="M13.3,111.8c0,0,15,23.3,32.7,23.3s28.3-20.6,45.3-29.4c0,0-39.1,18.9-51,0C40.2,105.6,39.4,125.4,13.3,111.8z"
	/>
<path class="st0" d="M76.4,81.3c0,0,6.4-4.3,4.5-14c0,0,6.1,10.5,12.1,11.1c6.1,0.6,11.5,0.4,12.1,9.1
	C105.2,87.5,94.8,79.5,76.4,81.3z"/>
<g>
	
		<ellipse transform="matrix(0.1605 -0.987 0.987 0.1605 57.4416 220.4758)" class="st12" cx="158.3" cy="76.5" rx="14.1" ry="14.1"/>
	
		<ellipse transform="matrix(8.259293e-02 -0.9966 0.9966 8.259293e-02 69.0475 227.9455)" class="st13" cx="158.3" cy="76.5" rx="13.5" ry="13.5"/>
	<path class="st14" d="M166.6,77.5c0.8,0.4,2.5-1,2.3-1.7c-0.1-0.7-1.5-1.2-2-0.7C166.4,75.5,165.8,77,166.6,77.5z M154.7,72.1
		c0.7,1.1,2-0.5,1.9-1.4C156.4,69.9,153.9,71.1,154.7,72.1z M166.7,78.8c-0.2-0.7-1.4,0.5-1.3,1C165.7,80.2,167,79.5,166.7,78.8z
		 M161.2,70.9c-0.4-0.7-3.1-0.3-3.4,1c-0.3,1.3,1.3,1.8,2.1,1.6C160.6,73.4,161.5,71.7,161.2,70.9z M169.8,76.6
		c0.7,0,1.2-3.3,0.2-3.2C169.1,73.4,169,76.6,169.8,76.6z M163.9,78.2c0.8,0.1,0.5-2.6,0-2.7C163.3,75.6,162.9,78.1,163.9,78.2z
		 M166.5,82.4c0.1-0.7-1.6-1.2-1.8-0.3C164.5,82.9,166.4,83,166.5,82.4z M163.2,80.3c0.2-0.9-2.3-0.7-2.4,0
		C160.6,81,162.8,81.6,163.2,80.3z M158.2,81.2c-0.6-0.5-1.2,0.1-1.5,0.7c-0.3,0.6,0.4,2.3,1,2.1C158.2,83.9,158.8,81.7,158.2,81.2z
		 M164.4,67.4c0.5-0.1,0.9-1.9,0.4-2.1c-0.5-0.2-1.4,0.6-1.5,1C163.2,66.9,163.7,67.6,164.4,67.4z M163,68.2c0-0.7-3.2-0.1-3.1,0.8
		C159.9,69.8,163,68.9,163,68.2z M150.7,72.7c0.4,0.5,1.6-1.6,1.3-2C151.8,70.2,150.3,72.2,150.7,72.7z M166.9,68.4
		c0.3-0.4-0.4-1.4-1.1-0.8C165.2,68.2,166.6,68.8,166.9,68.4z M162,65.3c0.1-0.5-2-1.3-2.1-0.6C159.7,65.4,161.9,65.8,162,65.3z
		 M159.4,79c0.6,0.5,2.3-1.5,1.8-2.1C160.6,76.4,158.8,78.5,159.4,79z M158.6,65.8c-1.1,0.3-1.9,2-1,2.7c0.8,0.6,1.3-0.1,1.6-1.2
		C159.3,66.8,159.7,65.5,158.6,65.8z M167,73c0.6-0.6-0.5-1.5-1-0.9C165.5,72.6,166.2,73.8,167,73z M164.1,74.8
		c0.6-0.3,0.4-1.7-0.3-1.9c-0.7-0.2-1.7,0.3-1.7,1C162.1,74.5,163.6,75,164.1,74.8z M155.3,75.2c0.7-0.4-0.3-1.9-1-1.5
		C153.6,73.9,154.6,75.6,155.3,75.2z M159.9,74.8c0-0.8-3.3,0.5-2.8,1.5C157.6,77.4,159.9,76.1,159.9,74.8z M162.4,71.4
		c0.1,0.4,1.6-0.5,1.1-1C163.1,69.9,162.3,70.7,162.4,71.4z M146.5,75.5c0.6,0.2,1.4-1.6,1.2-2C147.5,73.1,145.8,75.2,146.5,75.5z
		 M149,69.4c-0.6-0.5-2.4,1.5-1.8,2.1C147.8,72,149.5,69.9,149,69.4z M147.3,77.5c0,1.3,1.4,0.4,1.9-0.1c0.5-0.4,1.2-0.4,1.1-1.2
		C150.2,75.6,147.2,76.2,147.3,77.5z M153.1,78.9c0.5,0,0.7-2.6,0-2.8c-0.8-0.2-1.2,0.5-1.5,1.1C151.3,77.8,152.6,78.9,153.1,78.9z
		 M164.9,69.9c-0.6,0.5,0.3,1.4,0.9,1.1C166.4,70.6,165.6,69.5,164.9,69.9z M155.3,79.6c1,0.6,1.5-1.6,1-2
		C155.8,77.3,154.2,79,155.3,79.6z M153.3,65.8c-1.3,1.4-0.8,2.2-0.5,2.2c0.7,0.1,0.7-1.4,2.9-2.5c1-0.5,2.1-0.8,2.1-1.1
		C157.8,63.7,154.6,64.4,153.3,65.8z M153.2,69.5c0,0.7,2.6-0.5,2.6-1C155.9,68,153.2,68.8,153.2,69.5z M150.1,67.3
		c-0.7,0.6,0.8,1.2,1.1,0.8C151.5,67.7,150.8,66.7,150.1,67.3z M168.2,69.6c-0.6,0.4,0.7,3,1.8,2.3
		C170.7,71.4,168.8,69.2,168.2,69.6z M162.8,83.8c0.3-0.4-2.3-1.3-2.7-0.8C159.7,83.6,162.5,84.2,162.8,83.8z M151.7,86.8
		c0,0.7,3.8,1.3,3.8,0.1C155.4,86.1,151.7,86.1,151.7,86.8z M156.4,87.6c0,0.8,2,1.3,2.3,0.5C159,87.5,156.4,86.8,156.4,87.6z
		 M164.1,87.2c0.8,0.2,2.4-0.8,2.6-1.6c0.2-0.8-1.9-1.7-2.6-1.5C163.4,84.4,163.1,87,164.1,87.2z M162.4,88.1
		c0.1-0.5-2.1-1.4-2.2-0.3C160.1,88.8,162.2,88.8,162.4,88.1z M168.3,82.9c1,0.1,2.4-3.5,1.1-4C168.7,78.5,167.4,82.8,168.3,82.9z
		 M148.9,84c0.2,0.9,3.5,0.8,3.8-0.1C153,83.4,148.8,83.1,148.9,84z M146.6,79.8c-0.5,0-0.7,1.2-0.4,1.7c0.3,0.5,1.1,0.6,1.6,0.4
		C148.3,81.6,147.1,79.8,146.6,79.8z M154.7,81.7c0-0.5-1.9-0.3-1.8,0.2C153.1,82.3,154.7,82.3,154.7,81.7z M156.9,85.8
		c0.1,0.7,2.6,0.6,2.8-0.4C159.8,84.9,156.8,85,156.9,85.8z M149.4,79.4c-0.5,0.2-0.9,1.3-0.3,1.6c0.6,0.3,1.7-0.3,1.7-0.8
		C150.8,79.6,149.9,79.1,149.4,79.4z"/>
</g>
<g>
	
		<ellipse transform="matrix(0.1605 -0.987 0.987 0.1605 55.6399 271.6507)" class="st12" cx="187.5" cy="103.1" rx="10.4" ry="10.4"/>
	
		<ellipse transform="matrix(8.259293e-02 -0.9966 0.9966 8.259293e-02 69.2651 281.4752)" class="st13" cx="187.5" cy="103.1" rx="10" ry="10"/>
	<path class="st14" d="M193.7,103.9c0.6,0.3,1.8-0.8,1.7-1.3c-0.1-0.5-1.1-0.9-1.5-0.5C193.5,102.4,193,103.5,193.7,103.9z
		 M184.8,99.9c0.5,0.8,1.5-0.4,1.4-1C186.1,98.2,184.3,99.1,184.8,99.9z M193.7,104.8c-0.2-0.5-1.1,0.4-0.9,0.7
		C192.9,105.9,193.9,105.4,193.7,104.8z M189.6,99c-0.3-0.5-2.3-0.2-2.5,0.7c-0.2,0.9,1,1.3,1.5,1.2
		C189.2,100.8,189.9,99.6,189.6,99z M196,103.2c0.5,0,0.9-2.5,0.1-2.4C195.5,100.9,195.4,103.2,196,103.2z M191.6,104.4
		c0.6,0.1,0.3-1.9,0-2C191.2,102.4,190.9,104.4,191.6,104.4z M193.6,107.5c0.1-0.5-1.2-0.9-1.3-0.2
		C192.1,107.9,193.5,108,193.6,107.5z M191.1,105.9c0.2-0.7-1.7-0.5-1.8,0C189.2,106.5,190.8,106.9,191.1,105.9z M187.4,106.6
		c-0.5-0.4-0.9,0.1-1.1,0.5c-0.2,0.4,0.3,1.7,0.8,1.6C187.4,108.6,187.9,107,187.4,106.6z M192,96.4c0.4-0.1,0.6-1.4,0.3-1.5
		c-0.4-0.1-1.1,0.4-1.1,0.8C191.1,96,191.5,96.6,192,96.4z M191,97c0-0.5-2.4-0.1-2.3,0.6C188.7,98.2,191,97.5,191,97z M181.8,100.3
		c0.3,0.3,1.2-1.2,1-1.5C182.7,98.5,181.5,100,181.8,100.3z M193.9,97.1c0.2-0.3-0.3-1-0.8-0.6C192.6,97,193.7,97.4,193.9,97.1z
		 M190.2,94.8c0-0.4-1.5-1-1.6-0.5C188.5,94.9,190.2,95.2,190.2,94.8z M188.3,105c0.5,0.4,1.7-1.1,1.3-1.5
		C189.2,103.1,187.9,104.6,188.3,105z M187.7,95.2c-0.8,0.2-1.4,1.5-0.8,2c0.6,0.5,1-0.1,1.2-0.9C188.3,95.9,188.5,95,187.7,95.2z
		 M194,100.5c0.4-0.4-0.3-1.1-0.7-0.7S193.4,101.2,194,100.5z M191.8,101.8c0.4-0.2,0.3-1.3-0.2-1.4c-0.5-0.2-1.3,0.2-1.3,0.7
		C190.3,101.7,191.4,102,191.8,101.8z M185.2,102.2c0.5-0.3-0.2-1.4-0.7-1.1S184.7,102.4,185.2,102.2z M188.7,101.9
		c0-0.6-2.5,0.4-2.1,1.1C186.9,103.8,188.7,102.8,188.7,101.9z M190.5,99.3c0,0.3,1.2-0.4,0.8-0.7C191.1,98.3,190.5,98.9,190.5,99.3
		z M178.7,102.4c0.4,0.2,1-1.2,0.9-1.5C179.5,100.6,178.2,102.2,178.7,102.4z M180.6,97.9c-0.4-0.4-1.8,1.1-1.3,1.5
		C179.7,99.8,181,98.3,180.6,97.9z M179.3,103.9c0,0.9,1,0.3,1.4,0c0.4-0.3,0.9-0.3,0.8-0.9C181.5,102.4,179.3,102.9,179.3,103.9z
		 M183.7,104.9c0.4,0,0.5-1.9,0-2c-0.6-0.1-0.9,0.4-1.1,0.8C182.3,104.1,183.2,104.9,183.7,104.9z M192.4,98.3
		c-0.5,0.3,0.2,1.1,0.7,0.8C193.5,98.8,192.9,97.9,192.4,98.3z M185.3,105.4c0.8,0.4,1.1-1.2,0.8-1.5
		C185.7,103.7,184.5,105,185.3,105.4z M183.8,95.2c-1,1-0.6,1.6-0.4,1.7c0.5,0.1,0.5-1,2.1-1.9c0.7-0.4,1.6-0.6,1.6-0.8
		C187.1,93.7,184.7,94.1,183.8,95.2z M183.7,98c0,0.5,1.9-0.4,1.9-0.8C185.7,96.8,183.7,97.4,183.7,98z M181.4,96.3
		c-0.5,0.5,0.6,0.9,0.8,0.6C182.4,96.6,181.9,95.9,181.4,96.3z M194.8,98c-0.5,0.3,0.5,2.2,1.4,1.7C196.7,99.4,195.2,97.7,194.8,98z
		 M190.9,108.5c0.3-0.3-1.7-1-2-0.6C188.5,108.4,190.6,108.8,190.9,108.5z M182.6,110.8c0,0.5,2.8,0.9,2.8,0.1
		C185.4,110.2,182.6,110.3,182.6,110.8z M186.1,111.4c0,0.6,1.5,1,1.7,0.4C188,111.3,186.1,110.8,186.1,111.4z M191.8,111.1
		c0.6,0.1,1.8-0.6,1.9-1.2c0.1-0.6-1.4-1.3-1.9-1.1C191.3,109,191.1,110.9,191.8,111.1z M190.5,111.8c0.1-0.4-1.5-1-1.6-0.3
		C188.8,112.3,190.4,112.3,190.5,111.8z M194.9,107.9c0.7,0,1.8-2.6,0.9-3C195.2,104.6,194.2,107.8,194.9,107.9z M180.6,108.7
		c0.1,0.7,2.6,0.6,2.8-0.1C183.6,108.3,180.4,108,180.6,108.7z M178.8,105.6c-0.4,0-0.5,0.9-0.3,1.2c0.2,0.4,0.8,0.5,1.2,0.3
		C180.1,106.9,179.2,105.6,178.8,105.6z M184.8,107c0-0.4-1.4-0.2-1.3,0.1C183.6,107.5,184.8,107.4,184.8,107z M186.4,110
		c0.1,0.5,1.9,0.5,2.1-0.3C188.6,109.4,186.4,109.5,186.4,110z M180.9,105.3c-0.4,0.2-0.6,1-0.2,1.2c0.4,0.2,1.3-0.2,1.2-0.6
		C181.9,105.4,181.3,105.1,180.9,105.3z"/>
</g>
<g>
	<defs>
		<path id="SVGID_1_" d="M182.1,167.3c0.1-1.3,0.1-2.1,0.1-2.1s-4.5,5.7-7.4,4.4c-2.9-1.3-3-5-9.2-4c0,0,5,1.9,5.2,4.9
			c0,0,4.5,2.3,7.4,6.1c-4.1,8.5-8.5,14.3-12.7,15.5c-0.7-1-1.1-2.7-0.7-5.6c1.2-8.4,0-13.7-4.4-22.9s-0.6-24.1-7.8-37.6
			c0,0-2.8-10.3-2.4-16.9c0.4-6.6-2.6-43.1-6.2-49.5c0,0,16.7,1.2,25.1,0c8.4-1.2,20.3,3.2,28.6,1.6c4.1-0.8,8.2-0.6,11.7,0.2
			C206.9,74.5,195.6,133.1,182.1,167.3z"/>
	</defs>
	<clipPath id="SVGID_2_">
		<use xlink:href="#SVGID_1_"  style="overflow:visible;"/>
	</clipPath>
	<g class="st15">
		<ellipse transform="matrix(0.1605 -0.987 0.987 0.1605 8.9569 306.5453)" class="st12" cx="184.7" cy="148" rx="14.9" ry="14.9"/>
		
			<ellipse transform="matrix(8.259293e-02 -0.9966 0.9966 8.259293e-02 21.9332 319.8404)" class="st13" cx="184.7" cy="148" rx="14.3" ry="14.3"/>
		<path class="st14" d="M193.5,149.1c0.8,0.4,2.6-1.1,2.5-1.8c-0.1-0.8-1.6-1.2-2.2-0.7C193.2,147,192.6,148.6,193.5,149.1z
			 M180.8,143.4c0.8,1.1,2.2-0.5,2-1.4C182.7,141,180,142.3,180.8,143.4z M193.6,150.5c-0.2-0.8-1.5,0.5-1.3,1
			C192.5,152,193.9,151.2,193.6,150.5z M187.7,142.1c-0.4-0.8-3.2-0.3-3.6,1c-0.4,1.3,1.4,1.9,2.2,1.7
			C187,144.7,188.1,142.9,187.7,142.1z M196.9,148.2c0.7,0,1.3-3.5,0.2-3.4C196.1,144.8,196,148.1,196.9,148.2z M190.6,149.9
			c0.8,0.1,0.5-2.8,0-2.8C190,147,189.5,149.8,190.6,149.9z M193.4,154.3c0.1-0.7-1.7-1.2-1.9-0.3
			C191.3,154.8,193.2,155,193.4,154.3z M189.8,152c0.2-1-2.4-0.7-2.6,0C187.1,152.8,189.5,153.5,189.8,152z M184.5,153
			c-0.7-0.6-1.3,0.2-1.6,0.8c-0.3,0.6,0.4,2.5,1.1,2.2C184.6,155.9,185.2,153.6,184.5,153z M191.1,138.4c0.5-0.2,0.9-2,0.4-2.2
			c-0.5-0.2-1.5,0.6-1.6,1.1C189.8,137.9,190.4,138.6,191.1,138.4z M189.6,139.2c0-0.8-3.4-0.1-3.3,0.9
			C186.4,141,189.6,140,189.6,139.2z M176.6,144c0.5,0.5,1.7-1.7,1.4-2.2C177.7,141.3,176.1,143.5,176.6,144z M193.8,139.4
			c0.3-0.4-0.4-1.5-1.1-0.8S193.5,139.9,193.8,139.4z M188.5,136.2c0.1-0.5-2.1-1.4-2.3-0.7C186.1,136.3,188.5,136.7,188.5,136.2z
			 M185.8,150.7c0.6,0.5,2.4-1.6,1.9-2.2C187.1,148,185.2,150.2,185.8,150.7z M185,136.7c-1.1,0.3-2,2.2-1.1,2.8
			c0.9,0.7,1.4-0.1,1.7-1.3C185.7,137.7,186.2,136.3,185,136.7z M193.9,144.3c0.6-0.6-0.5-1.6-1.1-1
			C192.3,143.9,193,145.2,193.9,144.3z M190.8,146.2c0.6-0.3,0.4-1.9-0.3-2.1c-0.7-0.2-1.8,0.3-1.8,1.1
			C188.7,146,190.3,146.5,190.8,146.2z M181.4,146.6c0.7-0.4-0.3-2-1-1.6C179.7,145.3,180.7,147,181.4,146.6z M186.4,146.3
			c0-0.8-3.5,0.6-3,1.6C183.9,149,186.4,147.6,186.4,146.3z M189,142.6c0.1,0.5,1.7-0.5,1.2-1C189.8,141.1,188.9,141.9,189,142.6z
			 M172.1,146.9c0.6,0.2,1.5-1.7,1.3-2.1C173.2,144.4,171.4,146.7,172.1,146.9z M174.7,140.6c-0.6-0.5-2.5,1.6-1.9,2.2
			C173.5,143.2,175.3,141.1,174.7,140.6z M172.9,149.1c0,1.3,1.5,0.4,2-0.1c0.6-0.5,1.3-0.5,1.2-1.3
			C176,147,172.9,147.7,172.9,149.1z M179.2,150.6c0.6,0,0.8-2.7-0.1-2.9c-0.8-0.2-1.2,0.5-1.5,1.1
			C177.3,149.4,178.6,150.6,179.2,150.6z M191.7,141.1c-0.7,0.5,0.3,1.5,0.9,1.1C193.3,141.8,192.4,140.6,191.7,141.1z M181.4,151.3
			c1.1,0.6,1.6-1.7,1.1-2.1C182,148.9,180.3,150.7,181.4,151.3z M179.3,136.6c-1.4,1.5-0.9,2.3-0.5,2.4c0.7,0.1,0.7-1.4,3.1-2.7
			c1.1-0.6,2.3-0.8,2.3-1.2C184.1,134.5,180.7,135.2,179.3,136.6z M179.3,140.6c0,0.8,2.8-0.5,2.8-1.1
			C182.1,139,179.2,139.9,179.3,140.6z M176,138.3c-0.7,0.6,0.8,1.3,1.1,0.8C177.4,138.7,176.7,137.7,176,138.3z M195.1,140.7
			c-0.6,0.5,0.7,3.2,2,2.4C197.8,142.6,195.8,140.2,195.1,140.7z M189.5,155.8c0.4-0.4-2.4-1.4-2.9-0.8
			C186.2,155.6,189.1,156.2,189.5,155.8z M177.6,159c0,0.7,4,1.4,4,0.1C181.6,158.2,177.6,158.2,177.6,159z M182.6,159.8
			c0,0.8,2.1,1.4,2.5,0.5C185.4,159.7,182.6,159,182.6,159.8z M190.9,159.4c0.8,0.2,2.5-0.9,2.7-1.7c0.2-0.8-2-1.8-2.8-1.6
			C190.1,156.4,189.8,159.2,190.9,159.4z M189,160.4c0.1-0.6-2.2-1.4-2.3-0.4C186.5,161.1,188.8,161.1,189,160.4z M195.3,154.8
			c1,0.1,2.5-3.7,1.2-4.3C195.7,150.2,194.3,154.8,195.3,154.8z M174.7,156c0.2,0.9,3.7,0.8,4.1-0.1C179,155.4,174.5,155,174.7,156z
			 M172.3,151.6c-0.5,0-0.8,1.2-0.5,1.8c0.3,0.5,1.2,0.7,1.7,0.4C174,153.4,172.8,151.6,172.3,151.6z M180.9,153.6
			c0-0.6-2.1-0.3-1.9,0.2C179.1,154.2,180.9,154.2,180.9,153.6z M183.2,157.9c0.1,0.8,2.8,0.7,3-0.4
			C186.2,157,183,157.1,183.2,157.9z M175.2,151.1c-0.5,0.3-0.9,1.4-0.3,1.7c0.6,0.3,1.8-0.3,1.8-0.9
			C176.7,151.3,175.8,150.8,175.2,151.1z"/>
		<g>
			
				<ellipse transform="matrix(0.1605 -0.987 0.987 0.1605 7.3233 250.2976)" class="st12" cx="150.8" cy="120.8" rx="10.4" ry="10.4"/>
			
				<ellipse transform="matrix(8.259294e-02 -0.9966 0.9966 8.259294e-02 17.919 261.1528)" class="st13" cx="150.8" cy="120.8" rx="10" ry="10"/>
			<path class="st14" d="M156.9,121.6c0.6,0.3,1.8-0.8,1.7-1.3c-0.1-0.5-1.1-0.9-1.5-0.5C156.8,120.2,156.3,121.2,156.9,121.6z
				 M148.1,117.6c0.5,0.8,1.5-0.4,1.4-1C149.4,116,147.6,116.8,148.1,117.6z M157,122.6c-0.2-0.5-1.1,0.4-0.9,0.7
				C156.2,123.6,157.2,123.1,157,122.6z M152.9,116.7c-0.3-0.5-2.3-0.2-2.5,0.7c-0.2,0.9,1,1.3,1.5,1.2
				C152.4,118.5,153.2,117.3,152.9,116.7z M159.3,121c0.5,0,0.9-2.5,0.1-2.4C158.8,118.6,158.7,120.9,159.3,121z M154.9,122.2
				c0.6,0.1,0.3-1.9,0-2C154.5,120.2,154.2,122.1,154.9,122.2z M156.9,125.2c0.1-0.5-1.2-0.9-1.3-0.2
				C155.4,125.6,156.8,125.7,156.9,125.2z M154.4,123.7c0.2-0.7-1.7-0.5-1.8,0C152.5,124.2,154.1,124.7,154.4,123.7z M150.7,124.3
				c-0.5-0.4-0.9,0.1-1.1,0.5c-0.2,0.4,0.3,1.7,0.8,1.6C150.7,126.3,151.1,124.7,150.7,124.3z M155.3,114.2c0.4-0.1,0.6-1.4,0.3-1.5
				c-0.4-0.1-1.1,0.4-1.1,0.8C154.4,113.8,154.8,114.3,155.3,114.2z M154.3,114.7c0-0.5-2.4-0.1-2.3,0.6
				C152,115.9,154.2,115.2,154.3,114.7z M145.1,118c0.3,0.3,1.2-1.2,1-1.5C145.9,116.2,144.8,117.7,145.1,118z M157.2,114.8
				c0.2-0.3-0.3-1-0.8-0.6C155.9,114.7,157,115.2,157.2,114.8z M153.5,112.6c0-0.4-1.5-1-1.6-0.5C151.8,112.7,153.4,113,153.5,112.6
				z M151.6,122.7c0.5,0.4,1.7-1.1,1.3-1.5C152.5,120.8,151.1,122.4,151.6,122.7z M151,112.9c-0.8,0.2-1.4,1.5-0.8,2
				c0.6,0.5,1-0.1,1.2-0.9C151.5,113.6,151.8,112.7,151,112.9z M157.2,118.3c0.4-0.4-0.3-1.1-0.7-0.7
				C156.1,118,156.6,118.9,157.2,118.3z M155.1,119.6c0.4-0.2,0.3-1.3-0.2-1.4c-0.5-0.2-1.3,0.2-1.3,0.7
				C153.6,119.4,154.7,119.8,155.1,119.6z M148.5,119.9c0.5-0.3-0.2-1.4-0.7-1.1S148,120.2,148.5,119.9z M152,119.6
				c0-0.6-2.5,0.4-2.1,1.1C150.2,121.5,152,120.6,152,119.6z M153.8,117.1c0,0.3,1.2-0.4,0.8-0.7C154.4,116,153.8,116.6,153.8,117.1
				z M142,120.1c0.4,0.2,1-1.2,0.9-1.5C142.8,118.3,141.5,119.9,142,120.1z M143.9,115.6c-0.4-0.4-1.8,1.1-1.3,1.5
				C143,117.5,144.3,116,143.9,115.6z M142.6,121.6c0,0.9,1,0.3,1.4,0c0.4-0.3,0.9-0.3,0.8-0.9C144.8,120.2,142.6,120.7,142.6,121.6
				z M147,122.6c0.4,0,0.5-1.9,0-2c-0.6-0.1-0.9,0.4-1.1,0.8C145.6,121.8,146.5,122.6,147,122.6z M155.7,116
				c-0.5,0.3,0.2,1.1,0.7,0.8C156.8,116.5,156.2,115.7,155.7,116z M148.5,123.1c0.8,0.4,1.1-1.2,0.8-1.5
				C149,121.4,147.8,122.7,148.5,123.1z M147.1,112.9c-1,1-0.6,1.6-0.4,1.7c0.5,0.1,0.5-1,2.1-1.9c0.7-0.4,1.6-0.6,1.6-0.8
				C150.4,111.4,148,111.9,147.1,112.9z M147,115.7c0,0.5,1.9-0.4,1.9-0.8C149,114.5,147,115.2,147,115.7z M144.7,114.1
				c-0.5,0.5,0.6,0.9,0.8,0.6C145.7,114.3,145.2,113.6,144.7,114.1z M158.1,115.8c-0.5,0.3,0.5,2.2,1.4,1.7
				C160,117.1,158.5,115.4,158.1,115.8z M154.1,126.3c0.3-0.3-1.7-1-2-0.6C151.8,126.1,153.9,126.6,154.1,126.3z M145.9,128.5
				c0,0.5,2.8,0.9,2.8,0.1C148.7,128,145.9,128,145.9,128.5z M149.4,129.1c0,0.6,1.5,1,1.7,0.4C151.3,129,149.4,128.5,149.4,129.1z
				 M155.1,128.8c0.6,0.1,1.8-0.6,1.9-1.2c0.1-0.6-1.4-1.3-1.9-1.1C154.6,126.7,154.4,128.7,155.1,128.8z M153.8,129.5
				c0.1-0.4-1.5-1-1.6-0.3C152.1,130,153.7,130,153.8,129.5z M158.2,125.6c0.7,0,1.8-2.6,0.9-3C158.5,122.4,157.5,125.6,158.2,125.6
				z M143.8,126.4c0.1,0.7,2.6,0.6,2.8-0.1C146.8,126,143.7,125.8,143.8,126.4z M142.1,123.3c-0.4,0-0.5,0.9-0.3,1.2
				c0.2,0.4,0.8,0.5,1.2,0.3C143.3,124.6,142.5,123.3,142.1,123.3z M148.1,124.7c0-0.4-1.4-0.2-1.3,0.1
				C146.9,125.2,148.1,125.2,148.1,124.7z M149.7,127.7c0.1,0.5,1.9,0.5,2.1-0.3C151.9,127.1,149.7,127.2,149.7,127.7z M144.2,123
				c-0.4,0.2-0.6,1-0.2,1.2c0.4,0.2,1.3-0.2,1.2-0.6C145.2,123.2,144.6,122.8,144.2,123z"/>
		</g>
	</g>
</g>
</svg>
