<?xml version="1.0" encoding="UTF-8"?>
<svg enable-background="new 0 0 1200 630" version="1.1" viewBox="0 0 1200 630" xml:space="preserve" xmlns="http://www.w3.org/2000/svg" xmlns:cc="http://creativecommons.org/ns#" xmlns:dc="http://purl.org/dc/elements/1.1/" xmlns:rdf="http://www.w3.org/1999/02/22-rdf-syntax-ns#" xmlns:xlink="http://www.w3.org/1999/xlink"><metadata><rdf:RDF><cc:Work rdf:about=""><dc:format>image/svg+xml</dc:format><dc:type rdf:resource="http://purl.org/dc/dcmitype/StillImage"/><dc:title/></cc:Work></rdf:RDF></metadata><style type="text/css">
	.st0{fill:#D51920;}
	.st1{fill:#ED1C25;}
	.st2{fill:#D4AE4B;}
	.st3{fill:#FFC443;}
	.st4{fill:#EFA444;}
	.st5{fill:#EF9438;}
	.st6{fill:#FFD340;}
	.st7{fill:#FBC14D;}
	.st8{fill:#74A734;}
	.st9{fill:#95BA32;}
	.st10{fill:#D31F26;}
	.st11{fill:#910D10;}
	.st12{fill:#D71920;}
	.st13{fill:#F15B40;}
	.st14{fill:#F69679;}
	.st15{clip-path:url(#SVGID_2_);}
</style><g><path d="m491.8 481.1c10.2-50.1 16.4-85.9 18.6-107.2 9.2 0.8 17.1 1.1 23.7 1.1-4.7 19.8-7.8 33.7-9.3 41.8l14.4-1.7c1.3-6.9 2.5-13.6 3.6-20.1s2.5-13.2 4.2-20.1c3.8-0.7 7.9-1.2 12.2-1.5s7.2-0.5 8.9-0.6l2.4-0.3c-4.7 15.3-9.2 36.7-13.7 64.2-2.2 12.4-4.2 25.1-6 38l-22.9 2.6c1.2-5.8 2.4-11.3 3.4-16.4l3-15.3c1-5.1 1.8-9.4 2.5-13l-14.3 1.3c-2.2 12.1-4.9 26.3-8.2 42.6l-22.5 4.6z" style=""/><path d="m562 480.9l19.2-104.1 46.3-4c-0.7 2.2-1.2 4.3-1.7 6.4s-1 4.1-1.4 6.1c-0.5 2-0.9 3.8-1.1 5.3-2.9 0.3-6.8 0.4-11.7 0.4h-9.9l-5.1 26.3c5.2-0.3 9.6-0.5 13.2-0.6 3.5-0.1 5.8-0.2 6.9-0.3-0.4 2.8-0.7 5.5-1.1 8.1-0.3 2.6-0.7 5.3-1.2 8.1-1.1 0.1-2.7 0.2-4.9 0.2s-4.5 0.1-6.9 0.2-5.1 0.2-8 0.3l-5 27 21.3-3.4-1.4 16.7-47.5 7.3z" style=""/><path d="m660.3 478.5c-7.3-24.1-11.2-37.9-11.4-41.3l-1.9 0.6c-0.8 4.4-1.9 10.5-3.4 18.3s-2.7 14.1-3.6 18.7l-23.7 6.1c9.9-47.9 16-82 18.2-102.1 11.1-3.4 23.5-5.1 37.2-5.1 10.3 0 16.4 3.6 18.3 10.7 0.6 2.2 0.9 4.9 0.9 8.2 0 3.2-0.7 6.7-2 10.5s-3.1 7.4-5.4 10.8c-4.8 7-10.6 12.3-17.6 16 3.7 8 7 15.6 9.9 22.7s5.4 13.1 7.4 17.9l-22.9 8zm1.4-84.5l-6.3 0.1-4.7 23.3c3.8-0.4 8.6-2.8 14.4-7.3 6-4.6 9-8.3 9-11.3 0-2.8-2.6-4.3-7.9-4.7-1.5-0.1-3-0.1-4.5-0.1z" style=""/><path d="m765.7 404.8c0 5.8-0.8 12.3-2.5 19.3-1.7 7.1-3.9 13.5-6.8 19.4s-6.2 11.2-9.9 15.9c-3.8 4.7-7.7 8.6-11.8 11.9-8.5 6.7-16.6 10-24.5 10-6.6 0-11.8-2.4-15.6-7.2-4.2-5.2-6.3-12.9-6.3-22.9 0-10.9 2.5-22.6 7.6-35.2s11.7-23.1 19.9-31.5c8.9-9 18.2-13.4 27.9-13.4 8 0 13.9 3.2 17.6 9.7 2.9 5.4 4.4 13.4 4.4 24zm-20.3 9c0-7.9-2.3-11.9-6.9-11.9-5.8 0-11.1 2.9-15.7 8.6-3.7 4.6-6.9 10.8-9.6 18.7-2.1 6.5-3.1 12.6-3.1 18.3 0 3.8 1.6 6.7 4.9 8.6 1 0.7 2 1 3.3 1 4.4 0 8.3-1.5 11.7-4.5s6.2-6.7 8.5-11.1 4-9.1 5.2-14.1c1.1-4.9 1.7-9.5 1.7-13.6z" style=""/></g><g><path d="m573.3 343.5c-7.3-24.1-11.2-37.9-11.4-41.3l-1.9 0.6c-0.8 4.4-1.9 10.5-3.4 18.3s-2.7 14.1-3.6 18.7l-23.7 6.1c9.9-47.9 16-82 18.2-102.1 11.1-3.4 23.5-5.1 37.2-5.1 10.3 0 16.4 3.6 18.3 10.7 0.6 2.2 0.9 4.9 0.9 8.2 0 3.2-0.7 6.7-2 10.5s-3.1 7.4-5.4 10.8c-4.8 7-10.6 12.3-17.6 16 3.7 8 7 15.6 9.9 22.7s5.4 13.1 7.4 17.9l-22.9 8zm1.4-84.5l-6.3 0.1-4.7 23.3c3.8-0.4 8.6-2.8 14.4-7.3 6-4.6 9-8.3 9-11.3 0-2.8-2.6-4.3-7.9-4.7-1.4-0.1-2.9-0.1-4.5-0.1z" style=""/><path d="m599.4 345.9l19.2-104.1 46.3-4c-0.7 2.2-1.2 4.3-1.7 6.4s-1 4.1-1.4 6.1c-0.5 2-0.9 3.8-1.1 5.3-2.9 0.3-6.8 0.4-11.7 0.4h-10l-5.1 26.3c5.2-0.3 9.6-0.5 13.2-0.6 3.5-0.1 5.8-0.2 6.9-0.3-0.4 2.8-0.7 5.5-1.1 8.1-0.3 2.6-0.7 5.3-1.2 8.1-1.1 0.1-2.7 0.2-4.9 0.2s-4.5 0.1-6.9 0.2-5.1 0.2-8 0.3l-5 27 21.3-3.4-1.4 16.7-47.4 7.3z" style=""/><path d="m704.3 271c0.5-1.9 0.7-3.9 0.7-6s-0.5-3.8-1.6-5.1-2.2-1.9-3.4-1.9-2.4 0.3-3.5 0.9-2.3 1.3-3.4 2.3c-2.7 2.2-4 4.6-4 7.1s0.7 4.6 2 6.1c1.3 1.6 3 3 4.9 4.4 2 1.3 4.1 2.7 6.4 4.1s4.4 3.2 6.4 5.4c4.6 5.3 6.9 12.4 6.9 21.3 0 10.7-3.9 19.5-11.7 26.5-7.4 6.7-16.8 10-28.2 10-8.4 0-16.1-4.4-23-13.2l10.9-21.3c1.3 2.7 3.9 5.1 7.7 7.3 3.8 2.3 6.7 3.4 8.6 3.4s3.5-0.2 4.8-0.6 2.5-1 3.5-1.7c2.4-1.7 3.6-3.8 3.6-6.2s-0.8-4.6-2.3-6.6-3.4-3.9-5.6-5.7-4.7-3.6-7.3-5.5-5-3.8-7.2-5.9c-5.3-4.8-8-9.8-8-15s1.5-10.1 4.5-14.4c3-4.4 6.8-8.2 11.3-11.4s9.5-5.7 14.9-7.6 9.9-2.8 13.7-2.8 6.7 0.3 9.1 1c2.3 0.7 4.4 1.7 6.1 3 3.7 3.1 5.6 7.5 5.6 13.4 0 1.4-0.1 2.8-0.4 4.1-0.2 1.3-0.5 2.8-0.6 4.4l-21.4 6.2z" style=""/><path d="m729.2 259.7l0.7-18.7c5 0.4 10 0.6 15 0.6 13.3 0 26.4-0.8 39-2.4l-1.6 7.9c-0.5 2.2-0.9 4.5-1.4 6.8-0.4 2.3-0.8 4.4-1.2 6.1-2.2 0.6-4.4 1-6.6 1.2s-4.3 0.5-6.4 0.9c-1.7 7.3-3.4 16.4-5.1 27.3-3.8 24-6.5 41.5-8 52.5l-26.3 4.1c7.7-36.2 12.9-64.6 15.6-85.1-2.3-0.3-4.6-0.4-6.9-0.3-2.2 0-4.5-0.2-6.8-0.9z" style=""/><path d="m796.9 320.7l-5.9 21c-2.2 0.3-4.7 0.6-7.7 1-2.9 0.4-5.8 0.7-8.7 1.1-2.9 0.3-5.8 0.7-8.9 1.1 3.9-13 7.2-23.9 9.9-32.9s4.9-16.3 6.6-22.1 3.4-11.5 5.1-17.2 3.3-11.2 4.9-16.4c1.6-5.3 3-10.1 4.2-14.5 17.6-1.2 31.1-2.8 40.3-4.6-0.9 9.4-1.6 20.6-2.1 33.5-1.2 25.6-2.3 49.3-3.1 70.9-2.9 0.5-5.6 0.9-8.4 1.3-2.7 0.4-5.5 0.8-8.4 1.3s-5.6 0.9-7.9 1.3c1-9.2 2-17.4 2.7-24.7h-12.6zm3.4-14.5l10.6-0.7c0-0.6 0.1-1.5 0.2-2.9s0.3-3 0.5-4.8c0.8-10.2 1.6-19.7 2.4-28.5l1-12.7-2.3 0.1-12.4 49.5z" style=""/><path d="m856.5 241.7c2.1-0.2 4.6-0.4 7.4-0.7s5.6-0.5 8.3-0.8c2.7-0.2 5.6-0.5 8.5-0.8-2.5 11.7-4.4 21-5.9 27.9-1.4 6.9-2.6 12.3-3.4 16.4-0.9 4.1-1.6 7.9-2.3 11.3-1.5 7.2-2.5 12-3 14.2-1.4 6.6-2.1 10.8-2.1 12.7s0.4 3.4 1.2 4.4 1.9 1.5 3.3 1.5 2.6-0.7 3.7-2 2-2.9 2.7-4.7 1.3-3.7 1.6-5.6c0.4-1.9 0.8-3.8 1.2-5.8s1-4.7 1.7-8.2 1.4-7.1 2.1-10.9 1.5-7.6 2.2-11.5c2-10 4.3-22.7 7-38l22.2-1.4-0.7 3.7c-1.1 6-2.4 12.9-3.8 20.8s-2.6 14.7-3.8 20.4c-3 14.9-5.1 25.4-6.6 31.7-1.4 6.2-3.4 11.3-5.9 15.2s-5.5 7.2-8.8 9.7c-6.4 4.8-13.8 7.2-22.2 7.2-5.1 0-9.6-1.4-13.3-4.3-4.2-3.4-6.3-8-6.3-13.6v-1.1c0-0.4 0.1-1.7 0.4-3.9 0.2-2.2 0.8-6.1 1.6-11.8 0.9-5.7 1.8-11.6 2.8-17.7s2.1-12.3 3.2-18.5 2.2-11.8 3.1-16.9c2.3-10.9 3.6-17.2 3.9-18.9z" style=""/><path d="m949.2 343.5c-7.3-24.1-11.2-37.9-11.4-41.3l-1.9 0.6c-0.8 4.4-1.9 10.5-3.4 18.3s-2.7 14.1-3.6 18.7l-23.7 6.1c9.9-47.9 16-82 18.2-102.1 11.1-3.4 23.5-5.1 37.2-5.1 10.3 0 16.4 3.6 18.3 10.7 0.6 2.2 0.9 4.9 0.9 8.2 0 3.2-0.7 6.7-2 10.5s-3.1 7.4-5.4 10.8c-4.8 7-10.6 12.3-17.6 16 3.7 8 7 15.6 9.9 22.7s5.4 13.1 7.4 17.9l-22.9 8zm1.4-84.5l-6.3 0.1-4.7 23.3c3.8-0.4 8.6-2.8 14.4-7.3 6-4.6 9-8.3 9-11.3 0-2.8-2.6-4.3-7.9-4.7-1.4-0.1-3-0.1-4.5-0.1z" style=""/><path d="m1001.3 320.7l-5.9 21c-2.2 0.3-4.7 0.6-7.7 1-2.9 0.4-5.8 0.7-8.7 1.1-2.9 0.3-5.8 0.7-8.9 1.1 3.9-13 7.2-23.9 9.9-32.9s4.9-16.3 6.6-22.1 3.4-11.5 5.1-17.2 3.3-11.2 4.9-16.4c1.6-5.3 3-10.1 4.2-14.5 17.6-1.2 31.1-2.8 40.3-4.6-0.9 9.4-1.6 20.6-2.1 33.5-1.2 25.6-2.3 49.3-3.1 70.9-2.9 0.5-5.6 0.9-8.4 1.3-2.7 0.4-5.5 0.8-8.4 1.3s-5.6 0.9-7.9 1.3c1-9.2 2-17.4 2.7-24.7h-12.6zm3.4-14.5l10.6-0.7c0-0.6 0.1-1.5 0.2-2.9s0.3-3 0.5-4.8c0.8-10.2 1.6-19.7 2.4-28.5l1-12.7-2.3 0.1-12.4 49.5z" style=""/><path d="m1064.5 238.5h4.1c1.9 0 7.2-0.2 16-0.6 1.3 6.9 2.6 13.3 3.7 19.2 3 17 5.1 27.9 6.3 32.7 0.4-2 0.8-4.3 1.3-6.9s1-5.3 1.6-8.1 1.1-5.7 1.7-8.7c1-4.7 2.9-14.1 5.9-28.2l17.9-2.1c-10.4 48.1-16.9 82.7-19.4 103.7-1.1 0-5.1 0.8-11.8 2.4s-10.7 2.7-12.1 3.1c-1.9-26.1-4-44.6-6.3-55.5-0.3 1.8-0.7 3.9-1.1 6.4-0.5 2.4-1 5-1.4 7.8-1.8 10.4-4.2 22.9-7.1 37.6l-21.4 5c10.9-51.8 17.2-87.8 19-108.1 1.2 0.3 2.3 0.3 3.1 0.3z" style=""/><path d="m1124 259.7l0.7-18.7c5 0.4 10 0.6 15 0.6 13.3 0 26.4-0.8 39-2.4l-1.6 7.9c-0.5 2.2-0.9 4.5-1.4 6.8-0.4 2.3-0.8 4.4-1.2 6.1-2.2 0.6-4.4 1-6.6 1.2s-4.3 0.5-6.4 0.9c-1.7 7.3-3.4 16.4-5.1 27.3-3.8 24-6.5 41.5-8 52.5l-26.3 4.1c7.7-36.2 12.9-64.6 15.6-85.1-2.3-0.3-4.6-0.4-6.9-0.3-2.2 0-4.5-0.2-6.8-0.9z" style=""/></g><path class="st0" d="m287.4 220.2s87.5-27.9 173.8-12.9c86.3 14.9 44.7 58.5 26.3 61.2-18.5 2.7-200.1-48.3-200.1-48.3z"/><path class="st0" d="m382.7 229.9s-79 88.7-134.5 88.7-106.3-42-106.3-42l240.8-46.7z"/><path class="st1" d="m362.8 282s-47.8-39.8-133.2 30.4-110.3 127.2-209.1-19.4c0 0 44.8 29.2 78.5-22.6s41.7-47.9 75.1-42c0 0 16.7 0 16.7-28.3s-20.9-12.6-20.9-12.6 9.6-16.9 44.6-16.9 57.1 27.1 86.4 38.5c29.2 11.4 52.6 20 116.5 16.1l34.7 14.5-89.3 42.3z"/><g><g style=""><path class="st2" d="m315.6 135.1c0.5 6.3-0.1 13.3-0.6 20.9-0.3 4.5-0.1 7.9 0.3 10.5 1.5 9.2 6.3 8.7 6.3 8.7-7 19.7 12.6 35.6 15.9 39.4 3.3 3.7 6.6 56.2 6.1 65.6s11.7 42.6 14.5 56.7 10.8 23.4 11.7 48.3c0.9 24.8 2.3 40.3 10.8 53.4 8.4 13.1 6.1 23.9 7.5 43.6 0.8 10.7 5.7 14.5 10.1 15.8-0.7 0.1-1.4 0.3-2.1 0.3 0 0-13.7 5.8-14.5-19.3s-47.1-233.1-76.1-304.9c0 0-23.1-30.2-5.5-60.8 0 0 0.9-0.4 2.7-1 9.1 5.7 12.2 13.5 12.9 22.8" style=""/><path class="st3" d="m388.1 482c-1.4-19.7 0.9-30.5-7.5-43.6s-9.8-28.6-10.8-53.4c-0.9-24.8-8.9-34.2-11.7-48.3s-15-47.3-14.5-56.7-2.8-61.8-6.1-65.6c-3.3-3.7-23-19.7-15.9-39.4 0 0-4.8 0.5-6.3-8.7 16.9 6.5 77.4 25.1 187.1 11 0 0 1.7 1.3 2.4 5.5-0.5 0.2-0.8 0.3-0.8 0.3s-0.4 2.3-1.1 6.3c-8.3-1.8-17.8-2.3-27.6-0.4-19.7 3.7-47.8-6.6-67.5-3.7-19.7 2.8-59 0-59 0 8.4 15 15.5 101.2 14.5 116.6-0.9 15.5 5.6 39.8 5.6 39.8 16.9 31.9 8 67 18.3 88.5s13.1 34.2 10.3 53.9c-1 6.8 0 10.8 1.6 13.1-0.3 0.1-0.6 0.2-1 0.3-4.3-0.9-9.3-4.7-10-15.5z" style=""/><path class="st4" d="m502.4 177.5c-109.7 14.1-170.2-4.6-187.1-11-0.4-2.6-0.6-6-0.3-10.5 0.5-7.6 1.1-14.6 0.6-20.9 30.4-2 164.6-8.8 203.5 18.3-0.8 12.8-3.6 24.4-5.8 25.6-3.3 1.8-7 3.3-8.6 4-0.7-4.1-2.3-5.5-2.3-5.5z" style=""/><path class="st5" d="m315.6 135.1c-0.7-9.3-3.8-17.1-13.1-23 9.2-3.3 44-12.8 123.7-7.2 0 0 76.1 3.5 87.1 16.5 5.4 6.3 6.5 19.7 5.8 32-38.9-27.1-173.1-20.2-203.5-18.3z" style=""/></g><g style=""><path class="st6" d="m438.6 439.3c0.1-3 0.2-5 0.2-5s-10.5 13.4-17.5 10.3c-6.9-3.1-7.2-11.7-21.8-9.3 0 0 11.7 4.5 12.2 11.5 0 0 10.7 5.4 17.3 14.3-9.8 20.1-19.9 33.7-30 36.5-1.7-2.3-2.6-6.3-1.6-13.1 2.8-19.7 0-32.3-10.3-53.9-10.3-21.5-1.4-56.7-18.3-88.5 0 0-6.6-24.4-5.6-39.8 0.9-15.5-6.1-101.7-14.5-116.6 0 0 39.4 2.8 59 0 19.7-2.8 47.8 7.5 67.5 3.7 9.8-1.9 19.3-1.4 27.6 0.4-5.7 30.8-32.2 169-64.2 249.5z" style=""/><path class="st7" d="m411.8 446.7c-0.5-6.9-12.2-11.5-12.2-11.5 14.6-2.4 14.8 6.2 21.8 9.3 6.9 3.1 17.5-10.3 17.5-10.3s0 2-0.2 5c-3.1 7.8-6.3 15.1-9.5 21.7-6.8-8.8-17.4-14.2-17.4-14.2z" style=""/></g><path class="st7" d="m364.4 331.6s11-6.7 16.7 2.6c0 0 7.9-3.8 27 10 0 0-6.5-15.3-16.7-12.7 0 0-8.1-0.6-10-2.3s-5.5-7.6-17 2.4z" style=""/><path class="st7" d="m417 302.7s9.1-1.7 10.5 3.6 1.7 16.7 15.3 12.4c0 0 1.4-1.4 6.9-1 5.5 0.5 12 0.7 15.1-1.2s7.4 5.5 7.4 5.5 1-11.7-11.5-6.7c0 0-16.7 1.4-18.4 0.2s-8.1 0.2-8.8-2.2c-0.7-2.2-3.3-19.7-16.5-10.6z" style=""/><path class="st7" d="m411.5 264.4s16.7-8.8 23.4-7.7c6.7 1.2 8.4 7.9 12 6.5s6.2-9.3 13.4-7.7c0 0-7.4-2.9-13.2 2.2-5.7 5-9.6-10-12.9-9.3s-15.7 3.6-22.7 16z" style=""/><path class="st7" d="m335.5 199.6s6 2.9 11.5-1.4 10.5-3.6 13.9 0c3.3 3.6 12-6.9 16-6.7 0 0-5 2.2-12.4 1.9-7.4-0.2-15.1-4.8-19.6-1.9-4.6 2.9-2.7 8.4-9.4 8.1z" style=""/><path class="st7" d="m417 203.2s11 2.6 12.7 6c1.7 3.3 10 8.6 16.3 6.7 6.2-1.9 33.7-2.9 37.8 4.3 0 0-4.3-13.2-33.4-8.5 0 0-11.1 4.4-16.1-2.8-5.1-7.1-17.3-5.7-17.3-5.7z" style=""/><path class="st7" d="m375.8 402.1s11.2-1.3 14 1.2c2.7 2.6 12.4 4.6 17.6 0.7s30.7-14.3 37-9c0 0-8.6-10.9-34.2 3.5 0 0-8.9 8-16.1 3-7.4-4.9-18.3 0.6-18.3 0.6z" style=""/><path class="st7" d="m398.4 238.3s-7.3-1-8.6-3.1-7-5-10.9-3.4-21.6 3.9-24.7-0.5c0 0 3.6 8.2 22.1 3.5 0 0 6.9-3.5 10.6 0.8s11.5 2.7 11.5 2.7z" style=""/><path class="st7" d="m384.5 287.7s4.6-6.5 10.1-2.7c0 0 3.5-4.1 17.8-1 0 0-7.5-7-12.6-3 0 0-4.7 1.7-6.3 1.2s-5-3-9 5.5z" style=""/></g><g><path class="st8" d="m423.7 202.5c-3.8-4.4-14.5-4.8-15.7 7.9 3 1.2 7.8 2.5 10.6-0.1 2.9-2.7 1.7-5.2 5.1-7.8z" style=""/><path class="st9" d="m423.7 202.5c-3.8-4.4-14.5-4.8-15.7 7.9 3.7 0.3 8.5-8.6 15.7-7.9z" style=""/></g><g><path class="st8" d="m370.4 303.5c3.9 0.9 14.7-4.4 7.9-15.7-3.1 0.8-5.8 1.7-7.2 5.3-1.2 3.4-0.7 7.8-0.7 10.4z" style=""/><path class="st9" d="m370.4 303.5c3.9 0.9 14.7-4.4 7.9-15.7-2.8 2.8-2.3 11-7.9 15.7z" style=""/></g><g><path class="st8" d="m397 460.3c-2.8-8.2 4.9-22.3 22-14.2-0.6 4.7-2.7 11.9-8.2 13.6-5.5 1.6-7.9-1.8-13.8 0.6z" style=""/><path class="st9" d="m397 460.3c-2.8-8.2 4.9-22.3 22-14.2-2.3 5-17.5 4.3-22 14.2z" style=""/></g><g><path class="st8" d="m457.3 248.1c2.8 3.8 16.4 7.6 19.2-7.6-3.3-1.8-6.4-3-10.5-0.9-3.7 1.9-6.7 6.2-8.7 8.5z" style=""/><path class="st9" d="m457.3 248.1c2.8 3.8 16.4 7.6 19.2-7.6-4.7 0.3-10.6 7.8-19.2 7.6z" style=""/></g><g><path class="st8" d="m426.5 358.8c3.2 4 18.3 7.4 20.5-9.3-3.7-1.7-7.2-2.9-11.5-0.4-3.9 2.3-6.9 7.1-9 9.7z" style=""/><path class="st9" d="m426.5 358.8c3.2 4 18.3 7.4 20.5-9.3-5.1 0.5-11.2 9.1-20.5 9.3z" style=""/></g><g><ellipse class="st10" transform="matrix(.9956 -.093628 .093628 .9956 -24.154 33.544)" cx="345.4" cy="274.2" rx="2.3" ry="1.2" style=""/><ellipse class="st11" transform="matrix(.9956 -.093628 .093628 .9956 -24.154 33.544)" cx="345.4" cy="274.2" rx=".7" ry=".4" style=""/><path class="st1" d="m345.4 274.5s22.1-35.3-36.9-57.6-106.4 18.3-106.4 18.3l-50.9 70.4c0.1-0.1 149.2-86.7 194.2-31.1z" style=""/></g><path class="st0" d="m40.9 308.5s35.3 54.8 77 54.8 66.7-48.6 106.7-69.4c0 0-92.1 44.6-120.2 0 0 0.1-2 46.7-63.5 14.6z"/><path class="st0" d="m189.7 236.8s15.1-10.2 10.7-33c0 0 14.3 24.7 28.6 26.2s27 1 28.6 21.3c0 0-24.6-18.9-67.9-14.5z"/><g><ellipse class="st12" transform="matrix(.1605 -.987 .987 .1605 98.956 566.88)" cx="382.7" cy="225.3" rx="33.2" ry="33.2" style=""/><ellipse class="st13" transform="matrix(.082593 -.9966 .9966 .082593 126.62 588.08)" cx="382.7" cy="225.3" rx="31.8" ry="31.8" style=""/><path class="st14" d="m402.2 227.6c1.8 1 5.8-2.4 5.5-4.1s-3.6-2.7-4.8-1.6c-1.2 1.2-2.7 4.6-0.7 5.7zm-28.1-12.5c1.7 2.5 4.8-1.1 4.5-3.2s-6.2 0.6-4.5 3.2zm28.4 15.6c-0.6-1.7-3.4 1.2-3 2.3 0.5 1.1 3.6-0.6 3-2.3zm-13.1-18.6c-0.8-1.7-7.2-0.7-8 2.3s3.2 4.2 4.9 3.9 4-4.3 3.1-6.2zm20.4 13.5c1.6 0.1 2.8-7.8 0.5-7.6-2.3 0.1-2.4 7.5-0.5 7.6zm-14 3.9c1.8 0.2 1.1-6.2-0.1-6.2-1.2-0.2-2.2 5.9 0.1 6.2zm6.2 9.6c0.3-1.6-3.7-2.7-4.2-0.8-0.4 2 3.9 2.4 4.2 0.8zm-7.9-4.9c0.5-2.2-5.4-1.6-5.8 0.1-0.3 1.7 5 3.1 5.8-0.1zm-11.8 2.2c-1.5-1.2-2.8 0.3-3.5 1.7-0.6 1.4 0.9 5.5 2.4 5 1.2-0.4 2.6-5.5 1.1-6.7zm14.7-32.4c1.2-0.3 2-4.4 0.9-4.8-1.2-0.4-3.4 1.3-3.6 2.5-0.2 1.1 1.2 2.8 2.7 2.3zm-3.3 1.7c0-1.7-7.6-0.2-7.4 2 0.2 2 7.3-0.2 7.4-2zm-29 10.6c1 1.1 3.7-3.7 3.1-4.8-0.5-1-4.1 3.7-3.1 4.8zm38.3-10.1c0.7-1-0.9-3.2-2.5-1.8s1.8 2.8 2.5 1.8zm-11.7-7.2c0.1-1.2-4.7-3.2-5-1.5-0.5 1.7 4.8 2.7 5 1.5zm-6 32.2c1.4 1.1 5.4-3.6 4.2-4.8-1.4-1.2-5.7 3.7-4.2 4.8zm-1.8-31.1c-2.5 0.8-4.5 4.8-2.5 6.3s3.1-0.3 3.8-2.8c0.3-1.2 1.2-4.3-1.3-3.5zm19.7 17c1.3-1.4-1.1-3.5-2.3-2.2-1.3 1.2 0.4 4.2 2.3 2.2zm-6.9 4.1c1.3-0.7 0.9-4.1-0.6-4.6-1.6-0.5-4 0.7-4 2.4-0.1 1.7 3.5 2.8 4.6 2.2zm-20.8 1c1.6-0.9-0.7-4.4-2.3-3.6-1.5 0.7 0.7 4.5 2.3 3.6zm10.9-0.8c0-1.9-7.8 1.2-6.7 3.6 1.2 2.4 6.8-0.6 6.7-3.6zm6-8.1c0.1 1 3.7-1.2 2.7-2.3-1.1-1.1-2.9 0.7-2.7 2.3zm-37.5 9.6c1.4 0.5 3.3-3.7 2.8-4.7s-4.5 4.1-2.8 4.7zm5.7-14.2c-1.3-1.2-5.7 3.7-4.2 4.8 1.5 1.2 5.5-3.6 4.2-4.8zm-4 19c0.1 3 3.3 0.9 4.5-0.1 1.2-1.1 2.9-1 2.6-2.9-0.2-1.6-7.1 0-7.1 3zm13.9 3.2c1.2-0.1 1.7-6-0.1-6.5-1.8-0.4-2.8 1.1-3.4 2.5-0.7 1.5 2.2 4.1 3.5 4zm27.8-21c-1.5 1.1 0.6 3.4 2.1 2.5 1.5-1-0.6-3.6-2.1-2.5zm-22.8 22.7c2.4 1.4 3.6-3.9 2.4-4.6-1.1-0.9-4.9 3.2-2.4 4.6zm-4.7-32.6c-3 3.3-1.9 5.1-1.1 5.2 1.5 0.2 1.6-3.2 6.8-5.9 2.4-1.2 5-1.8 5-2.6 0-1.5-7.7 0-10.7 3.3zm-0.1 8.9c0 1.7 6.1-1.2 6.2-2.4 0-1.3-6.3 0.7-6.2 2.4zm-7.3-5.1c-1.6 1.4 1.9 2.8 2.5 1.8 0.6-1.1-0.9-3.3-2.5-1.8zm42.5 5.3c-1.4 1.1 1.6 7.1 4.3 5.3 1.6-1.1-2.9-6.4-4.3-5.3zm-12.6 33.4c0.8-1-5.4-3.2-6.4-1.8-0.9 1.4 5.6 2.8 6.4 1.8zm-26.3 7.1c0 1.6 8.9 3 8.9 0.3 0-2-8.8-1.9-8.9-0.3zm11.2 1.9c0 1.8 4.8 3.1 5.5 1.2 0.5-1.4-5.6-3-5.5-1.2zm18.2-0.9c1.9 0.4 5.6-1.9 6-3.7 0.5-1.8-4.5-4.1-6.2-3.5-1.5 0.6-2.2 6.7 0.2 7.2zm-4.1 2.1c0.3-1.2-4.9-3.2-5.2-0.8s4.8 2.5 5.2 0.8zm14-12.3c2.3 0.1 5.6-8.3 2.7-9.5-1.8-0.8-5 9.4-2.7 9.5zm-45.7 2.6c0.5 2.1 8.3 1.8 9.1-0.2 0.4-1.2-9.5-1.9-9.1 0.2zm-5.5-9.8c-1.2 0-1.7 2.8-1 3.9 0.7 1.2 2.6 1.5 3.7 0.9 1.2-0.8-1.5-4.8-2.7-4.8zm19.1 4.4c0-1.2-4.6-0.7-4.2 0.4 0.3 1.1 4.2 1 4.2-0.4zm5.1 9.6c0.3 1.7 6.1 1.5 6.6-0.8 0.3-1.2-6.8-0.9-6.6 0.8zm-17.6-15.1c-1.2 0.6-2 3.1-0.7 3.8 1.3 0.8 4.1-0.6 4-2-0.1-1.2-2.1-2.3-3.3-1.8z" style=""/></g><g><ellipse class="st12" transform="matrix(.1605 -.987 .987 .1605 94.711 687.46)" cx="451.5" cy="288.1" rx="24.6" ry="24.6" style=""/><ellipse class="st13" transform="matrix(.082593 -.9966 .9966 .082593 127.14 714.21)" cx="451.5" cy="288.1" rx="23.5" ry="23.5" style=""/><path class="st14" d="m466 289.8c1.3 0.7 4.3-1.8 4.1-3-0.2-1.3-2.6-2-3.6-1.2s-2 3.4-0.5 4.2zm-20.9-9.3c1.3 1.9 3.5-0.8 3.3-2.4-0.2-1.5-4.6 0.5-3.3 2.4zm21.1 11.6c-0.4-1.2-2.5 0.9-2.2 1.7s2.6-0.5 2.2-1.7zm-9.8-13.8c-0.6-1.3-5.3-0.5-5.9 1.7s2.4 3.1 3.6 2.9c1.3-0.3 3-3.2 2.3-4.6zm15.2 10c1.2 0.1 2.1-5.8 0.4-5.7-1.8 0.2-1.9 5.7-0.4 5.7zm-10.4 2.9c1.3 0.1 0.8-4.6-0.1-4.6-0.9-0.1-1.7 4.4 0.1 4.6zm4.6 7.1c0.2-1.2-2.8-2-3.1-0.6-0.4 1.5 2.8 1.8 3.1 0.6zm-5.9-3.6c0.4-1.6-4-1.2-4.3 0.1s3.7 2.3 4.3-0.1zm-8.7 1.6c-1.1-0.9-2.1 0.3-2.6 1.3s0.7 4.1 1.8 3.7c0.9-0.3 1.9-4.1 0.8-5zm10.9-24c0.9-0.3 1.5-3.3 0.6-3.6s-2.5 1-2.6 1.8c-0.2 0.9 0.8 2.1 2 1.8zm-2.5 1.3c0-1.3-5.7-0.1-5.5 1.5 0.2 1.4 5.5-0.2 5.5-1.5zm-21.5 7.8c0.8 0.8 2.8-2.8 2.3-3.6-0.4-0.7-3 2.8-2.3 3.6zm28.4-7.5c0.5-0.7-0.7-2.4-1.9-1.3-1.2 1 1.4 2 1.9 1.3zm-8.7-5.3c0.1-0.9-3.5-2.4-3.7-1.1-0.3 1.2 3.6 2 3.7 1.1zm-4.4 23.9c1.1 0.8 4-2.7 3.1-3.6-1-0.9-4.2 2.7-3.1 3.6zm-1.4-23.1c-1.9 0.6-3.3 3.6-1.8 4.7s2.3-0.2 2.8-2.1c0.2-0.9 0.9-3.2-1-2.6zm14.7 12.6c1-1-0.8-2.6-1.7-1.6s0.2 3.1 1.7 1.6zm-5.2 3.1c1-0.5 0.7-3-0.5-3.4s-3 0.5-3 1.8c0.1 1.2 2.7 2 3.5 1.6zm-15.4 0.7c1.2-0.7-0.5-3.3-1.7-2.7s0.6 3.4 1.7 2.7zm8.1-0.6c0-1.4-5.8 0.9-5 2.7 0.9 1.7 5.1-0.5 5-2.7zm4.4-6c0.1 0.8 2.7-0.9 2-1.7-0.7-0.9-2.1 0.5-2 1.7zm-27.8 7.1c1 0.4 2.5-2.8 2.1-3.5-0.3-0.7-3.3 3-2.1 3.5zm4.3-10.5c-1-0.9-4.2 2.7-3.1 3.6 1.1 0.8 4.1-2.7 3.1-3.6zm-3 14c0 2.2 2.5 0.7 3.4-0.1s2.2-0.8 1.9-2.1c-0.1-1.1-5.3 0-5.3 2.2zm10.3 2.4c0.9-0.1 1.2-4.5-0.1-4.8s-2 0.8-2.5 1.9 1.6 3 2.6 2.9zm20.7-15.6c-1.1 0.8 0.5 2.5 1.5 1.8 1.1-0.6-0.5-2.6-1.5-1.8zm-16.9 16.9c1.8 1 2.7-2.9 1.8-3.4-0.9-0.7-3.7 2.3-1.8 3.4zm-3.5-24.2c-2.3 2.4-1.4 3.8-0.8 3.9 1.1 0.2 1.2-2.4 5.1-4.4 1.8-0.9 3.7-1.3 3.7-2-0.1-1-5.8 0.1-8 2.5zm-0.1 6.6c0 1.2 4.5-0.9 4.6-1.8 0-0.9-4.7 0.6-4.6 1.8zm-5.5-3.8c-1.2 1.1 1.4 2.1 1.9 1.3 0.5-0.7-0.7-2.4-1.9-1.3zm31.5 3.9c-1.1 0.8 1.2 5.3 3.2 3.9 1.3-0.7-2.1-4.6-3.2-3.9zm-9.3 24.8c0.6-0.7-4-2.3-4.7-1.3s4.2 2 4.7 1.3zm-19.5 5.3c0 1.2 6.6 2.2 6.6 0.2 0-1.5-6.5-1.4-6.6-0.2zm8.3 1.4c0 1.3 3.5 2.3 4.1 0.9 0.4-1.1-4.1-2.2-4.1-0.9zm13.5-0.7c1.4 0.3 4.1-1.4 4.5-2.7 0.3-1.3-3.4-3-4.6-2.6s-1.6 5 0.1 5.3zm-3 1.6c0.2-0.9-3.6-2.4-3.8-0.6-0.3 1.8 3.5 1.8 3.8 0.6zm10.4-9.1c1.7 0.1 4.1-6.1 2-7-1.4-0.6-3.7 6.9-2 7zm-33.9 1.9c0.3 1.6 6.1 1.4 6.7-0.1 0.4-0.9-7-1.5-6.7 0.1zm-4.1-7.3c-0.9 0-1.3 2-0.8 2.9s2 1.1 2.7 0.6c1-0.5-1-3.5-1.9-3.5zm14.2 3.3c0-0.9-3.4-0.5-3.1 0.3 0.2 0.8 3.1 0.7 3.1-0.3zm3.8 7.1c0.2 1.3 4.5 1.1 4.9-0.6 0.2-0.9-5.1-0.7-4.9 0.6zm-13.1-11.2c-0.9 0.4-1.5 2.3-0.5 2.8 1 0.6 3-0.5 2.9-1.5 0-0.9-1.5-1.7-2.4-1.3z" style=""/></g><g><defs><path id="SVGID_1_" d="m438.6 439.3c0.1-3 0.2-5 0.2-5s-10.5 13.4-17.5 10.3c-6.9-3.1-7.2-11.7-21.8-9.3 0 0 11.7 4.5 12.2 11.5 0 0 10.7 5.4 17.3 14.3-9.8 20.1-19.9 33.7-30 36.5-1.7-2.3-2.6-6.3-1.6-13.1 2.8-19.7 0-32.3-10.3-53.9-10.3-21.5-1.4-56.7-18.3-88.5 0 0-6.6-24.4-5.6-39.8 0.9-15.5-6.1-101.7-14.5-116.6 0 0 39.4 2.8 59 0 19.7-2.8 47.8 7.5 67.5 3.7 9.8-1.9 19.3-1.4 27.6 0.4-5.7 30.8-32.2 169-64.2 249.5z"/></defs><clipPath id="SVGID_2_"><use xlink:href="#SVGID_1_"/></clipPath><g class="st15" clip-path="url(#SVGID_2_)" style=""><ellipse class="st12" transform="matrix(.1605 -.987 .987 .1605 -15.284 769.68)" cx="444.8" cy="393.8" rx="35.2" ry="35.2" style=""/><ellipse class="st13" transform="matrix(.082593 -.9966 .9966 .082593 15.613 804.61)" cx="444.8" cy="393.8" rx="33.7" ry="33.7" style=""/><path class="st14" d="m465.5 396.3c1.9 1 6.1-2.5 5.8-4.3s-3.8-2.9-5.1-1.7-2.8 4.8-0.7 6zm-29.8-13.3c1.8 2.7 5.1-1.2 4.7-3.4-0.3-2.2-6.5 0.7-4.7 3.4zm30.2 16.6c-0.6-1.8-3.6 1.3-3.2 2.4 0.4 1.2 3.7-0.6 3.2-2.4zm-14-19.7c-0.9-1.8-7.6-0.8-8.5 2.4-0.8 3.2 3.4 4.4 5.2 4.1s4.2-4.6 3.3-6.5zm21.7 14.3c1.7 0.1 2.9-8.3 0.5-8.1s-2.6 8-0.5 8.1zm-14.9 4.1c1.9 0.2 1.2-6.5-0.1-6.6s-2.4 6.3 0.1 6.6zm6.6 10.3c0.3-1.7-4-2.9-4.4-0.8-0.6 2 4 2.4 4.4 0.8zm-8.4-5.3c0.6-2.3-5.7-1.7-6.1 0.1s5.3 3.3 6.1-0.1zm-12.5 2.3c-1.6-1.3-3 0.4-3.7 1.8-0.7 1.5 1 5.8 2.6 5.3 1.2-0.4 2.7-5.8 1.1-7.1zm15.6-34.3c1.2-0.4 2.2-4.7 0.9-5.1-1.3-0.5-3.6 1.4-3.8 2.6s1.2 2.9 2.9 2.5zm-3.6 1.8c0-1.8-8.1-0.2-7.9 2.1 0.3 2.1 7.9-0.3 7.9-2.1zm-30.7 11.2c1.1 1.2 4-4 3.3-5.1-0.6-1.1-4.4 4-3.3 5.1zm40.6-10.7c0.7-1.1-1-3.4-2.7-1.9s2 2.9 2.7 1.9zm-12.4-7.7c0.2-1.3-4.9-3.4-5.3-1.6-0.5 1.9 5.1 2.9 5.3 1.6zm-6.4 34.3c1.5 1.2 5.8-3.9 4.4-5.1-1.3-1.3-5.9 3.9-4.4 5.1zm-1.9-33.1c-2.7 0.8-4.7 5.1-2.6 6.7s3.3-0.3 4-2.9c0.3-1.4 1.3-4.6-1.4-3.8zm20.9 18c1.4-1.5-1.2-3.7-2.5-2.4s0.5 4.5 2.5 2.4zm-7.3 4.4c1.4-0.8 1-4.4-0.7-4.9s-4.3 0.7-4.3 2.5c0.1 1.9 3.8 3.1 5 2.4zm-22 1.1c1.7-1-0.8-4.7-2.4-3.9s0.7 4.9 2.4 3.9zm11.6-0.9c0-2-8.3 1.3-7.1 3.8 1.2 2.6 7.1-0.6 7.1-3.8zm6.3-8.6c0.1 1.1 3.9-1.3 2.8-2.4-1.1-1.2-3 0.7-2.8 2.4zm-39.9 10.2c1.5 0.6 3.5-4 3-5s-4.7 4.3-3 5zm6.2-15c-1.4-1.3-6 3.9-4.4 5.1 1.5 1.2 5.7-3.9 4.4-5.1zm-4.3 20.1c0.1 3.2 3.5 1 4.8-0.1s3.1-1.1 2.8-3.1c-0.2-1.6-7.6 0-7.6 3.2zm14.7 3.4c1.3-0.1 1.8-6.4-0.1-6.9s-2.9 1.2-3.6 2.7c-0.8 1.5 2.3 4.3 3.7 4.2zm29.6-22.3c-1.6 1.1 0.7 3.6 2.2 2.6 1.5-0.9-0.7-3.7-2.2-2.6zm-24.2 24.1c2.6 1.5 3.8-4.1 2.6-4.9-1.2-0.9-5.3 3.4-2.6 4.9zm-5-34.6c-3.2 3.5-2 5.5-1.2 5.6 1.6 0.2 1.7-3.4 7.2-6.3 2.5-1.3 5.3-1.9 5.3-2.8 0-1.6-8.1 0-11.3 3.5zm-0.2 9.5c0 1.8 6.5-1.2 6.5-2.6 0.1-1.3-6.5 0.8-6.5 2.6zm-7.7-5.5c-1.7 1.5 2 3 2.7 1.9s-1-3.4-2.7-1.9zm45.1 5.6c-1.5 1.1 1.7 7.6 4.6 5.6 1.7-1.1-3.1-6.7-4.6-5.6zm-13.3 35.5c0.8-1-5.7-3.4-6.8-1.9-1 1.5 5.9 2.9 6.8 1.9zm-27.9 7.5c0 1.7 9.5 3.2 9.4 0.3 0-2.1-9.4-2-9.4-0.3zm11.8 2.1c0 1.9 5.1 3.3 5.8 1.2 0.6-1.5-5.8-3.1-5.8-1.2zm19.4-1c2 0.4 5.9-2.1 6.4-3.9 0.5-1.9-4.8-4.3-6.5-3.7-1.8 0.6-2.5 7.1 0.1 7.6zm-4.4 2.3c0.3-1.3-5.2-3.4-5.5-0.8-0.3 2.5 5 2.5 5.5 0.8zm14.9-13.1c2.4 0.1 5.9-8.8 2.9-10.1-2-0.8-5.4 9.9-2.9 10.1zm-48.5 2.7c0.5 2.2 8.8 1.9 9.6-0.2 0.5-1.2-10.1-2-9.6 0.2zm-5.9-10.3c-1.3 0-1.8 2.9-1.1 4.2 0.7 1.2 2.8 1.6 3.9 0.9 1.4-0.9-1.5-5.2-2.8-5.1zm20.3 4.6c0-1.3-4.9-0.7-4.5 0.4 0.4 1.2 4.5 1.1 4.5-0.4zm5.4 10.2c0.3 1.8 6.5 1.6 7-0.9 0.3-1.2-7.3-1-7 0.9zm-18.7-16c-1.3 0.6-2.1 3.3-0.7 4.1s4.3-0.7 4.2-2.1-2.2-2.6-3.5-2z" style=""/><g style=""><ellipse class="st12" transform="matrix(.1605 -.987 .987 .1605 -19.134 637.14)" cx="365" cy="329.8" rx="24.6" ry="24.6" style=""/><ellipse class="st13" transform="matrix(.082593 -.9966 .9966 .082593 6.1546 666.33)" cx="365" cy="329.8" rx="23.5" ry="23.5" style=""/><path class="st14" d="m379.5 331.6c1.3 0.7 4.3-1.8 4.1-3-0.2-1.3-2.6-2-3.6-1.2s-2 3.3-0.5 4.2zm-20.9-9.3c1.3 1.9 3.5-0.8 3.3-2.4s-4.6 0.5-3.3 2.4zm21.1 11.6c-0.4-1.2-2.5 0.9-2.2 1.7s2.6-0.5 2.2-1.7zm-9.8-13.8c-0.6-1.3-5.3-0.5-5.9 1.7s2.4 3.1 3.6 2.9c1.3-0.3 3-3.3 2.3-4.6zm15.2 10c1.2 0.1 2.1-5.8 0.4-5.7-1.8 0.1-1.9 5.6-0.4 5.7zm-10.4 2.8c1.3 0.1 0.8-4.6-0.1-4.6-0.9-0.1-1.7 4.4 0.1 4.6zm4.6 7.2c0.2-1.2-2.8-2-3.1-0.6-0.4 1.5 2.8 1.8 3.1 0.6zm-5.9-3.7c0.4-1.6-4-1.2-4.3 0.1-0.2 1.3 3.7 2.3 4.3-0.1zm-8.7 1.7c-1.1-0.9-2.1 0.3-2.6 1.3s0.7 4.1 1.8 3.7c0.9-0.4 1.9-4.1 0.8-5zm10.9-24c0.9-0.3 1.5-3.3 0.6-3.6s-2.5 1-2.6 1.8c-0.2 0.9 0.8 2.1 2 1.8zm-2.5 1.3c0-1.3-5.7-0.1-5.5 1.5 0.2 1.4 5.5-0.3 5.5-1.5zm-21.5 7.8c0.8 0.8 2.8-2.8 2.3-3.6-0.4-0.8-3 2.8-2.3 3.6zm28.4-7.5c0.5-0.7-0.7-2.4-1.9-1.3-1.2 1 1.4 2 1.9 1.3zm-8.7-5.4c0.1-0.9-3.5-2.4-3.7-1.1-0.3 1.3 3.6 2 3.7 1.1zm-4.4 23.9c1.1 0.8 4-2.7 3.1-3.6-1-0.8-4.2 2.8-3.1 3.6zm-1.4-23.1c-1.9 0.6-3.3 3.6-1.8 4.7s2.3-0.2 2.8-2.1c0.2-0.8 0.9-3.1-1-2.6zm14.7 12.6c1-1-0.8-2.6-1.7-1.6s0.2 3.1 1.7 1.6zm-5.2 3.1c1-0.5 0.7-3-0.5-3.4s-3 0.5-3 1.8c0.1 1.2 2.7 2.1 3.5 1.6zm-15.4 0.8c1.2-0.7-0.5-3.3-1.7-2.7s0.6 3.3 1.7 2.7zm8.1-0.6c0-1.4-5.8 0.9-5 2.7 0.9 1.7 5.1-0.5 5-2.7zm4.4-6.1c0.1 0.8 2.7-0.9 2-1.7s-2.1 0.6-2 1.7zm-27.8 7.2c1 0.4 2.5-2.8 2.1-3.5-0.3-0.8-3.3 3-2.1 3.5zm4.3-10.6c-1-0.9-4.2 2.7-3.1 3.6s4.1-2.7 3.1-3.6zm-3 14.1c0 2.2 2.5 0.7 3.4-0.1s2.2-0.8 1.9-2.1c-0.1-1.2-5.3 0-5.3 2.2zm10.3 2.4c0.9-0.1 1.2-4.5-0.1-4.8s-2 0.8-2.5 1.9c-0.5 1 1.6 3 2.6 2.9zm20.7-15.6c-1.1 0.8 0.5 2.5 1.5 1.8 1.1-0.6-0.5-2.6-1.5-1.8zm-16.9 16.8c1.8 1 2.7-2.9 1.8-3.4-0.9-0.6-3.7 2.4-1.8 3.4zm-3.5-24.1c-2.3 2.4-1.4 3.8-0.8 3.9 1.1 0.2 1.2-2.4 5.1-4.4 1.8-0.9 3.7-1.3 3.7-2-0.1-1.1-5.8 0.1-8 2.5zm-0.1 6.6c0 1.2 4.5-0.9 4.6-1.8 0-0.9-4.7 0.6-4.6 1.8zm-5.5-3.8c-1.2 1.1 1.4 2.1 1.9 1.3 0.5-0.7-0.7-2.4-1.9-1.3zm31.5 3.9c-1.1 0.8 1.2 5.3 3.2 3.9 1.3-0.7-2.1-4.7-3.2-3.9zm-9.3 24.8c0.6-0.7-4-2.3-4.7-1.3s4.2 2 4.7 1.3zm-19.5 5.3c0 1.2 6.6 2.2 6.6 0.2 0-1.5-6.5-1.4-6.6-0.2zm8.3 1.4c0 1.3 3.5 2.3 4.1 0.9 0.4-1.1-4.1-2.2-4.1-0.9zm13.5-0.7c1.4 0.3 4.1-1.4 4.5-2.7 0.3-1.3-3.4-3-4.6-2.6s-1.6 4.9 0.1 5.3zm-3 1.6c0.2-0.9-3.6-2.4-3.8-0.6-0.3 1.8 3.5 1.8 3.8 0.6zm10.4-9.2c1.7 0.1 4.1-6.1 2-7-1.4-0.6-3.7 6.9-2 7zm-33.9 1.9c0.3 1.6 6.1 1.4 6.7-0.1 0.4-0.9-7-1.4-6.7 0.1zm-4.1-7.2c-0.9 0-1.3 2-0.8 2.9s2 1.1 2.7 0.6c1-0.5-1-3.5-1.9-3.5zm14.2 3.3c0-0.9-3.4-0.5-3.1 0.3 0.2 0.8 3.1 0.7 3.1-0.3zm3.8 7.1c0.2 1.3 4.5 1.1 4.9-0.6 0.2-0.9-5.1-0.7-4.9 0.6zm-13.1-11.2c-0.9 0.4-1.5 2.3-0.5 2.8 1 0.6 3-0.5 2.9-1.5 0-0.9-1.5-1.7-2.4-1.3z" style=""/></g></g></g></svg>
